%TF.GenerationSoftware,KiCad,Pcbnew,9.0.1*%
%TF.CreationDate,2025-04-09T09:21:29+08:00*%
%TF.ProjectId,bitaxeSupra,62697461-7865-4537-9570-72612e6b6963,rev?*%
%TF.SameCoordinates,Original*%
%TF.FileFunction,Legend,Bot*%
%TF.FilePolarity,Positive*%
%FSLAX46Y46*%
G04 Gerber Fmt 4.6, Leading zero omitted, Abs format (unit mm)*
G04 Created by KiCad (PCBNEW 9.0.1) date 2025-04-09 09:21:29*
%MOMM*%
%LPD*%
G01*
G04 APERTURE LIST*
G04 Aperture macros list*
%AMRoundRect*
0 Rectangle with rounded corners*
0 $1 Rounding radius*
0 $2 $3 $4 $5 $6 $7 $8 $9 X,Y pos of 4 corners*
0 Add a 4 corners polygon primitive as box body*
4,1,4,$2,$3,$4,$5,$6,$7,$8,$9,$2,$3,0*
0 Add four circle primitives for the rounded corners*
1,1,$1+$1,$2,$3*
1,1,$1+$1,$4,$5*
1,1,$1+$1,$6,$7*
1,1,$1+$1,$8,$9*
0 Add four rect primitives between the rounded corners*
20,1,$1+$1,$2,$3,$4,$5,0*
20,1,$1+$1,$4,$5,$6,$7,0*
20,1,$1+$1,$6,$7,$8,$9,0*
20,1,$1+$1,$8,$9,$2,$3,0*%
%AMFreePoly0*
4,1,49,0.438953,2.206767,0.723239,2.130593,0.995150,2.017964,1.250033,1.870807,1.483528,1.691640,1.691640,1.483528,1.870807,1.250033,2.017964,0.995150,2.130593,0.723239,2.206767,0.438953,2.245183,0.147157,2.245183,-0.147157,2.206767,-0.438953,2.130593,-0.723239,2.017964,-0.995150,1.870807,-1.250033,1.691640,-1.483528,1.483528,-1.691640,1.250033,-1.870807,0.995150,-2.017964,
0.723239,-2.130593,0.438953,-2.206767,0.147157,-2.245183,-0.147157,-2.245183,-0.438953,-2.206767,-0.723239,-2.130593,-0.995150,-2.017964,-1.250033,-1.870807,-1.483528,-1.691640,-1.691640,-1.483528,-1.870807,-1.250033,-2.017964,-0.995150,-2.130593,-0.723239,-2.206767,-0.438953,-2.245183,-0.147157,-2.245183,0.147157,-2.206767,0.438953,-2.130593,0.723239,-2.017964,0.995150,-1.870807,1.250033,
-1.691640,1.483528,-1.483528,1.691640,-1.250033,1.870807,-0.995150,2.017964,-0.723239,2.130593,-0.438953,2.206767,-0.147157,2.245183,0.147157,2.245183,0.438953,2.206767,0.438953,2.206767,$1*%
G04 Aperture macros list end*
%ADD10C,0.150000*%
%ADD11C,0.300000*%
%ADD12C,0.250000*%
%ADD13C,0.120000*%
%ADD14C,0.000000*%
%ADD15C,0.127000*%
%ADD16C,0.152400*%
%ADD17C,0.050000*%
%ADD18C,0.100000*%
%ADD19C,0.227485*%
%ADD20C,0.310000*%
%ADD21C,0.800000*%
%ADD22C,6.000000*%
%ADD23R,1.700000X1.700000*%
%ADD24O,1.700000X1.700000*%
%ADD25C,0.400000*%
%ADD26C,1.295400*%
%ADD27C,1.574800*%
%ADD28C,1.700000*%
%ADD29C,2.000000*%
%ADD30C,0.650000*%
%ADD31RoundRect,0.150000X0.425000X-0.150000X0.425000X0.150000X-0.425000X0.150000X-0.425000X-0.150000X0*%
%ADD32RoundRect,0.075000X0.500000X-0.075000X0.500000X0.075000X-0.500000X0.075000X-0.500000X-0.075000X0*%
%ADD33O,1.800000X1.000000*%
%ADD34O,2.100000X1.000000*%
%ADD35R,0.900000X1.500000*%
%ADD36R,1.500000X0.900000*%
%ADD37R,0.900000X0.900000*%
%ADD38C,0.990600*%
%ADD39C,0.787400*%
%ADD40C,1.600000*%
%ADD41C,1.800000*%
%ADD42RoundRect,0.102000X1.000000X-1.000000X1.000000X1.000000X-1.000000X1.000000X-1.000000X-1.000000X0*%
%ADD43R,0.900000X1.800000*%
%ADD44FreePoly0,180.000000*%
%ADD45C,2.050000*%
%ADD46RoundRect,0.055250X0.340750X0.055250X-0.340750X0.055250X-0.340750X-0.055250X0.340750X-0.055250X0*%
G04 APERTURE END LIST*
D10*
X106006190Y-110747200D02*
X106863332Y-112032914D01*
X104958570Y-110890057D02*
X104910951Y-110842438D01*
X104910951Y-110842438D02*
X104815713Y-110794819D01*
X104815713Y-110794819D02*
X104577618Y-110794819D01*
X104577618Y-110794819D02*
X104482380Y-110842438D01*
X104482380Y-110842438D02*
X104434761Y-110890057D01*
X104434761Y-110890057D02*
X104387142Y-110985295D01*
X104387142Y-110985295D02*
X104387142Y-111080533D01*
X104387142Y-111080533D02*
X104434761Y-111223390D01*
X104434761Y-111223390D02*
X105006189Y-111794819D01*
X105006189Y-111794819D02*
X104387142Y-111794819D01*
X103434761Y-111794819D02*
X104006189Y-111794819D01*
X103720475Y-111794819D02*
X103720475Y-110794819D01*
X103720475Y-110794819D02*
X103815713Y-110937676D01*
X103815713Y-110937676D02*
X103910951Y-111032914D01*
X103910951Y-111032914D02*
X104006189Y-111080533D01*
X103006189Y-111794819D02*
X103006189Y-110794819D01*
X103006189Y-110794819D02*
X102672856Y-111509104D01*
X102672856Y-111509104D02*
X102339523Y-110794819D01*
X102339523Y-110794819D02*
X102339523Y-111794819D01*
X124311190Y-133498680D02*
X123835000Y-133498680D01*
X123835000Y-133498680D02*
X123787381Y-133022490D01*
X123787381Y-133022490D02*
X123835000Y-133070109D01*
X123835000Y-133070109D02*
X123930238Y-133117728D01*
X123930238Y-133117728D02*
X124168333Y-133117728D01*
X124168333Y-133117728D02*
X124263571Y-133070109D01*
X124263571Y-133070109D02*
X124311190Y-133022490D01*
X124311190Y-133022490D02*
X124358809Y-132927252D01*
X124358809Y-132927252D02*
X124358809Y-132689157D01*
X124358809Y-132689157D02*
X124311190Y-132593919D01*
X124311190Y-132593919D02*
X124263571Y-132546300D01*
X124263571Y-132546300D02*
X124168333Y-132498680D01*
X124168333Y-132498680D02*
X123930238Y-132498680D01*
X123930238Y-132498680D02*
X123835000Y-132546300D01*
X123835000Y-132546300D02*
X123787381Y-132593919D01*
X124644524Y-133498680D02*
X124977857Y-132498680D01*
X124977857Y-132498680D02*
X125311190Y-133498680D01*
D11*
X91911203Y-74930828D02*
X92625489Y-74930828D01*
X92625489Y-74930828D02*
X92696917Y-75645114D01*
X92696917Y-75645114D02*
X92625489Y-75573685D01*
X92625489Y-75573685D02*
X92482632Y-75502257D01*
X92482632Y-75502257D02*
X92125489Y-75502257D01*
X92125489Y-75502257D02*
X91982632Y-75573685D01*
X91982632Y-75573685D02*
X91911203Y-75645114D01*
X91911203Y-75645114D02*
X91839774Y-75787971D01*
X91839774Y-75787971D02*
X91839774Y-76145114D01*
X91839774Y-76145114D02*
X91911203Y-76287971D01*
X91911203Y-76287971D02*
X91982632Y-76359400D01*
X91982632Y-76359400D02*
X92125489Y-76430828D01*
X92125489Y-76430828D02*
X92482632Y-76430828D01*
X92482632Y-76430828D02*
X92625489Y-76359400D01*
X92625489Y-76359400D02*
X92696917Y-76287971D01*
X91411203Y-74930828D02*
X90911203Y-76430828D01*
X90911203Y-76430828D02*
X90411203Y-74930828D01*
X89911204Y-76430828D02*
X89911204Y-74930828D01*
X89911204Y-74930828D02*
X89554061Y-74930828D01*
X89554061Y-74930828D02*
X89339775Y-75002257D01*
X89339775Y-75002257D02*
X89196918Y-75145114D01*
X89196918Y-75145114D02*
X89125489Y-75287971D01*
X89125489Y-75287971D02*
X89054061Y-75573685D01*
X89054061Y-75573685D02*
X89054061Y-75787971D01*
X89054061Y-75787971D02*
X89125489Y-76073685D01*
X89125489Y-76073685D02*
X89196918Y-76216542D01*
X89196918Y-76216542D02*
X89339775Y-76359400D01*
X89339775Y-76359400D02*
X89554061Y-76430828D01*
X89554061Y-76430828D02*
X89911204Y-76430828D01*
X87554061Y-76287971D02*
X87625489Y-76359400D01*
X87625489Y-76359400D02*
X87839775Y-76430828D01*
X87839775Y-76430828D02*
X87982632Y-76430828D01*
X87982632Y-76430828D02*
X88196918Y-76359400D01*
X88196918Y-76359400D02*
X88339775Y-76216542D01*
X88339775Y-76216542D02*
X88411204Y-76073685D01*
X88411204Y-76073685D02*
X88482632Y-75787971D01*
X88482632Y-75787971D02*
X88482632Y-75573685D01*
X88482632Y-75573685D02*
X88411204Y-75287971D01*
X88411204Y-75287971D02*
X88339775Y-75145114D01*
X88339775Y-75145114D02*
X88196918Y-75002257D01*
X88196918Y-75002257D02*
X87982632Y-74930828D01*
X87982632Y-74930828D02*
X87839775Y-74930828D01*
X87839775Y-74930828D02*
X87625489Y-75002257D01*
X87625489Y-75002257D02*
X87554061Y-75073685D01*
X104299298Y-83346304D02*
X104299298Y-84679638D01*
X104775489Y-82584400D02*
X105251679Y-84012971D01*
X105251679Y-84012971D02*
X104013584Y-84012971D01*
X102870727Y-82679638D02*
X102680250Y-82679638D01*
X102680250Y-82679638D02*
X102489774Y-82774876D01*
X102489774Y-82774876D02*
X102394536Y-82870114D01*
X102394536Y-82870114D02*
X102299298Y-83060590D01*
X102299298Y-83060590D02*
X102204060Y-83441542D01*
X102204060Y-83441542D02*
X102204060Y-83917733D01*
X102204060Y-83917733D02*
X102299298Y-84298685D01*
X102299298Y-84298685D02*
X102394536Y-84489161D01*
X102394536Y-84489161D02*
X102489774Y-84584400D01*
X102489774Y-84584400D02*
X102680250Y-84679638D01*
X102680250Y-84679638D02*
X102870727Y-84679638D01*
X102870727Y-84679638D02*
X103061203Y-84584400D01*
X103061203Y-84584400D02*
X103156441Y-84489161D01*
X103156441Y-84489161D02*
X103251679Y-84298685D01*
X103251679Y-84298685D02*
X103346917Y-83917733D01*
X103346917Y-83917733D02*
X103346917Y-83441542D01*
X103346917Y-83441542D02*
X103251679Y-83060590D01*
X103251679Y-83060590D02*
X103156441Y-82870114D01*
X103156441Y-82870114D02*
X103061203Y-82774876D01*
X103061203Y-82774876D02*
X102870727Y-82679638D01*
X101442155Y-82870114D02*
X101346917Y-82774876D01*
X101346917Y-82774876D02*
X101156441Y-82679638D01*
X101156441Y-82679638D02*
X100680250Y-82679638D01*
X100680250Y-82679638D02*
X100489774Y-82774876D01*
X100489774Y-82774876D02*
X100394536Y-82870114D01*
X100394536Y-82870114D02*
X100299298Y-83060590D01*
X100299298Y-83060590D02*
X100299298Y-83251066D01*
X100299298Y-83251066D02*
X100394536Y-83536780D01*
X100394536Y-83536780D02*
X101537393Y-84679638D01*
X101537393Y-84679638D02*
X100299298Y-84679638D01*
X99442155Y-83917733D02*
X97918346Y-83917733D01*
X97251679Y-82679638D02*
X96108822Y-82679638D01*
X96680251Y-84679638D02*
X96680251Y-82679638D01*
X94680250Y-84584400D02*
X94870726Y-84679638D01*
X94870726Y-84679638D02*
X95251679Y-84679638D01*
X95251679Y-84679638D02*
X95442155Y-84584400D01*
X95442155Y-84584400D02*
X95537393Y-84393923D01*
X95537393Y-84393923D02*
X95537393Y-83632019D01*
X95537393Y-83632019D02*
X95442155Y-83441542D01*
X95442155Y-83441542D02*
X95251679Y-83346304D01*
X95251679Y-83346304D02*
X94870726Y-83346304D01*
X94870726Y-83346304D02*
X94680250Y-83441542D01*
X94680250Y-83441542D02*
X94585012Y-83632019D01*
X94585012Y-83632019D02*
X94585012Y-83822495D01*
X94585012Y-83822495D02*
X95537393Y-84012971D01*
X93823107Y-84584400D02*
X93632631Y-84679638D01*
X93632631Y-84679638D02*
X93251679Y-84679638D01*
X93251679Y-84679638D02*
X93061202Y-84584400D01*
X93061202Y-84584400D02*
X92965964Y-84393923D01*
X92965964Y-84393923D02*
X92965964Y-84298685D01*
X92965964Y-84298685D02*
X93061202Y-84108209D01*
X93061202Y-84108209D02*
X93251679Y-84012971D01*
X93251679Y-84012971D02*
X93537393Y-84012971D01*
X93537393Y-84012971D02*
X93727869Y-83917733D01*
X93727869Y-83917733D02*
X93823107Y-83727257D01*
X93823107Y-83727257D02*
X93823107Y-83632019D01*
X93823107Y-83632019D02*
X93727869Y-83441542D01*
X93727869Y-83441542D02*
X93537393Y-83346304D01*
X93537393Y-83346304D02*
X93251679Y-83346304D01*
X93251679Y-83346304D02*
X93061202Y-83441542D01*
X92394535Y-83346304D02*
X91632631Y-83346304D01*
X92108821Y-82679638D02*
X92108821Y-84393923D01*
X92108821Y-84393923D02*
X92013583Y-84584400D01*
X92013583Y-84584400D02*
X91823107Y-84679638D01*
X91823107Y-84679638D02*
X91632631Y-84679638D01*
D10*
X122441905Y-127442680D02*
X122441905Y-128442680D01*
X122441905Y-128442680D02*
X122822857Y-128442680D01*
X122822857Y-128442680D02*
X122918095Y-128395061D01*
X122918095Y-128395061D02*
X122965714Y-128347442D01*
X122965714Y-128347442D02*
X123013333Y-128252204D01*
X123013333Y-128252204D02*
X123013333Y-128109347D01*
X123013333Y-128109347D02*
X122965714Y-128014109D01*
X122965714Y-128014109D02*
X122918095Y-127966490D01*
X122918095Y-127966490D02*
X122822857Y-127918871D01*
X122822857Y-127918871D02*
X122441905Y-127918871D01*
X123346667Y-128442680D02*
X123584762Y-127442680D01*
X123584762Y-127442680D02*
X123775238Y-128156966D01*
X123775238Y-128156966D02*
X123965714Y-127442680D01*
X123965714Y-127442680D02*
X124203810Y-128442680D01*
X124584762Y-127442680D02*
X124584762Y-128442680D01*
X124584762Y-128442680D02*
X124918095Y-127728395D01*
X124918095Y-127728395D02*
X125251428Y-128442680D01*
X125251428Y-128442680D02*
X125251428Y-127442680D01*
D12*
X108259523Y-111149857D02*
X108069047Y-111054619D01*
X108069047Y-111054619D02*
X107878571Y-111149857D01*
X107878571Y-111149857D02*
X107783333Y-111340333D01*
X107783333Y-111340333D02*
X107878571Y-111530809D01*
X107878571Y-111530809D02*
X108069047Y-111626047D01*
X108069047Y-111626047D02*
X108259523Y-111530809D01*
X108259523Y-111530809D02*
X108640475Y-111149857D01*
X108640475Y-111149857D02*
X108830952Y-111054619D01*
X108830952Y-111054619D02*
X109021428Y-111149857D01*
X109021428Y-111149857D02*
X109116666Y-111340333D01*
X109116666Y-111340333D02*
X109021428Y-111530809D01*
X109021428Y-111530809D02*
X108830952Y-111626047D01*
X108830952Y-111626047D02*
X108640475Y-111530809D01*
X108640475Y-111530809D02*
X108259523Y-111149857D01*
D10*
X122965714Y-130975180D02*
X123537142Y-130975180D01*
X123251428Y-129975180D02*
X123251428Y-130975180D01*
X123822857Y-130260895D02*
X124299047Y-130260895D01*
X123727619Y-129975180D02*
X124060952Y-130975180D01*
X124060952Y-130975180D02*
X124394285Y-129975180D01*
X125299047Y-130070419D02*
X125251428Y-130022800D01*
X125251428Y-130022800D02*
X125108571Y-129975180D01*
X125108571Y-129975180D02*
X125013333Y-129975180D01*
X125013333Y-129975180D02*
X124870476Y-130022800D01*
X124870476Y-130022800D02*
X124775238Y-130118038D01*
X124775238Y-130118038D02*
X124727619Y-130213276D01*
X124727619Y-130213276D02*
X124680000Y-130403752D01*
X124680000Y-130403752D02*
X124680000Y-130546609D01*
X124680000Y-130546609D02*
X124727619Y-130737085D01*
X124727619Y-130737085D02*
X124775238Y-130832323D01*
X124775238Y-130832323D02*
X124870476Y-130927561D01*
X124870476Y-130927561D02*
X125013333Y-130975180D01*
X125013333Y-130975180D02*
X125108571Y-130975180D01*
X125108571Y-130975180D02*
X125251428Y-130927561D01*
X125251428Y-130927561D02*
X125299047Y-130879942D01*
X123101762Y-136870061D02*
X123006524Y-136917680D01*
X123006524Y-136917680D02*
X122863667Y-136917680D01*
X122863667Y-136917680D02*
X122720810Y-136870061D01*
X122720810Y-136870061D02*
X122625572Y-136774823D01*
X122625572Y-136774823D02*
X122577953Y-136679585D01*
X122577953Y-136679585D02*
X122530334Y-136489109D01*
X122530334Y-136489109D02*
X122530334Y-136346252D01*
X122530334Y-136346252D02*
X122577953Y-136155776D01*
X122577953Y-136155776D02*
X122625572Y-136060538D01*
X122625572Y-136060538D02*
X122720810Y-135965300D01*
X122720810Y-135965300D02*
X122863667Y-135917680D01*
X122863667Y-135917680D02*
X122958905Y-135917680D01*
X122958905Y-135917680D02*
X123101762Y-135965300D01*
X123101762Y-135965300D02*
X123149381Y-136012919D01*
X123149381Y-136012919D02*
X123149381Y-136346252D01*
X123149381Y-136346252D02*
X122958905Y-136346252D01*
X123577953Y-135917680D02*
X123577953Y-136917680D01*
X123577953Y-136917680D02*
X124149381Y-135917680D01*
X124149381Y-135917680D02*
X124149381Y-136917680D01*
X124625572Y-135917680D02*
X124625572Y-136917680D01*
X124625572Y-136917680D02*
X124863667Y-136917680D01*
X124863667Y-136917680D02*
X125006524Y-136870061D01*
X125006524Y-136870061D02*
X125101762Y-136774823D01*
X125101762Y-136774823D02*
X125149381Y-136679585D01*
X125149381Y-136679585D02*
X125197000Y-136489109D01*
X125197000Y-136489109D02*
X125197000Y-136346252D01*
X125197000Y-136346252D02*
X125149381Y-136155776D01*
X125149381Y-136155776D02*
X125101762Y-136060538D01*
X125101762Y-136060538D02*
X125006524Y-135965300D01*
X125006524Y-135965300D02*
X124863667Y-135917680D01*
X124863667Y-135917680D02*
X124625572Y-135917680D01*
X90013333Y-58134819D02*
X90013333Y-58849104D01*
X90013333Y-58849104D02*
X90060952Y-58991961D01*
X90060952Y-58991961D02*
X90156190Y-59087200D01*
X90156190Y-59087200D02*
X90299047Y-59134819D01*
X90299047Y-59134819D02*
X90394285Y-59134819D01*
X89632380Y-58134819D02*
X89013333Y-58134819D01*
X89013333Y-58134819D02*
X89346666Y-58515771D01*
X89346666Y-58515771D02*
X89203809Y-58515771D01*
X89203809Y-58515771D02*
X89108571Y-58563390D01*
X89108571Y-58563390D02*
X89060952Y-58611009D01*
X89060952Y-58611009D02*
X89013333Y-58706247D01*
X89013333Y-58706247D02*
X89013333Y-58944342D01*
X89013333Y-58944342D02*
X89060952Y-59039580D01*
X89060952Y-59039580D02*
X89108571Y-59087200D01*
X89108571Y-59087200D02*
X89203809Y-59134819D01*
X89203809Y-59134819D02*
X89489523Y-59134819D01*
X89489523Y-59134819D02*
X89584761Y-59087200D01*
X89584761Y-59087200D02*
X89632380Y-59039580D01*
X131608381Y-107530819D02*
X131941714Y-107054628D01*
X132179809Y-107530819D02*
X132179809Y-106530819D01*
X132179809Y-106530819D02*
X131798857Y-106530819D01*
X131798857Y-106530819D02*
X131703619Y-106578438D01*
X131703619Y-106578438D02*
X131656000Y-106626057D01*
X131656000Y-106626057D02*
X131608381Y-106721295D01*
X131608381Y-106721295D02*
X131608381Y-106864152D01*
X131608381Y-106864152D02*
X131656000Y-106959390D01*
X131656000Y-106959390D02*
X131703619Y-107007009D01*
X131703619Y-107007009D02*
X131798857Y-107054628D01*
X131798857Y-107054628D02*
X132179809Y-107054628D01*
X131179809Y-107007009D02*
X130846476Y-107007009D01*
X130703619Y-107530819D02*
X131179809Y-107530819D01*
X131179809Y-107530819D02*
X131179809Y-106530819D01*
X131179809Y-106530819D02*
X130703619Y-106530819D01*
X130322666Y-107483200D02*
X130179809Y-107530819D01*
X130179809Y-107530819D02*
X129941714Y-107530819D01*
X129941714Y-107530819D02*
X129846476Y-107483200D01*
X129846476Y-107483200D02*
X129798857Y-107435580D01*
X129798857Y-107435580D02*
X129751238Y-107340342D01*
X129751238Y-107340342D02*
X129751238Y-107245104D01*
X129751238Y-107245104D02*
X129798857Y-107149866D01*
X129798857Y-107149866D02*
X129846476Y-107102247D01*
X129846476Y-107102247D02*
X129941714Y-107054628D01*
X129941714Y-107054628D02*
X130132190Y-107007009D01*
X130132190Y-107007009D02*
X130227428Y-106959390D01*
X130227428Y-106959390D02*
X130275047Y-106911771D01*
X130275047Y-106911771D02*
X130322666Y-106816533D01*
X130322666Y-106816533D02*
X130322666Y-106721295D01*
X130322666Y-106721295D02*
X130275047Y-106626057D01*
X130275047Y-106626057D02*
X130227428Y-106578438D01*
X130227428Y-106578438D02*
X130132190Y-106530819D01*
X130132190Y-106530819D02*
X129894095Y-106530819D01*
X129894095Y-106530819D02*
X129751238Y-106578438D01*
X129322666Y-107007009D02*
X128989333Y-107007009D01*
X128846476Y-107530819D02*
X129322666Y-107530819D01*
X129322666Y-107530819D02*
X129322666Y-106530819D01*
X129322666Y-106530819D02*
X128846476Y-106530819D01*
X128560761Y-106530819D02*
X127989333Y-106530819D01*
X128275047Y-107530819D02*
X128275047Y-106530819D01*
D11*
X79364930Y-75636649D02*
X78412550Y-75636649D01*
X78888740Y-76112839D02*
X78888740Y-75160458D01*
X85874930Y-75626649D02*
X84922550Y-75626649D01*
D10*
X131514142Y-115659009D02*
X131371285Y-115706628D01*
X131371285Y-115706628D02*
X131323666Y-115754247D01*
X131323666Y-115754247D02*
X131276047Y-115849485D01*
X131276047Y-115849485D02*
X131276047Y-115992342D01*
X131276047Y-115992342D02*
X131323666Y-116087580D01*
X131323666Y-116087580D02*
X131371285Y-116135200D01*
X131371285Y-116135200D02*
X131466523Y-116182819D01*
X131466523Y-116182819D02*
X131847475Y-116182819D01*
X131847475Y-116182819D02*
X131847475Y-115182819D01*
X131847475Y-115182819D02*
X131514142Y-115182819D01*
X131514142Y-115182819D02*
X131418904Y-115230438D01*
X131418904Y-115230438D02*
X131371285Y-115278057D01*
X131371285Y-115278057D02*
X131323666Y-115373295D01*
X131323666Y-115373295D02*
X131323666Y-115468533D01*
X131323666Y-115468533D02*
X131371285Y-115563771D01*
X131371285Y-115563771D02*
X131418904Y-115611390D01*
X131418904Y-115611390D02*
X131514142Y-115659009D01*
X131514142Y-115659009D02*
X131847475Y-115659009D01*
X130656999Y-115182819D02*
X130466523Y-115182819D01*
X130466523Y-115182819D02*
X130371285Y-115230438D01*
X130371285Y-115230438D02*
X130276047Y-115325676D01*
X130276047Y-115325676D02*
X130228428Y-115516152D01*
X130228428Y-115516152D02*
X130228428Y-115849485D01*
X130228428Y-115849485D02*
X130276047Y-116039961D01*
X130276047Y-116039961D02*
X130371285Y-116135200D01*
X130371285Y-116135200D02*
X130466523Y-116182819D01*
X130466523Y-116182819D02*
X130656999Y-116182819D01*
X130656999Y-116182819D02*
X130752237Y-116135200D01*
X130752237Y-116135200D02*
X130847475Y-116039961D01*
X130847475Y-116039961D02*
X130895094Y-115849485D01*
X130895094Y-115849485D02*
X130895094Y-115516152D01*
X130895094Y-115516152D02*
X130847475Y-115325676D01*
X130847475Y-115325676D02*
X130752237Y-115230438D01*
X130752237Y-115230438D02*
X130656999Y-115182819D01*
X129609380Y-115182819D02*
X129418904Y-115182819D01*
X129418904Y-115182819D02*
X129323666Y-115230438D01*
X129323666Y-115230438D02*
X129228428Y-115325676D01*
X129228428Y-115325676D02*
X129180809Y-115516152D01*
X129180809Y-115516152D02*
X129180809Y-115849485D01*
X129180809Y-115849485D02*
X129228428Y-116039961D01*
X129228428Y-116039961D02*
X129323666Y-116135200D01*
X129323666Y-116135200D02*
X129418904Y-116182819D01*
X129418904Y-116182819D02*
X129609380Y-116182819D01*
X129609380Y-116182819D02*
X129704618Y-116135200D01*
X129704618Y-116135200D02*
X129799856Y-116039961D01*
X129799856Y-116039961D02*
X129847475Y-115849485D01*
X129847475Y-115849485D02*
X129847475Y-115516152D01*
X129847475Y-115516152D02*
X129799856Y-115325676D01*
X129799856Y-115325676D02*
X129704618Y-115230438D01*
X129704618Y-115230438D02*
X129609380Y-115182819D01*
X128895094Y-115182819D02*
X128323666Y-115182819D01*
X128609380Y-116182819D02*
X128609380Y-115182819D01*
D13*
%TO.C,J6*%
X125676667Y-126499100D02*
X131772667Y-126499100D01*
X125676667Y-136963900D02*
X125676667Y-126499100D01*
X131772667Y-126499100D02*
X131772667Y-129622325D01*
X131772667Y-131300675D02*
X131772667Y-136963900D01*
X131772667Y-136963900D02*
X125676667Y-136963900D01*
%TO.C,J3*%
X85875000Y-51562000D02*
X85875000Y-59242000D01*
X88535000Y-48962000D02*
X87205000Y-48962000D01*
X88535000Y-50292000D02*
X88535000Y-48962000D01*
X88535000Y-51562000D02*
X85875000Y-51562000D01*
X88535000Y-51562000D02*
X88535000Y-59242000D01*
X88535000Y-59242000D02*
X85875000Y-59242000D01*
%TO.C,J5*%
X80965000Y-78590000D02*
X82665000Y-78590000D01*
X80965000Y-87930000D02*
X82665000Y-87930000D01*
%TO.C,U4*%
X107680000Y-63610000D02*
X107680000Y-64610000D01*
X107680000Y-81610000D02*
X107680000Y-80610000D01*
X108430000Y-63610000D02*
X107680000Y-63610000D01*
X108430000Y-81610000D02*
X107680000Y-81610000D01*
%TO.C,J2*%
X129400000Y-59000000D02*
X130035000Y-59000000D01*
X130035000Y-59000000D02*
X130035000Y-58365000D01*
D14*
%TO.C,G\u002A\u002A\u002A*%
G36*
X118501554Y-95339509D02*
G01*
X118504814Y-95345777D01*
X118487663Y-95353401D01*
X118476632Y-95351897D01*
X118473772Y-95339509D01*
X118476826Y-95337016D01*
X118501554Y-95339509D01*
G37*
D15*
%TO.C,J1*%
X77330000Y-62500000D02*
X77330000Y-71500000D01*
X80830000Y-71500000D02*
X77330000Y-71500000D01*
X80830000Y-71500000D02*
X80830000Y-72100000D01*
X81010000Y-62500000D02*
X77330000Y-62500000D01*
X81010000Y-72100000D02*
X80830000Y-72100000D01*
X83650000Y-62500000D02*
X87210000Y-62500000D01*
X83650000Y-71850000D02*
X87210000Y-71850000D01*
X89850000Y-62600000D02*
X92030000Y-62600000D01*
X91530000Y-65450000D02*
X91530000Y-71850000D01*
X91530000Y-65450000D02*
X92030000Y-65450000D01*
X91530000Y-71850000D02*
X89850000Y-71850000D01*
X92030000Y-62600000D02*
X92030000Y-65450000D01*
D16*
%TO.C,SW1*%
X128154000Y-102924000D02*
X132218000Y-102924000D01*
X128154000Y-103353260D02*
X128154000Y-102924000D01*
X128154000Y-105972000D02*
X128154000Y-105542740D01*
X132218000Y-102924000D02*
X132218000Y-103353260D01*
X132218000Y-105542740D02*
X132218000Y-105972000D01*
X132218000Y-105972000D02*
X128154000Y-105972000D01*
%TO.C,U8*%
D17*
X102730000Y-120540000D02*
X108730000Y-120540000D01*
X108730000Y-112540000D01*
X102730000Y-112540000D01*
X102730000Y-120540000D01*
D18*
X121230000Y-94060000D02*
X90230000Y-94060000D01*
X90230000Y-139060000D01*
X121230000Y-139060000D01*
X121230000Y-94060000D01*
D19*
X109263742Y-112570000D02*
G75*
G02*
X109036258Y-112570000I-113742J0D01*
G01*
X109036258Y-112570000D02*
G75*
G02*
X109263742Y-112570000I113742J0D01*
G01*
D11*
%TO.C,U1*%
X81994918Y-75631416D02*
X79965083Y-75631416D01*
X83014188Y-75631416D02*
X84454917Y-75631416D01*
X81289918Y-74916416D02*
G75*
G02*
X81335887Y-76408739I709999J-724999D01*
G01*
X79965083Y-75631416D02*
G75*
G02*
X77949917Y-75631416I-1007583J0D01*
G01*
X77949917Y-75631416D02*
G75*
G02*
X79965083Y-75631416I1007583J0D01*
G01*
D20*
X82154918Y-75641416D02*
G75*
G02*
X81844918Y-75641416I-155000J0D01*
G01*
X81844918Y-75641416D02*
G75*
G02*
X82154918Y-75641416I155000J0D01*
G01*
D11*
X86470083Y-75631416D02*
G75*
G02*
X84454917Y-75631416I-1007583J0D01*
G01*
X84454917Y-75631416D02*
G75*
G02*
X86470083Y-75631416I1007583J0D01*
G01*
D16*
%TO.C,SW2*%
X128050000Y-111631000D02*
X132114000Y-111631000D01*
X128050000Y-112060260D02*
X128050000Y-111631000D01*
X128050000Y-114679000D02*
X128050000Y-114249740D01*
X132114000Y-111631000D02*
X132114000Y-112060260D01*
X132114000Y-114249740D02*
X132114000Y-114679000D01*
X132114000Y-114679000D02*
X128050000Y-114679000D01*
D14*
%TO.C,G\u002A\u002A\u002A*%
G36*
X104744131Y-144050966D02*
G01*
X104744131Y-144982626D01*
X104400888Y-144982626D01*
X104057645Y-144982626D01*
X104057645Y-144050966D01*
X104057645Y-143119305D01*
X104400888Y-143119305D01*
X104744131Y-143119305D01*
X104744131Y-144050966D01*
G37*
G36*
X115139498Y-144050966D02*
G01*
X115139498Y-144982626D01*
X114796255Y-144982626D01*
X114453012Y-144982626D01*
X114453012Y-144050966D01*
X114453012Y-143119305D01*
X114796255Y-143119305D01*
X115139498Y-143119305D01*
X115139498Y-144050966D01*
G37*
G36*
X104555843Y-142537300D02*
G01*
X104705736Y-142591844D01*
X104744131Y-142727027D01*
X104732911Y-142815573D01*
X104637458Y-142901226D01*
X104400888Y-142923166D01*
X104245933Y-142916755D01*
X104096041Y-142862211D01*
X104057645Y-142727027D01*
X104068865Y-142638482D01*
X104164318Y-142552829D01*
X104400888Y-142530888D01*
X104555843Y-142537300D01*
G37*
G36*
X114951210Y-142537300D02*
G01*
X115101102Y-142591844D01*
X115139498Y-142727027D01*
X115128278Y-142815573D01*
X115032825Y-142901226D01*
X114796255Y-142923166D01*
X114641300Y-142916755D01*
X114491407Y-142862211D01*
X114453012Y-142727027D01*
X114464231Y-142638482D01*
X114559684Y-142552829D01*
X114796255Y-142530888D01*
X114951210Y-142537300D01*
G37*
G36*
X117689305Y-142825097D02*
G01*
X117688686Y-142888272D01*
X117660375Y-143044729D01*
X117548559Y-143107687D01*
X117297027Y-143119305D01*
X116904749Y-143119305D01*
X116904749Y-144050966D01*
X116904749Y-144982626D01*
X116512471Y-144982626D01*
X116120193Y-144982626D01*
X116120193Y-144050966D01*
X116120193Y-143119305D01*
X115727915Y-143119305D01*
X115643681Y-143118841D01*
X115435073Y-143097608D01*
X115351128Y-143013746D01*
X115335637Y-142825097D01*
X115335637Y-142530888D01*
X116512471Y-142530888D01*
X117689305Y-142530888D01*
X117689305Y-142825097D01*
G37*
G36*
X99742587Y-142972201D02*
G01*
X99742587Y-143413514D01*
X100134865Y-143413514D01*
X100527143Y-143413514D01*
X100527143Y-142972201D01*
X100527143Y-142530888D01*
X100919421Y-142530888D01*
X101311699Y-142530888D01*
X101311699Y-143756757D01*
X101311699Y-144982626D01*
X100919421Y-144982626D01*
X100527143Y-144982626D01*
X100527143Y-144492278D01*
X100527143Y-144001931D01*
X100134865Y-144001931D01*
X99742587Y-144001931D01*
X99742587Y-144492278D01*
X99742587Y-144982626D01*
X99301274Y-144982626D01*
X98859961Y-144982626D01*
X98859961Y-143756757D01*
X98859961Y-142530888D01*
X99301274Y-142530888D01*
X99742587Y-142530888D01*
X99742587Y-142972201D01*
G37*
G36*
X97290849Y-143639944D02*
G01*
X97320599Y-144002322D01*
X97404260Y-144289926D01*
X97525579Y-144451666D01*
X97668250Y-144452438D01*
X97718098Y-144365163D01*
X97764142Y-144113790D01*
X97781197Y-143750969D01*
X97781197Y-143119305D01*
X98173475Y-143119305D01*
X98565753Y-143119305D01*
X98565753Y-143701338D01*
X98563020Y-143853760D01*
X98511124Y-144337909D01*
X98400589Y-144700222D01*
X98240892Y-144905576D01*
X98077308Y-144964163D01*
X97771224Y-144968408D01*
X97480541Y-144881106D01*
X97350882Y-144829678D01*
X97290849Y-144881106D01*
X97287880Y-144894440D01*
X97174467Y-144957131D01*
X96947606Y-144982626D01*
X96604363Y-144982626D01*
X96604363Y-144050966D01*
X96604363Y-143119305D01*
X96947606Y-143119305D01*
X97290849Y-143119305D01*
X97290849Y-143639944D01*
G37*
G36*
X114060734Y-144050966D02*
G01*
X114060734Y-144982626D01*
X113668456Y-144982626D01*
X113276178Y-144982626D01*
X113276178Y-144342096D01*
X113275615Y-144240305D01*
X113257983Y-143909302D01*
X113208878Y-143723216D01*
X113119176Y-143641319D01*
X113020144Y-143623564D01*
X112888668Y-143716058D01*
X112812606Y-143977498D01*
X112787332Y-144418726D01*
X112785830Y-144982626D01*
X112442587Y-144982626D01*
X112099344Y-144982626D01*
X112099344Y-144268926D01*
X112100401Y-144151623D01*
X112140445Y-143668656D01*
X112246416Y-143349537D01*
X112429221Y-143173383D01*
X112699769Y-143119305D01*
X112945431Y-143145383D01*
X113184555Y-143220825D01*
X113314215Y-143272254D01*
X113374247Y-143220825D01*
X113377216Y-143207492D01*
X113490630Y-143144800D01*
X113717490Y-143119305D01*
X114060734Y-143119305D01*
X114060734Y-144050966D01*
G37*
G36*
X106999730Y-143756757D02*
G01*
X106999730Y-144982626D01*
X106656486Y-144982626D01*
X106313243Y-144982626D01*
X106311742Y-144418726D01*
X106303646Y-144150004D01*
X106250639Y-143810311D01*
X106144265Y-143644364D01*
X105979898Y-143641319D01*
X105955000Y-143653170D01*
X105875526Y-143755602D01*
X105834532Y-143971667D01*
X105822896Y-144342096D01*
X105822896Y-144982626D01*
X105479653Y-144982626D01*
X105136409Y-144982626D01*
X105136409Y-144230309D01*
X105136795Y-144139658D01*
X105155266Y-143728624D01*
X105206780Y-143462402D01*
X105298713Y-143298649D01*
X105409885Y-143214606D01*
X105683920Y-143131107D01*
X105976931Y-143136428D01*
X106195560Y-143236989D01*
X106258926Y-143274729D01*
X106301451Y-143192912D01*
X106313243Y-142942780D01*
X106314488Y-142793874D01*
X106341757Y-142610953D01*
X106440415Y-142541700D01*
X106656486Y-142530888D01*
X106999730Y-142530888D01*
X106999730Y-143756757D01*
G37*
G36*
X103665367Y-144394209D02*
G01*
X103665367Y-145669112D01*
X103273089Y-145669112D01*
X103139207Y-145668193D01*
X102957908Y-145640204D01*
X102890649Y-145531285D01*
X102880811Y-145286166D01*
X102880811Y-144903220D01*
X102499918Y-144954309D01*
X102177355Y-144939311D01*
X101880285Y-144779069D01*
X101691535Y-144493328D01*
X101629678Y-144112483D01*
X101641473Y-144049623D01*
X102439498Y-144049623D01*
X102443910Y-144191329D01*
X102493009Y-144395353D01*
X102611416Y-144473666D01*
X102760554Y-144449841D01*
X102860119Y-144270141D01*
X102863607Y-143936663D01*
X102863291Y-143933931D01*
X102793901Y-143721332D01*
X102635637Y-143658688D01*
X102522979Y-143680568D01*
X102456067Y-143793517D01*
X102439498Y-144049623D01*
X101641473Y-144049623D01*
X101713285Y-143666926D01*
X101766467Y-143537228D01*
X101994617Y-143244348D01*
X102306424Y-143125929D01*
X102688195Y-143188686D01*
X102708480Y-143196128D01*
X102900362Y-143240455D01*
X102978880Y-143208856D01*
X102981834Y-143197126D01*
X103095220Y-143141805D01*
X103322124Y-143119305D01*
X103665367Y-143119305D01*
X103665367Y-143936663D01*
X103665367Y-144394209D01*
G37*
G36*
X96212085Y-144982626D02*
G01*
X95917876Y-144982626D01*
X95914325Y-144982619D01*
X95708923Y-144955963D01*
X95623668Y-144893075D01*
X95623627Y-144891488D01*
X95542167Y-144859621D01*
X95346755Y-144908047D01*
X95144940Y-144961343D01*
X94789806Y-144930234D01*
X94506344Y-144737883D01*
X94318618Y-144405254D01*
X94284341Y-144177185D01*
X94948024Y-144177185D01*
X95054865Y-144374595D01*
X95119651Y-144431888D01*
X95231390Y-144492278D01*
X95289493Y-144483352D01*
X95433784Y-144356952D01*
X95505765Y-144137279D01*
X95491860Y-143896735D01*
X95378494Y-143707722D01*
X95340061Y-143680236D01*
X95169512Y-143656776D01*
X95030533Y-143766379D01*
X94948309Y-143957147D01*
X94948024Y-144177185D01*
X94284341Y-144177185D01*
X94250695Y-143953309D01*
X94284544Y-143692897D01*
X94459443Y-143371205D01*
X94755371Y-143179744D01*
X95140776Y-143147095D01*
X95266658Y-143163253D01*
X95448076Y-143163602D01*
X95515608Y-143077894D01*
X95525598Y-142864800D01*
X95525627Y-142844628D01*
X95544341Y-142631368D01*
X95638721Y-142546268D01*
X95868842Y-142530888D01*
X96212085Y-142530888D01*
X96212085Y-143756757D01*
X96212085Y-144137279D01*
X96212085Y-144982626D01*
G37*
G36*
X108832305Y-142553016D02*
G01*
X109066911Y-142649976D01*
X109314170Y-142864325D01*
X109441031Y-142997210D01*
X109576363Y-143192453D01*
X109634937Y-143418112D01*
X109647606Y-143756757D01*
X109644013Y-143973030D01*
X109608276Y-144235646D01*
X109508612Y-144433508D01*
X109314170Y-144649190D01*
X109075628Y-144857636D01*
X108842202Y-144958468D01*
X108524744Y-144982626D01*
X108036385Y-144923403D01*
X107648457Y-144738388D01*
X107406405Y-144435680D01*
X107384886Y-144386437D01*
X107339644Y-144180974D01*
X107437149Y-144054660D01*
X107704063Y-143965363D01*
X107760284Y-143953422D01*
X107939908Y-143962461D01*
X108029325Y-144099578D01*
X108059596Y-144164672D01*
X108244780Y-144319016D01*
X108494338Y-144371112D01*
X108717219Y-144295082D01*
X108731687Y-144281523D01*
X108827492Y-144073361D01*
X108863050Y-143742647D01*
X108847549Y-143472181D01*
X108777287Y-143305130D01*
X108621894Y-143201361D01*
X108581657Y-143183922D01*
X108364452Y-143147645D01*
X108137057Y-143251149D01*
X107964379Y-143334027D01*
X107593657Y-143350871D01*
X107517311Y-143334802D01*
X107337548Y-143268895D01*
X107326218Y-143159840D01*
X107467740Y-142959162D01*
X107688291Y-142745260D01*
X108044731Y-142581073D01*
X108523167Y-142530888D01*
X108832305Y-142553016D01*
G37*
G36*
X110306528Y-143123232D02*
G01*
X110453086Y-143168749D01*
X110544877Y-143306124D01*
X110630675Y-143585136D01*
X110697522Y-143825410D01*
X110779742Y-144060666D01*
X110847297Y-144114207D01*
X110919151Y-143991639D01*
X111014266Y-143698572D01*
X111105621Y-143415840D01*
X111198053Y-143243712D01*
X111327060Y-143167370D01*
X111538363Y-143137903D01*
X111603448Y-143133378D01*
X111817037Y-143134744D01*
X111903205Y-143163839D01*
X111892785Y-143203414D01*
X111825008Y-143393409D01*
X111708084Y-143698478D01*
X111558332Y-144075482D01*
X111478091Y-144281364D01*
X111352177Y-144640894D01*
X111275063Y-144914390D01*
X111261046Y-145054758D01*
X111351612Y-145135199D01*
X111556883Y-145178765D01*
X111607475Y-145180028D01*
X111765286Y-145238085D01*
X111805135Y-145423939D01*
X111804223Y-145474742D01*
X111770227Y-145603429D01*
X111647516Y-145657867D01*
X111382566Y-145669112D01*
X111288383Y-145666272D01*
X110994063Y-145623778D01*
X110794992Y-145546526D01*
X110727784Y-145449204D01*
X110604459Y-145202493D01*
X110449765Y-144855166D01*
X110281964Y-144452467D01*
X110119319Y-144039641D01*
X109980094Y-143661934D01*
X109882550Y-143364591D01*
X109844951Y-143192858D01*
X109846585Y-143185271D01*
X109952786Y-143138442D01*
X110174243Y-143119305D01*
X110306528Y-143123232D01*
G37*
%TD*%
%LPC*%
D13*
%TO.C,U4*%
X133180000Y-81610000D02*
X133180000Y-63610000D01*
D14*
%TO.C,G\u002A\u002A\u002A*%
G36*
X110835225Y-83669191D02*
G01*
X111225774Y-84059740D01*
X110840646Y-84445290D01*
X110743775Y-84541920D01*
X110649131Y-84635592D01*
X110567917Y-84715197D01*
X110504115Y-84776859D01*
X110461707Y-84816699D01*
X110444677Y-84830841D01*
X110429633Y-84818501D01*
X110388808Y-84780268D01*
X110326321Y-84719953D01*
X110246154Y-84641434D01*
X110152289Y-84548587D01*
X110048708Y-84445290D01*
X109663579Y-84059740D01*
X110054128Y-83669191D01*
X110444677Y-83278642D01*
X110835225Y-83669191D01*
G37*
G36*
X106952962Y-84218195D02*
G01*
X107012788Y-84384727D01*
X107130174Y-84656382D01*
X107260097Y-84893409D01*
X107401616Y-85094547D01*
X107553792Y-85258537D01*
X107715685Y-85384116D01*
X107886356Y-85470027D01*
X107916657Y-85479077D01*
X107996489Y-85494470D01*
X108098933Y-85507422D01*
X108211773Y-85516200D01*
X108448024Y-85528872D01*
X108633717Y-85851383D01*
X108687239Y-85945026D01*
X108740061Y-86039000D01*
X108781920Y-86115205D01*
X108809482Y-86167559D01*
X108819410Y-86189981D01*
X108812654Y-86193248D01*
X108772106Y-86198329D01*
X108701063Y-86202393D01*
X108606604Y-86205090D01*
X108495806Y-86206067D01*
X108172203Y-86206067D01*
X108178046Y-87763614D01*
X108179056Y-88029567D01*
X108180108Y-88286071D01*
X108181182Y-88506491D01*
X108182369Y-88693760D01*
X108183761Y-88850811D01*
X108185446Y-88980576D01*
X108187518Y-89085988D01*
X108190065Y-89169980D01*
X108193180Y-89235484D01*
X108196952Y-89285434D01*
X108201474Y-89322762D01*
X108206835Y-89350400D01*
X108213126Y-89371282D01*
X108220439Y-89388341D01*
X108228864Y-89404508D01*
X108261787Y-89457864D01*
X108349332Y-89557893D01*
X108450475Y-89629877D01*
X108508694Y-89659932D01*
X108417585Y-89713326D01*
X108319765Y-89792653D01*
X108242377Y-89900266D01*
X108195128Y-90023485D01*
X108193591Y-90033321D01*
X108189824Y-90086905D01*
X108186397Y-90179408D01*
X108183334Y-90308844D01*
X108180661Y-90473224D01*
X108178401Y-90670562D01*
X108176578Y-90898870D01*
X108175218Y-91156162D01*
X108174344Y-91440449D01*
X108173980Y-91749745D01*
X108173471Y-93386531D01*
X107742630Y-93787538D01*
X107311790Y-94188545D01*
X107277386Y-94097910D01*
X107247290Y-94032073D01*
X107177868Y-93916154D01*
X107082976Y-93783702D01*
X106967059Y-93640128D01*
X106834561Y-93490847D01*
X106689927Y-93341272D01*
X106537600Y-93196816D01*
X106483754Y-93146978D01*
X106402109Y-93067371D01*
X106327474Y-92990122D01*
X106262576Y-92918696D01*
X106210143Y-92856560D01*
X106172904Y-92807181D01*
X106153586Y-92774024D01*
X106154918Y-92760556D01*
X106179628Y-92770243D01*
X106230444Y-92806551D01*
X106299366Y-92857410D01*
X106369454Y-92896819D01*
X106436950Y-92916253D01*
X106516137Y-92921454D01*
X106532152Y-92921097D01*
X106642284Y-92901731D01*
X106745371Y-92857661D01*
X106824867Y-92795630D01*
X106826684Y-92793536D01*
X106833773Y-92782700D01*
X106839814Y-92766544D01*
X106844873Y-92742039D01*
X106849018Y-92706155D01*
X106852314Y-92655863D01*
X106854829Y-92588133D01*
X106856628Y-92499937D01*
X106857778Y-92388244D01*
X106858346Y-92250025D01*
X106858398Y-92082251D01*
X106858000Y-91881892D01*
X106857219Y-91645920D01*
X106856122Y-91371304D01*
X106850337Y-89987937D01*
X106790861Y-89886750D01*
X106733692Y-89809469D01*
X106627929Y-89721251D01*
X106524473Y-89656939D01*
X106595168Y-89620671D01*
X106660367Y-89577358D01*
X106737556Y-89503287D01*
X106800898Y-89418954D01*
X106838416Y-89338263D01*
X106840403Y-89327806D01*
X106845101Y-89272011D01*
X106849184Y-89174805D01*
X106852651Y-89036374D01*
X106855498Y-88856905D01*
X106857723Y-88636583D01*
X106859323Y-88375593D01*
X106860296Y-88074124D01*
X106860639Y-87732359D01*
X106860755Y-86206067D01*
X106708307Y-86206067D01*
X106555859Y-86206067D01*
X106282673Y-85867470D01*
X106009487Y-85528872D01*
X106435121Y-85523240D01*
X106860755Y-85517608D01*
X106861024Y-84731444D01*
X106861292Y-83945279D01*
X106952962Y-84218195D01*
G37*
G36*
X110875684Y-85508401D02*
G01*
X110901173Y-85546235D01*
X110945271Y-85612062D01*
X111005209Y-85701741D01*
X111078222Y-85811131D01*
X111161542Y-85936090D01*
X111252402Y-86072478D01*
X111628268Y-86636921D01*
X111578013Y-86701135D01*
X111533263Y-86747758D01*
X111443903Y-86815237D01*
X111334780Y-86877924D01*
X111218190Y-86928062D01*
X111111453Y-86965971D01*
X111111453Y-88107771D01*
X111111446Y-88275760D01*
X111111559Y-88507622D01*
X111112114Y-88703489D01*
X111113445Y-88866832D01*
X111115885Y-89001120D01*
X111119767Y-89109823D01*
X111125425Y-89196412D01*
X111133192Y-89264355D01*
X111143400Y-89317123D01*
X111156384Y-89358185D01*
X111172477Y-89391011D01*
X111192011Y-89419071D01*
X111215321Y-89445835D01*
X111242739Y-89474772D01*
X111256864Y-89488805D01*
X111322178Y-89541654D01*
X111387734Y-89580913D01*
X111466066Y-89616790D01*
X111381498Y-89654924D01*
X111375494Y-89657712D01*
X111281872Y-89720387D01*
X111198671Y-89808646D01*
X111140101Y-89907615D01*
X111138050Y-89913353D01*
X111132956Y-89936914D01*
X111128511Y-89974168D01*
X111124674Y-90027659D01*
X111121401Y-90099929D01*
X111118649Y-90193524D01*
X111116374Y-90310985D01*
X111114534Y-90454858D01*
X111113085Y-90627686D01*
X111111983Y-90832012D01*
X111111187Y-91070380D01*
X111110652Y-91345334D01*
X111110335Y-91659417D01*
X111109217Y-93342654D01*
X110688391Y-93742728D01*
X110674494Y-93755934D01*
X110565705Y-93858938D01*
X110467267Y-93951493D01*
X110383136Y-94029930D01*
X110317265Y-94090579D01*
X110273609Y-94129771D01*
X110256123Y-94143836D01*
X110253726Y-94142893D01*
X110237968Y-94118544D01*
X110218096Y-94071351D01*
X110201334Y-94030446D01*
X110153397Y-93941437D01*
X110083781Y-93838666D01*
X109990413Y-93719559D01*
X109871219Y-93581541D01*
X109724123Y-93422036D01*
X109547051Y-93238470D01*
X109543132Y-93234475D01*
X109396872Y-93084228D01*
X109277197Y-92958886D01*
X109184596Y-92859026D01*
X109119552Y-92785223D01*
X109082554Y-92738053D01*
X109074086Y-92718092D01*
X109094636Y-92725916D01*
X109144690Y-92762100D01*
X109161332Y-92775007D01*
X109222126Y-92820072D01*
X109267670Y-92847117D01*
X109311821Y-92863145D01*
X109368432Y-92875156D01*
X109424247Y-92880245D01*
X109532354Y-92868158D01*
X109635541Y-92832791D01*
X109716601Y-92778902D01*
X109777901Y-92720173D01*
X109777784Y-91364474D01*
X109777450Y-91061641D01*
X109776407Y-90777058D01*
X109774652Y-90533703D01*
X109772182Y-90331350D01*
X109768993Y-90169770D01*
X109765081Y-90048738D01*
X109760444Y-89968026D01*
X109755076Y-89927406D01*
X109729641Y-89873164D01*
X109684106Y-89807892D01*
X109627056Y-89741021D01*
X109567001Y-89681715D01*
X109512452Y-89639140D01*
X109471918Y-89622460D01*
X109461738Y-89621456D01*
X109460241Y-89611288D01*
X109496605Y-89588775D01*
X109590651Y-89524440D01*
X109677420Y-89436473D01*
X109738314Y-89341998D01*
X109739156Y-89340168D01*
X109746794Y-89321373D01*
X109753334Y-89298885D01*
X109758862Y-89269539D01*
X109763465Y-89230169D01*
X109767229Y-89177612D01*
X109770239Y-89108701D01*
X109772582Y-89020272D01*
X109774344Y-88909160D01*
X109775610Y-88772200D01*
X109776467Y-88606226D01*
X109777001Y-88408073D01*
X109777298Y-88174578D01*
X109777443Y-87902574D01*
X109777901Y-86546497D01*
X109723429Y-86517344D01*
X109717003Y-86513566D01*
X109670874Y-86477206D01*
X109611948Y-86421367D01*
X109551012Y-86357292D01*
X109498855Y-86296221D01*
X109466268Y-86249396D01*
X109462396Y-86239552D01*
X109467939Y-86227474D01*
X109494743Y-86220368D01*
X109549610Y-86216913D01*
X109639339Y-86215787D01*
X109644743Y-86215764D01*
X109745420Y-86213103D01*
X109821565Y-86204306D01*
X109889472Y-86186406D01*
X109965431Y-86156439D01*
X110083913Y-86098122D01*
X110261573Y-85989272D01*
X110451696Y-85850389D01*
X110649303Y-85684906D01*
X110675153Y-85662002D01*
X110750198Y-85596617D01*
X110811604Y-85544759D01*
X110853607Y-85511228D01*
X110870442Y-85500822D01*
X110875684Y-85508401D01*
G37*
G36*
X94321726Y-88203688D02*
G01*
X94327450Y-89345307D01*
X94390708Y-89447836D01*
X94449755Y-89524977D01*
X94562645Y-89615543D01*
X94671323Y-89680721D01*
X94606011Y-89707774D01*
X94543402Y-89739855D01*
X94442182Y-89826730D01*
X94366349Y-89945412D01*
X94317438Y-90050447D01*
X94317235Y-91492995D01*
X94317031Y-92935544D01*
X94374332Y-92949316D01*
X94504813Y-92999651D01*
X94623731Y-93085425D01*
X94720321Y-93199404D01*
X94789662Y-93335721D01*
X94826830Y-93488511D01*
X94839564Y-93592695D01*
X94798954Y-93519767D01*
X94767864Y-93468659D01*
X94696223Y-93385706D01*
X94612548Y-93336540D01*
X94509179Y-93315767D01*
X94396328Y-93317778D01*
X94279739Y-93339423D01*
X94277012Y-93340249D01*
X94230067Y-93356189D01*
X94151537Y-93384567D01*
X94045832Y-93423686D01*
X93917364Y-93471846D01*
X93770541Y-93527347D01*
X93609773Y-93588491D01*
X93439472Y-93653579D01*
X93264047Y-93720910D01*
X93087908Y-93788787D01*
X92915465Y-93855510D01*
X92751128Y-93919380D01*
X92599308Y-93978697D01*
X92464414Y-94031763D01*
X92350857Y-94076879D01*
X92263046Y-94112345D01*
X92205393Y-94136462D01*
X92182306Y-94147531D01*
X92156950Y-94162429D01*
X92123410Y-94161789D01*
X92108335Y-94137849D01*
X92107708Y-94130648D01*
X92092011Y-94080784D01*
X92058316Y-94005401D01*
X92010789Y-93911903D01*
X91953592Y-93807696D01*
X91890888Y-93700184D01*
X91826843Y-93596772D01*
X91765618Y-93504865D01*
X91711378Y-93431868D01*
X91633746Y-93341345D01*
X91428675Y-93144290D01*
X91199837Y-92976294D01*
X90952588Y-92840495D01*
X90692285Y-92740029D01*
X90424283Y-92678034D01*
X90264283Y-92653320D01*
X90251592Y-91883221D01*
X90250405Y-91812732D01*
X90246370Y-91603183D01*
X90241813Y-91429431D01*
X90236204Y-91286956D01*
X90229012Y-91171235D01*
X90219709Y-91077750D01*
X90207764Y-91001978D01*
X90192648Y-90939400D01*
X90173831Y-90885494D01*
X90150784Y-90835740D01*
X90122975Y-90785617D01*
X90120847Y-90782042D01*
X90055158Y-90699440D01*
X89968535Y-90624924D01*
X89878803Y-90573944D01*
X89873811Y-90570360D01*
X89893019Y-90568784D01*
X89941313Y-90573315D01*
X90042375Y-90597494D01*
X90160102Y-90644707D01*
X90275032Y-90706919D01*
X90371015Y-90776491D01*
X90398820Y-90803695D01*
X90454315Y-90864996D01*
X90523987Y-90947126D01*
X90601656Y-91042752D01*
X90681141Y-91144537D01*
X90734840Y-91213508D01*
X90818912Y-91317242D01*
X90899591Y-91412229D01*
X90969785Y-91490190D01*
X91022398Y-91542845D01*
X91062638Y-91577211D01*
X91215232Y-91682141D01*
X91381116Y-91762486D01*
X91549910Y-91813887D01*
X91711234Y-91831990D01*
X91805458Y-91831990D01*
X91727919Y-91884679D01*
X91726511Y-91885637D01*
X91680191Y-91919536D01*
X91644507Y-91954123D01*
X91617967Y-91995254D01*
X91599082Y-92048782D01*
X91586361Y-92120563D01*
X91578314Y-92216452D01*
X91573451Y-92342305D01*
X91570280Y-92503975D01*
X91570271Y-92504579D01*
X91568454Y-92654882D01*
X91568425Y-92767967D01*
X91570389Y-92848244D01*
X91574549Y-92900125D01*
X91581111Y-92928019D01*
X91590277Y-92936337D01*
X91591076Y-92936279D01*
X91620124Y-92927830D01*
X91682001Y-92906515D01*
X91771195Y-92874430D01*
X91882191Y-92833666D01*
X92009476Y-92786318D01*
X92147538Y-92734478D01*
X92290864Y-92680241D01*
X92433940Y-92625699D01*
X92571254Y-92572945D01*
X92697292Y-92524073D01*
X92806541Y-92481175D01*
X92893488Y-92446347D01*
X92952621Y-92421679D01*
X92978425Y-92409267D01*
X92980554Y-92406582D01*
X92985763Y-92388149D01*
X92990120Y-92351420D01*
X92993668Y-92293796D01*
X92996447Y-92212681D01*
X92998497Y-92105477D01*
X92999861Y-91969587D01*
X93000578Y-91802416D01*
X93000690Y-91601364D01*
X93000238Y-91363836D01*
X92999262Y-91087234D01*
X92993897Y-89785247D01*
X92845552Y-89747576D01*
X92795197Y-89733623D01*
X92584188Y-89650458D01*
X92373511Y-89528486D01*
X92166508Y-89369879D01*
X91966522Y-89176806D01*
X91954304Y-89163562D01*
X91894802Y-89097043D01*
X91816697Y-89007551D01*
X91726200Y-88902295D01*
X91629520Y-88788485D01*
X91532865Y-88673329D01*
X91411974Y-88529984D01*
X91249584Y-88344170D01*
X91104594Y-88187826D01*
X90973619Y-88057822D01*
X90853274Y-87951029D01*
X90740175Y-87864315D01*
X90630938Y-87794552D01*
X90522177Y-87738608D01*
X90514875Y-87735308D01*
X90404294Y-87692014D01*
X90286919Y-87656257D01*
X90177336Y-87631939D01*
X90090130Y-87622966D01*
X90018498Y-87622966D01*
X90056588Y-87597653D01*
X91567307Y-87597653D01*
X91567708Y-87650108D01*
X91576720Y-87862890D01*
X91599702Y-88047668D01*
X91639589Y-88214539D01*
X91699311Y-88373600D01*
X91781803Y-88534948D01*
X91889995Y-88708680D01*
X91917006Y-88748242D01*
X92050892Y-88921724D01*
X92203075Y-89088150D01*
X92366516Y-89241311D01*
X92534179Y-89374999D01*
X92699026Y-89483007D01*
X92854021Y-89559125D01*
X92900901Y-89576869D01*
X92955065Y-89595307D01*
X92984250Y-89602457D01*
X92987222Y-89592193D01*
X92991070Y-89543051D01*
X92994468Y-89454586D01*
X92997396Y-89328175D01*
X92999836Y-89165195D01*
X93001767Y-88967024D01*
X93003170Y-88735040D01*
X93004026Y-88470619D01*
X93004316Y-88175140D01*
X93004259Y-88026074D01*
X93003937Y-87793751D01*
X93003352Y-87576138D01*
X93002527Y-87376604D01*
X93001489Y-87198520D01*
X93000260Y-87045257D01*
X92998866Y-86920185D01*
X92997331Y-86826675D01*
X92995680Y-86768097D01*
X92993937Y-86747822D01*
X92991503Y-86748422D01*
X92959821Y-86759684D01*
X92896275Y-86783599D01*
X92806237Y-86818064D01*
X92695077Y-86860979D01*
X92568166Y-86910239D01*
X92430874Y-86963742D01*
X92288571Y-87019386D01*
X92146628Y-87075069D01*
X92010417Y-87128688D01*
X91885306Y-87178140D01*
X91776668Y-87221323D01*
X91689872Y-87256135D01*
X91630289Y-87280473D01*
X91603290Y-87292234D01*
X91594124Y-87298428D01*
X91582050Y-87315882D01*
X91574136Y-87347708D01*
X91569576Y-87400731D01*
X91567568Y-87481772D01*
X91567307Y-87597653D01*
X90056588Y-87597653D01*
X90089298Y-87575915D01*
X90109228Y-87560563D01*
X90163325Y-87502836D01*
X90206982Y-87436061D01*
X90217845Y-87413574D01*
X90233814Y-87371933D01*
X90244274Y-87324765D01*
X90250353Y-87263036D01*
X90253174Y-87177714D01*
X90253865Y-87059764D01*
X90253865Y-86776270D01*
X90143230Y-86741395D01*
X90058403Y-86706242D01*
X89939051Y-86622638D01*
X89843108Y-86510508D01*
X89775444Y-86376095D01*
X89740927Y-86225641D01*
X89729100Y-86112301D01*
X89775716Y-86202561D01*
X89838802Y-86289077D01*
X89932429Y-86361967D01*
X90039340Y-86403558D01*
X90070304Y-86406574D01*
X90146405Y-86401553D01*
X90233759Y-86384628D01*
X90243350Y-86381914D01*
X90296052Y-86364473D01*
X90379854Y-86334744D01*
X90490374Y-86294407D01*
X90623228Y-86245146D01*
X90774034Y-86188642D01*
X90938409Y-86126576D01*
X91111969Y-86060630D01*
X91290333Y-85992487D01*
X91469118Y-85923827D01*
X91643940Y-85856333D01*
X91810416Y-85791686D01*
X91964165Y-85731569D01*
X92100803Y-85677662D01*
X92215947Y-85631648D01*
X92305215Y-85595208D01*
X92364223Y-85570025D01*
X92388590Y-85557779D01*
X92414471Y-85541528D01*
X92448806Y-85549415D01*
X92472066Y-85595165D01*
X92475889Y-85607757D01*
X92497208Y-85662159D01*
X92530356Y-85736720D01*
X92569968Y-85819160D01*
X92595756Y-85869606D01*
X92758633Y-86140535D01*
X92945653Y-86377530D01*
X93156687Y-86580498D01*
X93391607Y-86749341D01*
X93650281Y-86883965D01*
X93932582Y-86984274D01*
X94238379Y-87050172D01*
X94316002Y-87062069D01*
X94321583Y-88175140D01*
X94321726Y-88203688D01*
G37*
G36*
X105245907Y-92057041D02*
G01*
X105245907Y-92917613D01*
X105370928Y-92967812D01*
X105430008Y-92995089D01*
X105554364Y-93083226D01*
X105649593Y-93200838D01*
X105714408Y-93346505D01*
X105734620Y-93417897D01*
X105750000Y-93484787D01*
X105755573Y-93527171D01*
X105753328Y-93550543D01*
X105743744Y-93547509D01*
X105721785Y-93509348D01*
X105693905Y-93462287D01*
X105611304Y-93368746D01*
X105512841Y-93310573D01*
X105402588Y-93290562D01*
X105354520Y-93295517D01*
X105280084Y-93309868D01*
X105198761Y-93330325D01*
X105196858Y-93330871D01*
X105147588Y-93346997D01*
X105066904Y-93375570D01*
X104959208Y-93414896D01*
X104828901Y-93463281D01*
X104680384Y-93519031D01*
X104518060Y-93580452D01*
X104346329Y-93645850D01*
X104169594Y-93713530D01*
X103992255Y-93781799D01*
X103818714Y-93848961D01*
X103653373Y-93913324D01*
X103500633Y-93973193D01*
X103364896Y-94026874D01*
X103250563Y-94072673D01*
X103162036Y-94108895D01*
X103103716Y-94133846D01*
X103080005Y-94145833D01*
X103066191Y-94157840D01*
X103049936Y-94160477D01*
X103033194Y-94141356D01*
X103011533Y-94094620D01*
X102980518Y-94014414D01*
X102957215Y-93956363D01*
X102865871Y-93771175D01*
X102749948Y-93583181D01*
X102617823Y-93406421D01*
X102498437Y-93261820D01*
X102054938Y-93718972D01*
X102010996Y-93764104D01*
X101902447Y-93874102D01*
X101806275Y-93969421D01*
X101725747Y-94046955D01*
X101664126Y-94103597D01*
X101624678Y-94136240D01*
X101610667Y-94141776D01*
X101610188Y-94135996D01*
X101594021Y-94084945D01*
X101558675Y-94011146D01*
X101509185Y-93923607D01*
X101450586Y-93831333D01*
X101387913Y-93743331D01*
X101356524Y-93704912D01*
X101294815Y-93634712D01*
X101213091Y-93545222D01*
X101116602Y-93442104D01*
X101010600Y-93331021D01*
X100900335Y-93217634D01*
X100861484Y-93178017D01*
X100728732Y-93041405D01*
X100625077Y-92932341D01*
X100549720Y-92849813D01*
X100501860Y-92792811D01*
X100480696Y-92760325D01*
X100485428Y-92751343D01*
X100515255Y-92764856D01*
X100569376Y-92799853D01*
X100621986Y-92833797D01*
X100684304Y-92868648D01*
X100728345Y-92887115D01*
X100754000Y-92891983D01*
X100854280Y-92890795D01*
X100963060Y-92865032D01*
X101063798Y-92818099D01*
X101161904Y-92757447D01*
X101167267Y-91417164D01*
X101167527Y-91347696D01*
X101168186Y-91059654D01*
X101168058Y-90802734D01*
X101167160Y-90578444D01*
X101165509Y-90388289D01*
X101163121Y-90233776D01*
X101160012Y-90116412D01*
X101156200Y-90037703D01*
X101151701Y-89999156D01*
X101146978Y-89983090D01*
X101093056Y-89872002D01*
X101011135Y-89775451D01*
X100912147Y-89706778D01*
X100814920Y-89659712D01*
X100895809Y-89623496D01*
X100952938Y-89589809D01*
X101035424Y-89515822D01*
X101065003Y-89477437D01*
X102485038Y-89477437D01*
X102485038Y-91206887D01*
X102485101Y-91363235D01*
X102485493Y-91620762D01*
X102486217Y-91864144D01*
X102487246Y-92090323D01*
X102488553Y-92296239D01*
X102490109Y-92478834D01*
X102491887Y-92635049D01*
X102493859Y-92761825D01*
X102495998Y-92856105D01*
X102498276Y-92914828D01*
X102500665Y-92934936D01*
X102519082Y-92928771D01*
X102572479Y-92909080D01*
X102656175Y-92877532D01*
X102765668Y-92835843D01*
X102896456Y-92785727D01*
X103044036Y-92728899D01*
X103203906Y-92667074D01*
X103891518Y-92400612D01*
X103896970Y-91570235D01*
X103898110Y-91398476D01*
X103899062Y-91211383D01*
X103898896Y-91057340D01*
X103897027Y-90931497D01*
X103892866Y-90829007D01*
X103885829Y-90745021D01*
X103875328Y-90674692D01*
X103860777Y-90613171D01*
X103841589Y-90555610D01*
X103817178Y-90497162D01*
X103786957Y-90432977D01*
X103750340Y-90358209D01*
X103710480Y-90281669D01*
X103588173Y-90089899D01*
X103445758Y-89917878D01*
X103287874Y-89769139D01*
X103119161Y-89647217D01*
X102944256Y-89555645D01*
X102767800Y-89497956D01*
X102594431Y-89477684D01*
X102485038Y-89477437D01*
X101065003Y-89477437D01*
X101104781Y-89425817D01*
X101148140Y-89334529D01*
X101150874Y-89322142D01*
X101156156Y-89274719D01*
X101160633Y-89197578D01*
X101164335Y-89089011D01*
X101167294Y-88947312D01*
X101169541Y-88770773D01*
X101171107Y-88557687D01*
X101172024Y-88306346D01*
X101172322Y-88015043D01*
X101172322Y-86776270D01*
X101061688Y-86741395D01*
X100976861Y-86706242D01*
X100857509Y-86622638D01*
X100761566Y-86510508D01*
X100693901Y-86376095D01*
X100659385Y-86225641D01*
X100647558Y-86112301D01*
X100694174Y-86202561D01*
X100757393Y-86289208D01*
X100850913Y-86361994D01*
X100957591Y-86403513D01*
X100983192Y-86406375D01*
X101061203Y-86401151D01*
X101155540Y-86381207D01*
X101170133Y-86376746D01*
X101228147Y-86356820D01*
X101318109Y-86324409D01*
X101435294Y-86281315D01*
X101574974Y-86229342D01*
X101732423Y-86170292D01*
X101902914Y-86105966D01*
X102081721Y-86038168D01*
X102264115Y-85968700D01*
X102445372Y-85899364D01*
X102620763Y-85831963D01*
X102785563Y-85768298D01*
X102935043Y-85710173D01*
X103064479Y-85659390D01*
X103169142Y-85617751D01*
X103244306Y-85587059D01*
X103285245Y-85569115D01*
X103316302Y-85554335D01*
X103356014Y-85542142D01*
X103376900Y-85554798D01*
X103390524Y-85595165D01*
X103408235Y-85646507D01*
X103445078Y-85729953D01*
X103494694Y-85830182D01*
X103551983Y-85937350D01*
X103611849Y-86041616D01*
X103669192Y-86133138D01*
X103677407Y-86145375D01*
X103819863Y-86327650D01*
X103991568Y-86501823D01*
X104182778Y-86659787D01*
X104383750Y-86793439D01*
X104584739Y-86894673D01*
X104686352Y-86932559D01*
X104838590Y-86979085D01*
X105001368Y-87019755D01*
X105157351Y-87049874D01*
X105235489Y-87062262D01*
X105235832Y-87212384D01*
X105238365Y-87275518D01*
X105263321Y-87400449D01*
X105316628Y-87498900D01*
X105400372Y-87575467D01*
X105470856Y-87622966D01*
X105389637Y-87623274D01*
X105342452Y-87626378D01*
X105260955Y-87637788D01*
X105176626Y-87654651D01*
X105168801Y-87656518D01*
X105045374Y-87693013D01*
X104931246Y-87742438D01*
X104821443Y-87808680D01*
X104710993Y-87895628D01*
X104594922Y-88007171D01*
X104468254Y-88147195D01*
X104326018Y-88319590D01*
X104282507Y-88373427D01*
X104152540Y-88524765D01*
X104035793Y-88643604D01*
X103927727Y-88733388D01*
X103823802Y-88797564D01*
X103719480Y-88839575D01*
X103610222Y-88862866D01*
X103516457Y-88875353D01*
X103578967Y-88840531D01*
X103614314Y-88819059D01*
X103722445Y-88727057D01*
X103801212Y-88615712D01*
X103817538Y-88582297D01*
X103839986Y-88527551D01*
X103858492Y-88466967D01*
X103873521Y-88396066D01*
X103885538Y-88310368D01*
X103895008Y-88205395D01*
X103902396Y-88076666D01*
X103908168Y-87919703D01*
X103912789Y-87730026D01*
X103916722Y-87503155D01*
X103918938Y-87331049D01*
X103920220Y-87172141D01*
X103920579Y-87031738D01*
X103920037Y-86914473D01*
X103918615Y-86824977D01*
X103916334Y-86767883D01*
X103913217Y-86747822D01*
X103911509Y-86748169D01*
X103881561Y-86758513D01*
X103819409Y-86781673D01*
X103730439Y-86815544D01*
X103620033Y-86858017D01*
X103493574Y-86906988D01*
X103356446Y-86960350D01*
X103214031Y-87015995D01*
X103071713Y-87071817D01*
X102934875Y-87125710D01*
X102808900Y-87175568D01*
X102699172Y-87219283D01*
X102611073Y-87254749D01*
X102549987Y-87279860D01*
X102521297Y-87292509D01*
X102520880Y-87292735D01*
X102512403Y-87299608D01*
X102505397Y-87312441D01*
X102499752Y-87334805D01*
X102495353Y-87370271D01*
X102492090Y-87422410D01*
X102489848Y-87494794D01*
X102488517Y-87590994D01*
X102487983Y-87714581D01*
X102488134Y-87869126D01*
X102488858Y-88058200D01*
X102490041Y-88285376D01*
X102495456Y-89258651D01*
X102682987Y-89271588D01*
X102787792Y-89282177D01*
X102905062Y-89304056D01*
X103019997Y-89338459D01*
X103137092Y-89387853D01*
X103260844Y-89454704D01*
X103395750Y-89541480D01*
X103546306Y-89650647D01*
X103717009Y-89784672D01*
X103912355Y-89946021D01*
X104063378Y-90070861D01*
X104258942Y-90224002D01*
X104436714Y-90350755D01*
X104602421Y-90453993D01*
X104761789Y-90536591D01*
X104920541Y-90601423D01*
X105084404Y-90651362D01*
X105259103Y-90689283D01*
X105450363Y-90718060D01*
X105550635Y-90730584D01*
X105464210Y-90824345D01*
X105416622Y-90883718D01*
X105359239Y-90970458D01*
X105311846Y-91057287D01*
X105245907Y-91196469D01*
X105245907Y-91211383D01*
X105245907Y-92057041D01*
G37*
G36*
X96706501Y-85545981D02*
G01*
X96733746Y-85582419D01*
X96779421Y-85646962D01*
X96840714Y-85735534D01*
X96914811Y-85844058D01*
X96998900Y-85968457D01*
X97090168Y-86104653D01*
X97097526Y-86115680D01*
X97199815Y-86269346D01*
X97281048Y-86392518D01*
X97343387Y-86488969D01*
X97388996Y-86562474D01*
X97420041Y-86616805D01*
X97438685Y-86655736D01*
X97447092Y-86683040D01*
X97447426Y-86702490D01*
X97441852Y-86717861D01*
X97403760Y-86765286D01*
X97336242Y-86823661D01*
X97250643Y-86883879D01*
X97157364Y-86938652D01*
X97066802Y-86980692D01*
X96942462Y-87028906D01*
X96942462Y-88190661D01*
X96942504Y-88337706D01*
X96942711Y-88545010D01*
X96943077Y-88736786D01*
X96943586Y-88909299D01*
X96944219Y-89058812D01*
X96944961Y-89181593D01*
X96945795Y-89273905D01*
X96946704Y-89332013D01*
X96947671Y-89352183D01*
X96947698Y-89352180D01*
X96968225Y-89344530D01*
X97023120Y-89323347D01*
X97108047Y-89290323D01*
X97218668Y-89247151D01*
X97350647Y-89195523D01*
X97499647Y-89137132D01*
X97661330Y-89073671D01*
X98369779Y-88795393D01*
X98362012Y-87708027D01*
X98354244Y-86620662D01*
X98177209Y-86443627D01*
X98175209Y-86441626D01*
X98107799Y-86372952D01*
X98053813Y-86315646D01*
X98018693Y-86275644D01*
X98007881Y-86258886D01*
X98016822Y-86257395D01*
X98057030Y-86260608D01*
X98116841Y-86270096D01*
X98188347Y-86277931D01*
X98338102Y-86265427D01*
X98503088Y-86218008D01*
X98680623Y-86136997D01*
X98868029Y-86023716D01*
X99062626Y-85879484D01*
X99261732Y-85705624D01*
X99334897Y-85639603D01*
X99396864Y-85588785D01*
X99441359Y-85558013D01*
X99462319Y-85551933D01*
X99463756Y-85553759D01*
X99483075Y-85581451D01*
X99521185Y-85637535D01*
X99574657Y-85716869D01*
X99640060Y-85814309D01*
X99713966Y-85924713D01*
X99792943Y-86042938D01*
X99873563Y-86163841D01*
X99952394Y-86282279D01*
X100026007Y-86393110D01*
X100090971Y-86491190D01*
X100143858Y-86571378D01*
X100181237Y-86628529D01*
X100199677Y-86657502D01*
X100202687Y-86677535D01*
X100181029Y-86721509D01*
X100132175Y-86775372D01*
X100062480Y-86833989D01*
X99978298Y-86892226D01*
X99885982Y-86944948D01*
X99791888Y-86987021D01*
X99692913Y-87024362D01*
X99692913Y-88177971D01*
X99692913Y-88202922D01*
X99692989Y-88447975D01*
X99693264Y-88654867D01*
X99693841Y-88826811D01*
X99694822Y-88967021D01*
X99696308Y-89078709D01*
X99698400Y-89165087D01*
X99701201Y-89229369D01*
X99704811Y-89274768D01*
X99709332Y-89304496D01*
X99714866Y-89321766D01*
X99721514Y-89329790D01*
X99729377Y-89331783D01*
X99758104Y-89335512D01*
X99830765Y-89361581D01*
X99912972Y-89406164D01*
X99991721Y-89461696D01*
X100054008Y-89520613D01*
X100062167Y-89530468D01*
X100125193Y-89629410D01*
X100172661Y-89744429D01*
X100175591Y-89753963D01*
X100202672Y-89850092D01*
X100213384Y-89908414D01*
X100207608Y-89929456D01*
X100185224Y-89913747D01*
X100146112Y-89861816D01*
X100099776Y-89801503D01*
X100017517Y-89730768D01*
X99923233Y-89694737D01*
X99811097Y-89691652D01*
X99675283Y-89719754D01*
X99658101Y-89724970D01*
X99592826Y-89746835D01*
X99504354Y-89778285D01*
X99399613Y-89816671D01*
X99285531Y-89859345D01*
X99169038Y-89903657D01*
X99057061Y-89946958D01*
X98956530Y-89986601D01*
X98874373Y-90019936D01*
X98817519Y-90044314D01*
X98792896Y-90057087D01*
X98794223Y-90064982D01*
X98820552Y-90093977D01*
X98871986Y-90138478D01*
X98942306Y-90193903D01*
X99025294Y-90255672D01*
X99114729Y-90319201D01*
X99204392Y-90379909D01*
X99288064Y-90433214D01*
X99359525Y-90474534D01*
X99365144Y-90477509D01*
X99462868Y-90523448D01*
X99569044Y-90565033D01*
X99661658Y-90593591D01*
X99666067Y-90594667D01*
X99741312Y-90613106D01*
X99801360Y-90627954D01*
X99833561Y-90636083D01*
X99836707Y-90639436D01*
X99841704Y-90658717D01*
X99845973Y-90697180D01*
X99849559Y-90757325D01*
X99852512Y-90841650D01*
X99854880Y-90952654D01*
X99856709Y-91092836D01*
X99858049Y-91264694D01*
X99858946Y-91470729D01*
X99859450Y-91713438D01*
X99859607Y-91995320D01*
X99859607Y-93347654D01*
X99427244Y-93755422D01*
X99404238Y-93777116D01*
X99294849Y-93880180D01*
X99196559Y-93972643D01*
X99113209Y-94050904D01*
X99048639Y-94111360D01*
X99006690Y-94150408D01*
X98991200Y-94164448D01*
X98983944Y-94152795D01*
X98963748Y-94112367D01*
X98935831Y-94052805D01*
X98927664Y-94035265D01*
X98883562Y-93950046D01*
X98830779Y-93864455D01*
X98765619Y-93773887D01*
X98684386Y-93673735D01*
X98583382Y-93559395D01*
X98458911Y-93426260D01*
X98307276Y-93269726D01*
X98305399Y-93267810D01*
X98157582Y-93115980D01*
X98038670Y-92991444D01*
X97947409Y-92892768D01*
X97882544Y-92818517D01*
X97842823Y-92767257D01*
X97826990Y-92737553D01*
X97833794Y-92727970D01*
X97857596Y-92740102D01*
X97892514Y-92772586D01*
X97916248Y-92795183D01*
X97994394Y-92844432D01*
X98087213Y-92880163D01*
X98175683Y-92894206D01*
X98247284Y-92888511D01*
X98343301Y-92858010D01*
X98447917Y-92796900D01*
X98526055Y-92743139D01*
X98526055Y-91452690D01*
X98526019Y-91221891D01*
X98525836Y-90991437D01*
X98525421Y-90797043D01*
X98524687Y-90635699D01*
X98523549Y-90504396D01*
X98521921Y-90400123D01*
X98519717Y-90319872D01*
X98516852Y-90260631D01*
X98513238Y-90219392D01*
X98508791Y-90193146D01*
X98503425Y-90178881D01*
X98497053Y-90173589D01*
X98489591Y-90174259D01*
X98471920Y-90180672D01*
X98417968Y-90200893D01*
X98333520Y-90232837D01*
X98223354Y-90274688D01*
X98092251Y-90324627D01*
X97944990Y-90380840D01*
X97786350Y-90441511D01*
X97119574Y-90696744D01*
X97109156Y-92030574D01*
X97098737Y-93364404D01*
X96673016Y-93762351D01*
X96247294Y-94160299D01*
X96170263Y-94006964D01*
X96142674Y-93954637D01*
X96093816Y-93872976D01*
X96034864Y-93787659D01*
X95962404Y-93694573D01*
X95873024Y-93589607D01*
X95763314Y-93468650D01*
X95629859Y-93327592D01*
X95469249Y-93162319D01*
X95374914Y-93065374D01*
X95281923Y-92968131D01*
X95202872Y-92883678D01*
X95141624Y-92816203D01*
X95102043Y-92769895D01*
X95087991Y-92748941D01*
X95090868Y-92744264D01*
X95115019Y-92752041D01*
X95155710Y-92781367D01*
X95165367Y-92789255D01*
X95229267Y-92833723D01*
X95290480Y-92866566D01*
X95316736Y-92876166D01*
X95430229Y-92892950D01*
X95549155Y-92878166D01*
X95660118Y-92834757D01*
X95749721Y-92765667D01*
X95796766Y-92714519D01*
X95791394Y-91446728D01*
X95786022Y-90178937D01*
X95692257Y-90148066D01*
X95630330Y-90124001D01*
X95501543Y-90046464D01*
X95397330Y-89943431D01*
X95323210Y-89821157D01*
X95284699Y-89685901D01*
X95281411Y-89662346D01*
X95271258Y-89596642D01*
X95262743Y-89550365D01*
X95263870Y-89541935D01*
X95278975Y-89560050D01*
X95305553Y-89605670D01*
X95324570Y-89638094D01*
X95370170Y-89701605D01*
X95413066Y-89746248D01*
X95430694Y-89758928D01*
X95514043Y-89799520D01*
X95605620Y-89821644D01*
X95686267Y-89820117D01*
X95709181Y-89813143D01*
X95766534Y-89793254D01*
X95849794Y-89763222D01*
X95952460Y-89725498D01*
X96068028Y-89682535D01*
X96189997Y-89636783D01*
X96311864Y-89590693D01*
X96427125Y-89546717D01*
X96529280Y-89507305D01*
X96611824Y-89474909D01*
X96668255Y-89451981D01*
X96692072Y-89440971D01*
X96687231Y-89429777D01*
X96658014Y-89398671D01*
X96610349Y-89356238D01*
X96489318Y-89256395D01*
X96336170Y-89135564D01*
X96203754Y-89039220D01*
X96087095Y-88964239D01*
X95981218Y-88907500D01*
X95881149Y-88865880D01*
X95781913Y-88836256D01*
X95636105Y-88800461D01*
X95624307Y-87697840D01*
X95621954Y-87482338D01*
X95619482Y-87273333D01*
X95617086Y-87099696D01*
X95614616Y-86958072D01*
X95611923Y-86845104D01*
X95608856Y-86757438D01*
X95605267Y-86691718D01*
X95601005Y-86644589D01*
X95595922Y-86612695D01*
X95589867Y-86592680D01*
X95582692Y-86581189D01*
X95574245Y-86574866D01*
X95550190Y-86558265D01*
X95498780Y-86513511D01*
X95437647Y-86453974D01*
X95376874Y-86389999D01*
X95326543Y-86331933D01*
X95296738Y-86290123D01*
X95284758Y-86266055D01*
X95286841Y-86251655D01*
X95320616Y-86260230D01*
X95353148Y-86266914D01*
X95419803Y-86272800D01*
X95496967Y-86274010D01*
X95607121Y-86261676D01*
X95768216Y-86214805D01*
X95941656Y-86135294D01*
X96123220Y-86025472D01*
X96308692Y-85887663D01*
X96493853Y-85724195D01*
X96505163Y-85713404D01*
X96577511Y-85645392D01*
X96638159Y-85590075D01*
X96681035Y-85552894D01*
X96700072Y-85539291D01*
X96706501Y-85545981D01*
G37*
G36*
X117551978Y-84631446D02*
G01*
X117408593Y-84753929D01*
X117357351Y-84798345D01*
X117250367Y-84892961D01*
X117152838Y-84981656D01*
X117070371Y-85059203D01*
X117008573Y-85120373D01*
X116973054Y-85159940D01*
X116961784Y-85174683D01*
X116941173Y-85201915D01*
X116923062Y-85228277D01*
X116907287Y-85256429D01*
X116893689Y-85289028D01*
X116882106Y-85328734D01*
X116872377Y-85378206D01*
X116864340Y-85440103D01*
X116857834Y-85517083D01*
X116852698Y-85611806D01*
X116848770Y-85726931D01*
X116845889Y-85865117D01*
X116843894Y-86029022D01*
X116842623Y-86221306D01*
X116841916Y-86444627D01*
X116841610Y-86701645D01*
X116841545Y-86995019D01*
X116841559Y-87327407D01*
X116841619Y-87555697D01*
X116841952Y-87873173D01*
X116842603Y-88152341D01*
X116843599Y-88395236D01*
X116844965Y-88603897D01*
X116846729Y-88780360D01*
X116848918Y-88926663D01*
X116851559Y-89044842D01*
X116854677Y-89136935D01*
X116858300Y-89204980D01*
X116862455Y-89251012D01*
X116867168Y-89277070D01*
X116878577Y-89308226D01*
X116935759Y-89402897D01*
X117019252Y-89492370D01*
X117118220Y-89566337D01*
X117221830Y-89614491D01*
X117276108Y-89632921D01*
X117323429Y-89652795D01*
X117341641Y-89665981D01*
X117325794Y-89678653D01*
X117280349Y-89700535D01*
X117215681Y-89726148D01*
X117101531Y-89779032D01*
X116983060Y-89869944D01*
X116897633Y-89985964D01*
X116893671Y-89993444D01*
X116883481Y-90014628D01*
X116875060Y-90038148D01*
X116868209Y-90067938D01*
X116862729Y-90107931D01*
X116858418Y-90162062D01*
X116855079Y-90234262D01*
X116852511Y-90328468D01*
X116850515Y-90448611D01*
X116848994Y-90589040D01*
X116848890Y-90598626D01*
X116847437Y-90782446D01*
X116845957Y-91004006D01*
X116839937Y-91936728D01*
X116950141Y-91926665D01*
X117072216Y-91915969D01*
X117188994Y-91907519D01*
X117286335Y-91903508D01*
X117376162Y-91903737D01*
X117470400Y-91908007D01*
X117580972Y-91916118D01*
X117886215Y-91956593D01*
X118179448Y-92030141D01*
X118445953Y-92135300D01*
X118685313Y-92271739D01*
X118897113Y-92439128D01*
X119080939Y-92637137D01*
X119236373Y-92865434D01*
X119363001Y-93123689D01*
X119460407Y-93411572D01*
X119479871Y-93486304D01*
X119495620Y-93559932D01*
X119506130Y-93633392D01*
X119512487Y-93717140D01*
X119515776Y-93821636D01*
X119517084Y-93957338D01*
X119517347Y-94044669D01*
X119516676Y-94151474D01*
X119513804Y-94231084D01*
X119507717Y-94292299D01*
X119497406Y-94343924D01*
X119481858Y-94394760D01*
X119460062Y-94453611D01*
X119458056Y-94458814D01*
X119352858Y-94684259D01*
X119223392Y-94882650D01*
X119072458Y-95050860D01*
X118902851Y-95185758D01*
X118717371Y-95284216D01*
X118674960Y-95301063D01*
X118605462Y-95324716D01*
X118569462Y-95330995D01*
X118568476Y-95320967D01*
X118604019Y-95295695D01*
X118677603Y-95256245D01*
X118824002Y-95166551D01*
X118973098Y-95038521D01*
X119101549Y-94888943D01*
X119199002Y-94728298D01*
X119267605Y-94567329D01*
X119314489Y-94406662D01*
X119340790Y-94235974D01*
X119349703Y-94040685D01*
X119349743Y-94030300D01*
X119339393Y-93825340D01*
X119305883Y-93649759D01*
X119246700Y-93496975D01*
X119159327Y-93360409D01*
X119041250Y-93233477D01*
X119023281Y-93217159D01*
X118875488Y-93105835D01*
X118713447Y-93024332D01*
X118532150Y-92971121D01*
X118326592Y-92944673D01*
X118091765Y-92943460D01*
X118068218Y-92944554D01*
X117887016Y-92958833D01*
X117716957Y-92984480D01*
X117548962Y-93023967D01*
X117373953Y-93079772D01*
X117182852Y-93154369D01*
X116966580Y-93250233D01*
X116915321Y-93273712D01*
X116816728Y-93318283D01*
X116689159Y-93375511D01*
X116537890Y-93443046D01*
X116368196Y-93518537D01*
X116185351Y-93599636D01*
X115994633Y-93683993D01*
X115801314Y-93769257D01*
X115715367Y-93807098D01*
X115519969Y-93892974D01*
X115358064Y-93963733D01*
X115226339Y-94020646D01*
X115121482Y-94064987D01*
X115040177Y-94098029D01*
X114979112Y-94121043D01*
X114934973Y-94135304D01*
X114904446Y-94142082D01*
X114884218Y-94142652D01*
X114870975Y-94138285D01*
X114861403Y-94130255D01*
X114857136Y-94125659D01*
X114824653Y-94090072D01*
X114772177Y-94032128D01*
X114705973Y-93958756D01*
X114632308Y-93876886D01*
X114619370Y-93862541D01*
X114403144Y-93637346D01*
X114177034Y-93427318D01*
X113945951Y-93236060D01*
X113714805Y-93067176D01*
X113488508Y-92924267D01*
X113271972Y-92810938D01*
X113070107Y-92730792D01*
X112994020Y-92709415D01*
X112892415Y-92686191D01*
X112785939Y-92665823D01*
X112689578Y-92651157D01*
X112618317Y-92645036D01*
X112615148Y-92632226D01*
X112631373Y-92594018D01*
X112664519Y-92539357D01*
X112693873Y-92492129D01*
X112732736Y-92417950D01*
X112756759Y-92357035D01*
X112761033Y-92321246D01*
X112764958Y-92244264D01*
X112768400Y-92127437D01*
X112771349Y-91971690D01*
X112773792Y-91777948D01*
X112775718Y-91547136D01*
X112777115Y-91280180D01*
X112777972Y-90978004D01*
X112778277Y-90641533D01*
X112778371Y-89317528D01*
X114091108Y-89317528D01*
X114091108Y-91137351D01*
X114091124Y-91268340D01*
X114091324Y-91581884D01*
X114091779Y-91856758D01*
X114092519Y-92095135D01*
X114093575Y-92299186D01*
X114094980Y-92471082D01*
X114096762Y-92612993D01*
X114098955Y-92727092D01*
X114101589Y-92815549D01*
X114104694Y-92880536D01*
X114108303Y-92924224D01*
X114112446Y-92948784D01*
X114117154Y-92956388D01*
X114136965Y-92950668D01*
X114191269Y-92931808D01*
X114274070Y-92901812D01*
X114379852Y-92862775D01*
X114503093Y-92816792D01*
X114638277Y-92765959D01*
X114779885Y-92712370D01*
X114922397Y-92658122D01*
X115060296Y-92605309D01*
X115188063Y-92556027D01*
X115300178Y-92512371D01*
X115391125Y-92476437D01*
X115455383Y-92450319D01*
X115487435Y-92436114D01*
X115494519Y-92431631D01*
X115500849Y-92424433D01*
X115506348Y-92411990D01*
X115511076Y-92391701D01*
X115515090Y-92360964D01*
X115518450Y-92317175D01*
X115521212Y-92257733D01*
X115523436Y-92180037D01*
X115525180Y-92081483D01*
X115526502Y-91959471D01*
X115527461Y-91811397D01*
X115528114Y-91634660D01*
X115528521Y-91426658D01*
X115528739Y-91184789D01*
X115528828Y-90906450D01*
X115528844Y-90589040D01*
X115528840Y-90460198D01*
X115528776Y-90158027D01*
X115528595Y-89893991D01*
X115528244Y-89665545D01*
X115527672Y-89470144D01*
X115526826Y-89305242D01*
X115525657Y-89168294D01*
X115524111Y-89056756D01*
X115522138Y-88968081D01*
X115519685Y-88899726D01*
X115516701Y-88849144D01*
X115513134Y-88813791D01*
X115508933Y-88791121D01*
X115504046Y-88778589D01*
X115498421Y-88773650D01*
X115492007Y-88773760D01*
X115470968Y-88781043D01*
X115414240Y-88802215D01*
X115327417Y-88835290D01*
X115215197Y-88878461D01*
X115082278Y-88929919D01*
X114933359Y-88987855D01*
X114773139Y-89050461D01*
X114091108Y-89317528D01*
X112778371Y-89317528D01*
X112778393Y-89003086D01*
X112643473Y-88915183D01*
X112527772Y-88831449D01*
X112404602Y-88711659D01*
X112317738Y-88580371D01*
X112264153Y-88432683D01*
X112240816Y-88263696D01*
X112239716Y-88240355D01*
X112238183Y-88150258D01*
X112243184Y-88098152D01*
X112254925Y-88081374D01*
X112269582Y-88091671D01*
X112278654Y-88128257D01*
X112290888Y-88185580D01*
X112328977Y-88260788D01*
X112383353Y-88331148D01*
X112444186Y-88381612D01*
X112486931Y-88403560D01*
X112533134Y-88418511D01*
X112585147Y-88424138D01*
X112647631Y-88419476D01*
X112725247Y-88403554D01*
X112822656Y-88375404D01*
X112944519Y-88334058D01*
X113095497Y-88278548D01*
X113280252Y-88207905D01*
X113303820Y-88198788D01*
X113444874Y-88143878D01*
X113572402Y-88093658D01*
X113681326Y-88050170D01*
X113766567Y-88015458D01*
X113823047Y-87991562D01*
X113845688Y-87980525D01*
X113844242Y-87977111D01*
X113817290Y-87954885D01*
X113760567Y-87915053D01*
X113678252Y-87860362D01*
X113574525Y-87793561D01*
X113453568Y-87717399D01*
X113319560Y-87634624D01*
X112778393Y-87303381D01*
X112778393Y-87233852D01*
X114094728Y-87233852D01*
X114095256Y-87409474D01*
X114096355Y-87553321D01*
X114098061Y-87667880D01*
X114100411Y-87755637D01*
X114103444Y-87819078D01*
X114107196Y-87860688D01*
X114111705Y-87882955D01*
X114117007Y-87888363D01*
X114262233Y-87832146D01*
X114386130Y-87782699D01*
X114481383Y-87742340D01*
X114553484Y-87708481D01*
X114607922Y-87678530D01*
X114650188Y-87649896D01*
X114685770Y-87619991D01*
X114772779Y-87539788D01*
X114872189Y-87701188D01*
X114916197Y-87770400D01*
X115021938Y-87924834D01*
X115140367Y-88085443D01*
X115260738Y-88237900D01*
X115372304Y-88367880D01*
X115392519Y-88389821D01*
X115446260Y-88445129D01*
X115487900Y-88483651D01*
X115509756Y-88498109D01*
X115511868Y-88488801D01*
X115514834Y-88441409D01*
X115517569Y-88355667D01*
X115520054Y-88233562D01*
X115522271Y-88077083D01*
X115524199Y-87888216D01*
X115525820Y-87668949D01*
X115527114Y-87421270D01*
X115528062Y-87147165D01*
X115528645Y-86848624D01*
X115528844Y-86527632D01*
X115528844Y-84557155D01*
X115484563Y-84571210D01*
X115465311Y-84578039D01*
X115409382Y-84598753D01*
X115323073Y-84631132D01*
X115211229Y-84673347D01*
X115078690Y-84723570D01*
X114930301Y-84779972D01*
X114770904Y-84840723D01*
X114101527Y-85096181D01*
X114096170Y-86497298D01*
X114095233Y-86777342D01*
X114094733Y-87023970D01*
X114094728Y-87233852D01*
X112778393Y-87233852D01*
X112778393Y-86051385D01*
X112778393Y-84799388D01*
X112575235Y-84702943D01*
X112534971Y-84683348D01*
X112333589Y-84568325D01*
X112165903Y-84441727D01*
X112033497Y-84305436D01*
X111937957Y-84161337D01*
X111880865Y-84011311D01*
X111863807Y-83857244D01*
X111866039Y-83757748D01*
X111885274Y-83843290D01*
X111912186Y-83913965D01*
X111970707Y-84003415D01*
X112046917Y-84083886D01*
X112129483Y-84141535D01*
X112162363Y-84156770D01*
X112296824Y-84198360D01*
X112450116Y-84219893D01*
X112607273Y-84218945D01*
X112618600Y-84217883D01*
X112659234Y-84212254D01*
X112706208Y-84202533D01*
X112763128Y-84187481D01*
X112833598Y-84165860D01*
X112921224Y-84136431D01*
X113029611Y-84097956D01*
X113162365Y-84049195D01*
X113323090Y-83988912D01*
X113515392Y-83915866D01*
X113742876Y-83828820D01*
X113787007Y-83811888D01*
X113977978Y-83738480D01*
X114157028Y-83669439D01*
X114320299Y-83606268D01*
X114463933Y-83550467D01*
X114584071Y-83503538D01*
X114676857Y-83466984D01*
X114738431Y-83442305D01*
X114764937Y-83431003D01*
X114781695Y-83420441D01*
X114828931Y-83384605D01*
X114882887Y-83338551D01*
X114962529Y-83266599D01*
X114988091Y-83345480D01*
X115021363Y-83432013D01*
X115078387Y-83552397D01*
X115147859Y-83679540D01*
X115222538Y-83799422D01*
X115222784Y-83799788D01*
X115261756Y-83851812D01*
X115318549Y-83920112D01*
X115387535Y-83998707D01*
X115463084Y-84081617D01*
X115539568Y-84162863D01*
X115611358Y-84236464D01*
X115672826Y-84296439D01*
X115718342Y-84336810D01*
X115742277Y-84351596D01*
X115749996Y-84346973D01*
X115784807Y-84318442D01*
X115843198Y-84267222D01*
X115921015Y-84197196D01*
X116014105Y-84112249D01*
X116118312Y-84016262D01*
X116229484Y-83913121D01*
X116343465Y-83806707D01*
X116456103Y-83700905D01*
X116563241Y-83599597D01*
X116660727Y-83506668D01*
X116744406Y-83426000D01*
X116810124Y-83361477D01*
X116853727Y-83316982D01*
X116871060Y-83296398D01*
X116877313Y-83284520D01*
X116900186Y-83268085D01*
X116917181Y-83277171D01*
X116962723Y-83308058D01*
X117030607Y-83356899D01*
X117115160Y-83419603D01*
X117210714Y-83492080D01*
X117503641Y-83724937D01*
X117823871Y-84000189D01*
X118123327Y-84280259D01*
X118399804Y-84562525D01*
X118651096Y-84844368D01*
X118874998Y-85123167D01*
X119069304Y-85396302D01*
X119231808Y-85661151D01*
X119360305Y-85915096D01*
X119452589Y-86155515D01*
X119465998Y-86199403D01*
X119508569Y-86360083D01*
X119541800Y-86519815D01*
X119563356Y-86666138D01*
X119570900Y-86786588D01*
X119570535Y-86807598D01*
X119560238Y-86925507D01*
X119538121Y-87057196D01*
X119507334Y-87188802D01*
X119471026Y-87306466D01*
X119432349Y-87396324D01*
X119378625Y-87484073D01*
X119253776Y-87632008D01*
X119105723Y-87748677D01*
X118939196Y-87831999D01*
X118758925Y-87879893D01*
X118569639Y-87890277D01*
X118376068Y-87861072D01*
X118230183Y-87813654D01*
X118061294Y-87734545D01*
X117905553Y-87636336D01*
X117772466Y-87525151D01*
X117671541Y-87407115D01*
X117664517Y-87395947D01*
X117666383Y-87389774D01*
X117692609Y-87411296D01*
X117740430Y-87458453D01*
X117887268Y-87591817D01*
X118063551Y-87708259D01*
X118251886Y-87787365D01*
X118456518Y-87831347D01*
X118468758Y-87832826D01*
X118659030Y-87836881D01*
X118839370Y-87806261D01*
X119004713Y-87743455D01*
X119149994Y-87650957D01*
X119270148Y-87531257D01*
X119360110Y-87386846D01*
X119383617Y-87334660D01*
X119428818Y-87212465D01*
X119457419Y-87089823D01*
X119472006Y-86953309D01*
X119475165Y-86789496D01*
X119475032Y-86776292D01*
X119472403Y-86669770D01*
X119465586Y-86583831D01*
X119452152Y-86503506D01*
X119429671Y-86413828D01*
X119395717Y-86299832D01*
X119350948Y-86167154D01*
X119255893Y-85940595D01*
X119136407Y-85714759D01*
X118989922Y-85485773D01*
X118813871Y-85249761D01*
X118605686Y-85002851D01*
X118362800Y-84741167D01*
X118252875Y-84628358D01*
X118155394Y-84534493D01*
X118072142Y-84467404D01*
X117997416Y-84427167D01*
X117925509Y-84413860D01*
X117850717Y-84427558D01*
X117767335Y-84468337D01*
X117669657Y-84536275D01*
X117643839Y-84557155D01*
X117551978Y-84631446D01*
G37*
%TO.C,U8*%
D13*
X103640000Y-117550000D02*
X105440000Y-117550000D01*
X105440000Y-115190000D01*
X103640000Y-115190000D01*
X103640000Y-117550000D01*
G36*
X103640000Y-117550000D02*
G01*
X105440000Y-117550000D01*
X105440000Y-115190000D01*
X103640000Y-115190000D01*
X103640000Y-117550000D01*
G37*
X103660000Y-114600000D02*
X105440000Y-114600000D01*
X105440000Y-112730000D01*
X103660000Y-112730000D01*
X103660000Y-114600000D01*
G36*
X103660000Y-114600000D02*
G01*
X105440000Y-114600000D01*
X105440000Y-112730000D01*
X103660000Y-112730000D01*
X103660000Y-114600000D01*
G37*
X103660000Y-120360000D02*
X105460000Y-120360000D01*
X105460000Y-118000000D01*
X103660000Y-118000000D01*
X103660000Y-120360000D01*
G36*
X103660000Y-120360000D02*
G01*
X105460000Y-120360000D01*
X105460000Y-118000000D01*
X103660000Y-118000000D01*
X103660000Y-120360000D01*
G37*
X106010000Y-117540000D02*
X107810000Y-117540000D01*
X107810000Y-115180000D01*
X106010000Y-115180000D01*
X106010000Y-117540000D01*
G36*
X106010000Y-117540000D02*
G01*
X107810000Y-117540000D01*
X107810000Y-115180000D01*
X106010000Y-115180000D01*
X106010000Y-117540000D01*
G37*
X106010000Y-120360000D02*
X107810000Y-120360000D01*
X107810000Y-118000000D01*
X106010000Y-118000000D01*
X106010000Y-120360000D01*
G36*
X106010000Y-120360000D02*
G01*
X107810000Y-120360000D01*
X107810000Y-118000000D01*
X106010000Y-118000000D01*
X106010000Y-120360000D01*
G37*
X106030000Y-114610000D02*
X107810000Y-114610000D01*
X107810000Y-112730000D01*
X106030000Y-112730000D01*
X106030000Y-114610000D01*
G36*
X106030000Y-114610000D02*
G01*
X107810000Y-114610000D01*
X107810000Y-112730000D01*
X106030000Y-112730000D01*
X106030000Y-114610000D01*
G37*
%TD*%
D21*
%TO.C,H1*%
X127985010Y-51120990D03*
X128644020Y-49530000D03*
X128644020Y-52711980D03*
X130235010Y-48870990D03*
D22*
X130235010Y-51120990D03*
D21*
X130235010Y-53370990D03*
X131826000Y-49530000D03*
X131826000Y-52711980D03*
X132485010Y-51120990D03*
%TD*%
%TO.C,H3*%
X128052000Y-143728000D03*
X128711010Y-142137010D03*
X128711010Y-145318990D03*
X130302000Y-141478000D03*
D22*
X130302000Y-143728000D03*
D21*
X130302000Y-145978000D03*
X131892990Y-142137010D03*
X131892990Y-145318990D03*
X132552000Y-143728000D03*
%TD*%
D23*
%TO.C,J4*%
X99171505Y-51054000D03*
D24*
X101711505Y-51054000D03*
X104251505Y-51054000D03*
X106791505Y-51054000D03*
X109331505Y-51054000D03*
X111871505Y-51054000D03*
%TD*%
D21*
%TO.C,H4*%
X78455010Y-143830990D03*
X79114020Y-142240000D03*
X79114020Y-145421980D03*
X80705010Y-141580990D03*
D22*
X80705010Y-143830990D03*
D21*
X80705010Y-146080990D03*
X82296000Y-142240000D03*
X82296000Y-145421980D03*
X82955010Y-143830990D03*
%TD*%
%TO.C,H2*%
X78558000Y-51054000D03*
X79217010Y-49463010D03*
X79217010Y-52644990D03*
X80808000Y-48804000D03*
D22*
X80808000Y-51054000D03*
D21*
X80808000Y-53304000D03*
X82398990Y-49463010D03*
X82398990Y-52644990D03*
X83058000Y-51054000D03*
%TD*%
D25*
%TO.C,U2*%
X92180000Y-78870000D03*
X93580000Y-78870000D03*
X94980000Y-78870000D03*
X91180000Y-77590000D03*
X92180000Y-77590000D03*
X93580000Y-77590000D03*
X94980000Y-77590000D03*
X95980000Y-77590000D03*
X92180000Y-76310000D03*
X93580000Y-76310000D03*
X94980000Y-76310000D03*
%TD*%
D26*
%TO.C,J6*%
X131265668Y-130461500D03*
D27*
X129105667Y-135541500D03*
X129105667Y-133001500D03*
X129105667Y-130461500D03*
X129105667Y-127921500D03*
%TD*%
D28*
%TO.C,J3*%
X87005000Y-50292000D03*
D24*
X87405000Y-52832000D03*
X87005000Y-55372000D03*
X87405000Y-57912000D03*
%TD*%
D29*
%TO.C,FID7*%
X132260000Y-139060000D03*
%TD*%
D30*
%TO.C,J5*%
X83470000Y-86150000D03*
X83470000Y-80370000D03*
D31*
X84545000Y-86460000D03*
X84545000Y-85660000D03*
D32*
X84545000Y-84510000D03*
X84545000Y-83510000D03*
X84545000Y-83010000D03*
X84545000Y-82010000D03*
D31*
X84545000Y-80060000D03*
X84545000Y-80860000D03*
D32*
X84545000Y-81510000D03*
X84545000Y-82510000D03*
X84545000Y-84010000D03*
X84545000Y-85010000D03*
D33*
X79790000Y-87580000D03*
D34*
X83970000Y-87580000D03*
D33*
X79790000Y-78940000D03*
D34*
X83970000Y-78940000D03*
%TD*%
D35*
%TO.C,U4*%
X125690000Y-81360000D03*
X124420000Y-81360000D03*
X123150000Y-81360000D03*
X121880000Y-81360000D03*
X120610000Y-81360000D03*
X119340000Y-81360000D03*
X118070000Y-81360000D03*
X116800000Y-81360000D03*
X115530000Y-81360000D03*
X114260000Y-81360000D03*
X112990000Y-81360000D03*
X111720000Y-81360000D03*
X110450000Y-81360000D03*
X109180000Y-81360000D03*
D36*
X107930000Y-79595000D03*
X107930000Y-78325000D03*
X107930000Y-77055000D03*
X107930000Y-75785000D03*
X107930000Y-74515000D03*
X107930000Y-73245000D03*
X107930000Y-71975000D03*
X107930000Y-70705000D03*
X107930000Y-69435000D03*
X107930000Y-68165000D03*
X107930000Y-66895000D03*
X107930000Y-65625000D03*
D35*
X109180000Y-63860000D03*
X110450000Y-63860000D03*
X111720000Y-63860000D03*
X112990000Y-63860000D03*
X114260000Y-63860000D03*
X115530000Y-63860000D03*
X116800000Y-63860000D03*
X118070000Y-63860000D03*
X119340000Y-63860000D03*
X120610000Y-63860000D03*
X121880000Y-63860000D03*
X123150000Y-63860000D03*
X124420000Y-63860000D03*
X125690000Y-63860000D03*
D37*
X116570000Y-75510000D03*
X117970000Y-75510000D03*
X119370000Y-75510000D03*
X116570000Y-74110000D03*
X117970000Y-74110000D03*
X119370000Y-74110000D03*
X116570000Y-72710000D03*
X117970000Y-72710000D03*
X119370000Y-72710000D03*
%TD*%
D38*
%TO.C,J2*%
X130670000Y-57730000D03*
X125590000Y-58746000D03*
X125590000Y-56714000D03*
D39*
X129400000Y-58365000D03*
X129400000Y-57095000D03*
X128130000Y-58365000D03*
X128130000Y-57095000D03*
X126860000Y-58365000D03*
X126860000Y-57095000D03*
%TD*%
D29*
%TO.C,FID8*%
X78850000Y-139070000D03*
%TD*%
D40*
%TO.C,J1*%
X82330000Y-67000000D03*
D41*
X86830000Y-67000000D03*
D42*
X82330000Y-72500000D03*
X88530000Y-72500000D03*
X82330000Y-61500000D03*
X88530000Y-61500000D03*
%TD*%
D43*
%TO.C,SW1*%
X132246000Y-104448000D03*
X128136000Y-104448000D03*
%TD*%
D44*
%TO.C,U8*%
X118730000Y-136060000D03*
X118730000Y-97060000D03*
D45*
X115730000Y-101560000D03*
X95730000Y-131560000D03*
D44*
X92730000Y-136060000D03*
X92730000Y-97060000D03*
D46*
X108646000Y-113016000D03*
X108646000Y-113518000D03*
X108646000Y-114020000D03*
X108646000Y-114522000D03*
X108646000Y-115024000D03*
X108646000Y-115526000D03*
X108646000Y-116028000D03*
X108646000Y-116530000D03*
X108646000Y-117032000D03*
X108646000Y-117534000D03*
X108646000Y-118036000D03*
X108646000Y-118538000D03*
X108646000Y-119040000D03*
X108646000Y-119542000D03*
X108646000Y-120044000D03*
X102814000Y-120044000D03*
X102814000Y-119542000D03*
X102814000Y-119040000D03*
X102814000Y-118538000D03*
X102814000Y-118036000D03*
X102814000Y-117534000D03*
X102814000Y-117032000D03*
X102814000Y-116530000D03*
X102814000Y-116028000D03*
X102814000Y-115526000D03*
X102814000Y-115024000D03*
X102814000Y-114522000D03*
X102814000Y-114020000D03*
X102814000Y-113518000D03*
X102814000Y-113016000D03*
%TD*%
D29*
%TO.C,FID5*%
X125270000Y-50310000D03*
%TD*%
D43*
%TO.C,SW2*%
X132142000Y-113155000D03*
X128032000Y-113155000D03*
%TD*%
D29*
%TO.C,FID6*%
X78750000Y-55900000D03*
%TD*%
%LPD*%
M02*
