%TF.GenerationSoftware,KiCad,Pcbnew,9.0.1*%
%TF.CreationDate,2026-01-28T17:12:30+08:00*%
%TF.ProjectId,bitaxeUltra,62697461-7865-4556-9c74-72612e6b6963,rev?*%
%TF.SameCoordinates,Original*%
%TF.FileFunction,Copper,L4,Bot*%
%TF.FilePolarity,Positive*%
%FSLAX46Y46*%
G04 Gerber Fmt 4.6, Leading zero omitted, Abs format (unit mm)*
G04 Created by KiCad (PCBNEW 9.0.1) date 2026-01-28 17:12:30*
%MOMM*%
%LPD*%
G01*
G04 APERTURE LIST*
G04 Aperture macros list*
%AMRoundRect*
0 Rectangle with rounded corners*
0 $1 Rounding radius*
0 $2 $3 $4 $5 $6 $7 $8 $9 X,Y pos of 4 corners*
0 Add a 4 corners polygon primitive as box body*
4,1,4,$2,$3,$4,$5,$6,$7,$8,$9,$2,$3,0*
0 Add four circle primitives for the rounded corners*
1,1,$1+$1,$2,$3*
1,1,$1+$1,$4,$5*
1,1,$1+$1,$6,$7*
1,1,$1+$1,$8,$9*
0 Add four rect primitives between the rounded corners*
20,1,$1+$1,$2,$3,$4,$5,0*
20,1,$1+$1,$4,$5,$6,$7,0*
20,1,$1+$1,$6,$7,$8,$9,0*
20,1,$1+$1,$8,$9,$2,$3,0*%
G04 Aperture macros list end*
%TA.AperFunction,EtchedComponent*%
%ADD10C,0.000000*%
%TD*%
%TA.AperFunction,ComponentPad*%
%ADD11C,0.800000*%
%TD*%
%TA.AperFunction,ComponentPad*%
%ADD12C,6.000000*%
%TD*%
%TA.AperFunction,ComponentPad*%
%ADD13R,1.700000X1.700000*%
%TD*%
%TA.AperFunction,ComponentPad*%
%ADD14O,1.700000X1.700000*%
%TD*%
%TA.AperFunction,ComponentPad*%
%ADD15C,0.400000*%
%TD*%
%TA.AperFunction,ComponentPad*%
%ADD16C,1.574800*%
%TD*%
%TA.AperFunction,ComponentPad*%
%ADD17C,1.700000*%
%TD*%
%TA.AperFunction,SMDPad,CuDef*%
%ADD18C,1.000000*%
%TD*%
%TA.AperFunction,SMDPad,CuDef*%
%ADD19RoundRect,0.055250X0.340750X0.055250X-0.340750X0.055250X-0.340750X-0.055250X0.340750X-0.055250X0*%
%TD*%
%TA.AperFunction,SMDPad,CuDef*%
%ADD20R,4.277000X1.810000*%
%TD*%
%TA.AperFunction,SMDPad,CuDef*%
%ADD21R,4.277000X4.530000*%
%TD*%
%TA.AperFunction,SMDPad,CuDef*%
%ADD22RoundRect,0.150000X0.425000X-0.150000X0.425000X0.150000X-0.425000X0.150000X-0.425000X-0.150000X0*%
%TD*%
%TA.AperFunction,SMDPad,CuDef*%
%ADD23RoundRect,0.075000X0.500000X-0.075000X0.500000X0.075000X-0.500000X0.075000X-0.500000X-0.075000X0*%
%TD*%
%TA.AperFunction,ComponentPad*%
%ADD24O,1.800000X1.000000*%
%TD*%
%TA.AperFunction,ComponentPad*%
%ADD25O,2.100000X1.000000*%
%TD*%
%TA.AperFunction,SMDPad,CuDef*%
%ADD26R,0.900000X1.500000*%
%TD*%
%TA.AperFunction,SMDPad,CuDef*%
%ADD27R,1.500000X0.900000*%
%TD*%
%TA.AperFunction,SMDPad,CuDef*%
%ADD28R,0.900000X0.900000*%
%TD*%
%TA.AperFunction,ConnectorPad*%
%ADD29C,0.787400*%
%TD*%
%TA.AperFunction,SMDPad,CuDef*%
%ADD30R,2.000000X2.000000*%
%TD*%
%TA.AperFunction,SMDPad,CuDef*%
%ADD31R,0.900000X1.800000*%
%TD*%
%TA.AperFunction,ViaPad*%
%ADD32C,0.800000*%
%TD*%
%TA.AperFunction,ViaPad*%
%ADD33C,1.000000*%
%TD*%
%TA.AperFunction,ViaPad*%
%ADD34C,0.500000*%
%TD*%
%TA.AperFunction,ViaPad*%
%ADD35C,1.200000*%
%TD*%
%TA.AperFunction,Conductor*%
%ADD36C,0.254000*%
%TD*%
%TA.AperFunction,Conductor*%
%ADD37C,0.508000*%
%TD*%
%TA.AperFunction,Conductor*%
%ADD38C,1.000000*%
%TD*%
%TA.AperFunction,Conductor*%
%ADD39C,0.200000*%
%TD*%
G04 APERTURE END LIST*
D10*
%TA.AperFunction,EtchedComponent*%
%TO.C,G\u002A\u002A\u002A*%
G36*
X106932410Y-144824946D02*
G01*
X106932410Y-145041578D01*
X106580385Y-145041578D01*
X106228359Y-145041578D01*
X106228359Y-145583155D01*
X106228359Y-146124733D01*
X105984649Y-146124733D01*
X105740939Y-146124733D01*
X105740939Y-145583155D01*
X105740939Y-145041578D01*
X105388913Y-145041578D01*
X105036888Y-145041578D01*
X105036888Y-144824946D01*
X105036888Y-144608315D01*
X105984649Y-144608315D01*
X106932410Y-144608315D01*
X106932410Y-144824946D01*
G37*
%TD.AperFunction*%
%TA.AperFunction,EtchedComponent*%
G36*
X109031024Y-142777523D02*
G01*
X109288274Y-142794030D01*
X109303565Y-143467998D01*
X109303874Y-143481925D01*
X109307360Y-143744862D01*
X109306140Y-143970263D01*
X109300606Y-144134554D01*
X109291152Y-144214161D01*
X109262598Y-144240692D01*
X109181797Y-144261038D01*
X109035719Y-144272246D01*
X108810074Y-144275334D01*
X108490573Y-144271323D01*
X107717698Y-144256290D01*
X107700889Y-144053198D01*
X107684081Y-143850106D01*
X108228928Y-143850106D01*
X108773775Y-143850106D01*
X108773775Y-143305561D01*
X108773775Y-142761016D01*
X109031024Y-142777523D01*
G37*
%TD.AperFunction*%
%TA.AperFunction,EtchedComponent*%
G36*
X118847122Y-145038464D02*
G01*
X118847561Y-145102437D01*
X118854753Y-145292299D01*
X118868938Y-145424935D01*
X118887741Y-145474811D01*
X118923911Y-145450023D01*
X119020891Y-145359316D01*
X119159999Y-145217656D01*
X119324592Y-145041549D01*
X119445064Y-144910351D01*
X119585384Y-144764095D01*
X119688292Y-144674835D01*
X119775336Y-144628499D01*
X119868064Y-144611016D01*
X119988025Y-144608315D01*
X120255225Y-144608315D01*
X120255225Y-145369638D01*
X120255225Y-146130961D01*
X120025054Y-146114308D01*
X119794883Y-146097654D01*
X119767805Y-145670998D01*
X119740726Y-145244342D01*
X119341345Y-145687134D01*
X118941964Y-146129927D01*
X118664373Y-146113790D01*
X118386781Y-146097654D01*
X118386781Y-145366524D01*
X118386781Y-144635394D01*
X118616952Y-144618741D01*
X118847122Y-144602087D01*
X118847122Y-145038464D01*
G37*
%TD.AperFunction*%
%TA.AperFunction,EtchedComponent*%
G36*
X124614666Y-143866969D02*
G01*
X124680934Y-143955407D01*
X124775723Y-144101199D01*
X124884922Y-144280379D01*
X124994419Y-144468982D01*
X125090102Y-144643044D01*
X125157861Y-144778598D01*
X125183583Y-144851680D01*
X125168443Y-144898903D01*
X125109146Y-145023573D01*
X125018342Y-145195469D01*
X124910426Y-145388933D01*
X124799791Y-145578307D01*
X124700831Y-145737933D01*
X124627939Y-145842155D01*
X124591538Y-145866379D01*
X124480038Y-145889828D01*
X124287806Y-145899417D01*
X124001359Y-145896313D01*
X123431039Y-145881023D01*
X123146982Y-145420682D01*
X123068877Y-145291752D01*
X122961889Y-145106053D01*
X122887657Y-144965269D01*
X122858862Y-144892644D01*
X122881811Y-144863127D01*
X122974478Y-144840905D01*
X123150045Y-144828683D01*
X123421107Y-144824946D01*
X123987416Y-144824946D01*
X124274092Y-144338819D01*
X124364979Y-144187493D01*
X124473989Y-144014227D01*
X124554822Y-143895659D01*
X124594584Y-143851399D01*
X124614666Y-143866969D01*
G37*
%TD.AperFunction*%
%TA.AperFunction,EtchedComponent*%
G36*
X109842215Y-145038755D02*
G01*
X109851423Y-145053694D01*
X109975313Y-145252879D01*
X110064517Y-145370096D01*
X110138044Y-145403752D01*
X110214905Y-145352254D01*
X110314111Y-145214007D01*
X110454671Y-144987420D01*
X110551501Y-144833686D01*
X110644947Y-144707560D01*
X110730094Y-144640704D01*
X110833246Y-144614204D01*
X110980704Y-144609145D01*
X111210875Y-144608315D01*
X111210875Y-145369638D01*
X111210875Y-146130961D01*
X110980704Y-146114308D01*
X110750534Y-146097654D01*
X110723455Y-145772708D01*
X110696376Y-145447761D01*
X110479745Y-145772708D01*
X110443041Y-145827006D01*
X110299169Y-146013877D01*
X110179777Y-146103132D01*
X110067359Y-146095196D01*
X109944413Y-145990497D01*
X109793435Y-145789463D01*
X109559063Y-145447761D01*
X109542939Y-145786247D01*
X109526815Y-146124733D01*
X109284161Y-146124733D01*
X109041507Y-146124733D01*
X109056575Y-145380064D01*
X109071643Y-144635394D01*
X109322464Y-144619150D01*
X109573285Y-144602906D01*
X109842215Y-145038755D01*
G37*
%TD.AperFunction*%
%TA.AperFunction,EtchedComponent*%
G36*
X123746589Y-142781110D02*
G01*
X123886993Y-142793938D01*
X123937954Y-142813636D01*
X123921722Y-142848422D01*
X123857768Y-142965939D01*
X123752463Y-143153159D01*
X123613492Y-143396855D01*
X123448544Y-143683796D01*
X123265305Y-144000755D01*
X123071462Y-144334502D01*
X122874702Y-144671808D01*
X122682713Y-144999445D01*
X122503181Y-145304184D01*
X122343795Y-145572795D01*
X122212240Y-145792050D01*
X122116204Y-145948720D01*
X122096992Y-145977394D01*
X122052812Y-146020645D01*
X121983705Y-146047950D01*
X121868825Y-146062946D01*
X121687327Y-146069275D01*
X121418368Y-146070575D01*
X121187900Y-146069004D01*
X120984891Y-146064325D01*
X120847392Y-146057288D01*
X120796802Y-146048646D01*
X120815791Y-146012429D01*
X120884307Y-145892606D01*
X120996746Y-145699575D01*
X121146792Y-145444088D01*
X121328129Y-145136892D01*
X121534442Y-144788738D01*
X121759415Y-144410373D01*
X122722028Y-142794030D01*
X123329991Y-142778716D01*
X123535458Y-142776226D01*
X123746589Y-142781110D01*
G37*
%TD.AperFunction*%
%TA.AperFunction,EtchedComponent*%
G36*
X104938432Y-145693545D02*
G01*
X104828728Y-145896757D01*
X104647055Y-146034137D01*
X104548077Y-146070914D01*
X104320579Y-146113140D01*
X104053096Y-146128579D01*
X103781970Y-146117675D01*
X103543545Y-146080871D01*
X103374165Y-146018610D01*
X103309309Y-145973699D01*
X103138758Y-145777765D01*
X103047867Y-145532130D01*
X103045660Y-145423634D01*
X103540046Y-145423634D01*
X103603546Y-145561753D01*
X103767659Y-145669336D01*
X103937470Y-145727262D01*
X104106495Y-145736246D01*
X104273363Y-145677133D01*
X104404171Y-145587888D01*
X104484351Y-145448143D01*
X104464989Y-145274606D01*
X104443212Y-145226574D01*
X104320794Y-145103070D01*
X104145579Y-145037608D01*
X103948700Y-145032471D01*
X103761288Y-145089938D01*
X103614472Y-145212292D01*
X103580346Y-145264488D01*
X103540046Y-145423634D01*
X103045660Y-145423634D01*
X103042347Y-145260709D01*
X103127910Y-144987420D01*
X103223844Y-144844461D01*
X103404632Y-144709702D01*
X103657846Y-144632849D01*
X103996090Y-144608400D01*
X104005836Y-144608412D01*
X104370671Y-144636507D01*
X104645845Y-144720953D01*
X104836292Y-144865454D01*
X104946942Y-145073714D01*
X104982730Y-145349439D01*
X104981601Y-145413417D01*
X104976250Y-145448143D01*
X104938432Y-145693545D01*
G37*
%TD.AperFunction*%
%TA.AperFunction,EtchedComponent*%
G36*
X111102559Y-143489055D02*
G01*
X111102426Y-143550216D01*
X111098654Y-143812903D01*
X111090470Y-144031040D01*
X111078925Y-144183374D01*
X111065066Y-144248652D01*
X111050411Y-144254133D01*
X110947014Y-144264967D01*
X110763865Y-144271794D01*
X110521175Y-144274062D01*
X110239160Y-144271217D01*
X109450747Y-144256290D01*
X109433915Y-144082143D01*
X109417084Y-143907995D01*
X109998166Y-143892590D01*
X110162503Y-143886901D01*
X110402735Y-143870043D01*
X110546566Y-143844593D01*
X110601707Y-143809488D01*
X110593055Y-143781710D01*
X110520561Y-143758125D01*
X110366936Y-143745180D01*
X110118693Y-143740962D01*
X110002570Y-143739590D01*
X109787894Y-143730428D01*
X109624617Y-143714623D01*
X109541186Y-143694467D01*
X109496868Y-143623723D01*
X109487029Y-143492204D01*
X109504905Y-143335607D01*
X110063889Y-143320131D01*
X110293497Y-143311131D01*
X110480130Y-143294993D01*
X110578935Y-143271476D01*
X110601061Y-143238894D01*
X110590647Y-143225518D01*
X110495526Y-143193761D01*
X110300475Y-143171358D01*
X110001458Y-143157762D01*
X109423668Y-143142391D01*
X109423668Y-142954671D01*
X109423668Y-142766951D01*
X110263114Y-142766951D01*
X111102559Y-142766951D01*
X111102559Y-143489055D01*
G37*
%TD.AperFunction*%
%TA.AperFunction,EtchedComponent*%
G36*
X108927747Y-145429933D02*
G01*
X108875656Y-145669778D01*
X108752116Y-145878073D01*
X108557144Y-146029873D01*
X108524283Y-146044403D01*
X108325138Y-146094686D01*
X108068476Y-146121160D01*
X107793749Y-146123142D01*
X107540414Y-146099946D01*
X107347924Y-146050885D01*
X107324957Y-146040813D01*
X107128440Y-145896492D01*
X107009647Y-145678868D01*
X106967164Y-145385467D01*
X106967504Y-145330913D01*
X106973473Y-145297342D01*
X107483483Y-145297342D01*
X107486364Y-145460513D01*
X107575586Y-145604155D01*
X107700875Y-145675782D01*
X107859915Y-145719072D01*
X108047669Y-145718940D01*
X108233890Y-145658873D01*
X108360495Y-145549396D01*
X108415844Y-145408207D01*
X108388292Y-145253002D01*
X108266199Y-145101481D01*
X108138730Y-145049152D01*
X107955028Y-145034572D01*
X107763125Y-145057798D01*
X107609615Y-145117682D01*
X107564169Y-145154321D01*
X107483483Y-145297342D01*
X106973473Y-145297342D01*
X107014816Y-145064804D01*
X107145817Y-144860654D01*
X107369522Y-144703176D01*
X107552836Y-144642958D01*
X107812804Y-144609351D01*
X108094825Y-144609041D01*
X108357139Y-144641872D01*
X108557989Y-144707684D01*
X108655168Y-144770516D01*
X108817519Y-144955359D01*
X108908373Y-145183479D01*
X108926039Y-145408207D01*
X108927747Y-145429933D01*
G37*
%TD.AperFunction*%
%TA.AperFunction,EtchedComponent*%
G36*
X115251089Y-143625415D02*
G01*
X115388051Y-143858636D01*
X115497927Y-144050687D01*
X115570996Y-144184437D01*
X115597541Y-144242750D01*
X115586327Y-144254915D01*
X115499057Y-144275309D01*
X115353587Y-144283369D01*
X115239529Y-144278469D01*
X115099987Y-144239842D01*
X114991795Y-144147974D01*
X114950081Y-144103313D01*
X114881197Y-144054172D01*
X114785743Y-144026867D01*
X114636484Y-144015102D01*
X114406184Y-144012580D01*
X114251121Y-144013414D01*
X114074722Y-144020983D01*
X113962322Y-144041734D01*
X113886683Y-144081966D01*
X113820573Y-144147974D01*
X113799930Y-144170566D01*
X113669573Y-144258521D01*
X113489056Y-144283369D01*
X113447059Y-144282451D01*
X113313894Y-144265855D01*
X113245376Y-144235010D01*
X113247114Y-144213690D01*
X113288663Y-144111305D01*
X113373034Y-143942629D01*
X113491371Y-143724929D01*
X113543962Y-143633475D01*
X114126561Y-143633475D01*
X114374688Y-143633475D01*
X114451465Y-143631473D01*
X114574259Y-143616902D01*
X114622613Y-143592857D01*
X114603879Y-143538256D01*
X114549412Y-143435024D01*
X114480437Y-143322047D01*
X114418612Y-143234522D01*
X114385592Y-143207645D01*
X114377234Y-143220240D01*
X114326228Y-143302486D01*
X114248698Y-143430384D01*
X114126561Y-143633475D01*
X113543962Y-143633475D01*
X113634823Y-143475471D01*
X114054158Y-142764291D01*
X114403471Y-142779160D01*
X114752783Y-142794030D01*
X115175105Y-143498081D01*
X115231661Y-143592857D01*
X115251089Y-143625415D01*
G37*
%TD.AperFunction*%
%TA.AperFunction,EtchedComponent*%
G36*
X117988465Y-145652865D02*
G01*
X118097895Y-145851093D01*
X118170758Y-145992859D01*
X118197229Y-146060103D01*
X118195903Y-146070459D01*
X118136898Y-146115485D01*
X118015648Y-146129905D01*
X117867168Y-146116407D01*
X117726472Y-146077681D01*
X117628572Y-146016418D01*
X117603396Y-145991103D01*
X117535077Y-145948175D01*
X117432274Y-145922972D01*
X117270409Y-145911085D01*
X117024902Y-145908102D01*
X116870151Y-145908880D01*
X116681600Y-145915577D01*
X116564432Y-145932815D01*
X116495489Y-145964970D01*
X116451611Y-146016418D01*
X116407277Y-146068189D01*
X116303365Y-146112429D01*
X116126206Y-146124733D01*
X116044628Y-146121973D01*
X115917481Y-146101620D01*
X115868444Y-146067069D01*
X115890362Y-146008813D01*
X115958415Y-145875488D01*
X116060601Y-145690027D01*
X116183750Y-145474840D01*
X116779156Y-145474840D01*
X117026975Y-145474840D01*
X117274794Y-145474840D01*
X117183922Y-145284278D01*
X117128763Y-145183971D01*
X117055427Y-145122449D01*
X116977196Y-145161881D01*
X116879414Y-145303175D01*
X116779156Y-145474840D01*
X116183750Y-145474840D01*
X116184645Y-145473276D01*
X116318271Y-145246080D01*
X116449203Y-145029285D01*
X116565166Y-144843736D01*
X116653883Y-144710280D01*
X116703078Y-144649763D01*
X116752493Y-144633736D01*
X116888768Y-144616269D01*
X117067228Y-144609145D01*
X117372407Y-144608315D01*
X117784818Y-145301894D01*
X117852291Y-145416238D01*
X117886015Y-145474840D01*
X117988465Y-145652865D01*
G37*
%TD.AperFunction*%
%TA.AperFunction,EtchedComponent*%
G36*
X114251201Y-144610559D02*
G01*
X114418672Y-144619293D01*
X114545636Y-144652033D01*
X114672445Y-144724917D01*
X114839446Y-144854084D01*
X115137314Y-145095722D01*
X115164393Y-144865558D01*
X115191472Y-144635394D01*
X115435182Y-144635394D01*
X115678892Y-144635394D01*
X115694183Y-145309362D01*
X115694486Y-145322989D01*
X115697924Y-145586161D01*
X115696570Y-145812013D01*
X115690838Y-145976897D01*
X115681139Y-146057170D01*
X115677671Y-146064653D01*
X115596624Y-146110263D01*
X115422138Y-146114332D01*
X115375521Y-146110656D01*
X115251717Y-146089129D01*
X115195316Y-146038464D01*
X115173765Y-145935181D01*
X115170006Y-145903793D01*
X115136584Y-145770111D01*
X115074913Y-145725659D01*
X114972192Y-145769155D01*
X114815625Y-145899318D01*
X114677687Y-146020084D01*
X114562357Y-146090385D01*
X114433497Y-146119187D01*
X114244921Y-146124733D01*
X114095945Y-146120212D01*
X113968446Y-146105497D01*
X113919819Y-146084115D01*
X113929856Y-146066635D01*
X114003392Y-145988562D01*
X114132640Y-145868168D01*
X114298923Y-145723233D01*
X114384614Y-145649642D01*
X114534638Y-145515147D01*
X114638290Y-145414295D01*
X114676973Y-145364720D01*
X114667326Y-145348119D01*
X114594146Y-145271932D01*
X114464739Y-145153611D01*
X114297869Y-145010681D01*
X114213340Y-144939177D01*
X114062223Y-144804950D01*
X113957763Y-144703155D01*
X113918764Y-144651603D01*
X113949838Y-144633015D01*
X114062875Y-144616094D01*
X114230171Y-144610381D01*
X114251201Y-144610559D01*
G37*
%TD.AperFunction*%
%TA.AperFunction,EtchedComponent*%
G36*
X113409573Y-145466855D02*
G01*
X113546597Y-145700050D01*
X113656520Y-145892077D01*
X113729621Y-146025809D01*
X113756176Y-146084115D01*
X113738094Y-146098700D01*
X113640281Y-146117413D01*
X113485961Y-146124733D01*
X113336960Y-146118246D01*
X113218283Y-146085761D01*
X113147987Y-146016418D01*
X113118694Y-145978036D01*
X113060757Y-145941262D01*
X112962343Y-145920094D01*
X112800855Y-145910414D01*
X112553697Y-145908102D01*
X112356811Y-145909290D01*
X112178391Y-145916559D01*
X112069089Y-145934097D01*
X112006716Y-145966012D01*
X111969084Y-146016418D01*
X111918330Y-146077883D01*
X111817841Y-146114785D01*
X111642232Y-146124733D01*
X111546501Y-146121968D01*
X111422055Y-146106773D01*
X111373348Y-146082745D01*
X111380019Y-146064122D01*
X111430613Y-145965768D01*
X111522791Y-145800495D01*
X111646845Y-145585524D01*
X111729843Y-145445072D01*
X112348188Y-145445072D01*
X112353677Y-145451723D01*
X112429105Y-145468231D01*
X112564819Y-145474840D01*
X112613225Y-145474086D01*
X112733356Y-145463721D01*
X112781451Y-145445072D01*
X112781206Y-145439881D01*
X112750685Y-145351927D01*
X112687191Y-145237425D01*
X112616608Y-145138115D01*
X112564819Y-145095735D01*
X112561600Y-145096131D01*
X112507059Y-145145348D01*
X112436053Y-145247737D01*
X112374469Y-145361558D01*
X112348188Y-145445072D01*
X111729843Y-145445072D01*
X111793071Y-145338075D01*
X112212794Y-144635394D01*
X112561866Y-144635394D01*
X112910939Y-144635394D01*
X113333500Y-145339445D01*
X113396567Y-145445072D01*
X113409573Y-145466855D01*
G37*
%TD.AperFunction*%
%TA.AperFunction,EtchedComponent*%
G36*
X113052240Y-143525160D02*
G01*
X113052240Y-143759843D01*
X113052240Y-144283369D01*
X112356270Y-144283369D01*
X112342149Y-144283356D01*
X112062338Y-144278304D01*
X111808521Y-144265384D01*
X111608131Y-144246490D01*
X111488602Y-144223514D01*
X111469591Y-144216469D01*
X111302384Y-144102848D01*
X111218106Y-143942003D01*
X111222833Y-143784400D01*
X111726109Y-143784400D01*
X111795733Y-143844285D01*
X111816866Y-143853598D01*
X111944559Y-143882448D01*
X112117711Y-143899571D01*
X112298200Y-143903725D01*
X112447908Y-143893668D01*
X112528714Y-143868159D01*
X112540763Y-143851952D01*
X112564819Y-143759843D01*
X112564518Y-143754834D01*
X112524967Y-143715581D01*
X112408298Y-143694450D01*
X112199254Y-143688462D01*
X112113126Y-143689563D01*
X111889877Y-143705081D01*
X111759180Y-143737346D01*
X111726109Y-143784400D01*
X111222833Y-143784400D01*
X111223549Y-143760527D01*
X111325507Y-143585014D01*
X111340100Y-143568979D01*
X111402314Y-143470765D01*
X111379665Y-143401497D01*
X111334791Y-143330523D01*
X111325205Y-143251075D01*
X111818155Y-143251075D01*
X111853915Y-143284686D01*
X111970416Y-143302991D01*
X112181202Y-143308529D01*
X112320740Y-143306928D01*
X112470027Y-143295672D01*
X112544543Y-143269795D01*
X112564819Y-143224817D01*
X112558735Y-143195163D01*
X112512010Y-143164014D01*
X112400825Y-143152683D01*
X112203571Y-143157120D01*
X112051094Y-143168237D01*
X111887807Y-143198008D01*
X111819953Y-143240831D01*
X111818155Y-143251075D01*
X111325205Y-143251075D01*
X111316059Y-143175281D01*
X111360691Y-143010448D01*
X111461889Y-142879197D01*
X111501311Y-142850517D01*
X111574876Y-142813252D01*
X111673581Y-142788956D01*
X111818213Y-142774936D01*
X112029561Y-142768498D01*
X112328413Y-142766951D01*
X113052240Y-142766951D01*
X113052240Y-143224817D01*
X113052240Y-143525160D01*
G37*
%TD.AperFunction*%
%TA.AperFunction,EtchedComponent*%
G36*
X100896717Y-90872242D02*
G01*
X100896717Y-92210854D01*
X99644418Y-92210854D01*
X98392119Y-92210854D01*
X98091685Y-91910395D01*
X97791251Y-91609936D01*
X98940382Y-91609936D01*
X100089514Y-91609936D01*
X100089514Y-91378986D01*
X100089514Y-91148036D01*
X99361896Y-91148036D01*
X98634277Y-91148036D01*
X98362995Y-90876726D01*
X98091713Y-90605416D01*
X99090613Y-90605416D01*
X100089514Y-90605416D01*
X100089514Y-90367740D01*
X100089514Y-90130063D01*
X99189258Y-90129625D01*
X98289002Y-90129188D01*
X97993455Y-89831409D01*
X97697908Y-89533630D01*
X99297312Y-89533630D01*
X100896717Y-89533630D01*
X100896717Y-90872242D01*
G37*
%TD.AperFunction*%
%TA.AperFunction,EtchedComponent*%
G36*
X111852261Y-90872217D02*
G01*
X111852261Y-91603185D01*
X111548451Y-91907020D01*
X111244641Y-92210854D01*
X110132494Y-92210854D01*
X109020347Y-92210854D01*
X108716512Y-91907044D01*
X108412677Y-91603234D01*
X108412677Y-90872267D01*
X108412677Y-90141299D01*
X108423912Y-90130063D01*
X109219881Y-90130063D01*
X109219881Y-90870000D01*
X109219881Y-91609936D01*
X110132469Y-91609936D01*
X111045057Y-91609936D01*
X111045057Y-90870000D01*
X111045057Y-90130063D01*
X110132469Y-90130063D01*
X109219881Y-90130063D01*
X108423912Y-90130063D01*
X108716487Y-89837464D01*
X109020298Y-89533630D01*
X110132444Y-89533630D01*
X111244591Y-89533630D01*
X111548426Y-89837440D01*
X111852261Y-90141250D01*
X111852261Y-90870000D01*
X111852261Y-90872217D01*
G37*
%TD.AperFunction*%
%TA.AperFunction,EtchedComponent*%
G36*
X89703497Y-89304222D02*
G01*
X90104856Y-89536170D01*
X90106004Y-90867907D01*
X90106006Y-90869362D01*
X90106092Y-90978092D01*
X90106163Y-91084510D01*
X90106218Y-91188266D01*
X90106258Y-91289008D01*
X90106282Y-91386388D01*
X90106292Y-91480053D01*
X90106288Y-91569655D01*
X90106269Y-91654843D01*
X90106236Y-91735266D01*
X90106190Y-91810574D01*
X90106130Y-91880416D01*
X90106056Y-91944443D01*
X90105970Y-92002304D01*
X90105871Y-92053648D01*
X90105759Y-92098125D01*
X90105636Y-92135386D01*
X90105500Y-92165079D01*
X90105353Y-92186854D01*
X90105194Y-92200360D01*
X90105024Y-92205249D01*
X90104849Y-92205410D01*
X90102171Y-92205981D01*
X90096097Y-92206513D01*
X90086361Y-92207008D01*
X90072698Y-92207467D01*
X90054842Y-92207890D01*
X90032528Y-92208279D01*
X90005491Y-92208635D01*
X89973465Y-92208960D01*
X89936185Y-92209254D01*
X89893386Y-92209520D01*
X89844802Y-92209757D01*
X89790168Y-92209967D01*
X89729219Y-92210152D01*
X89661689Y-92210312D01*
X89587312Y-92210449D01*
X89505825Y-92210563D01*
X89416960Y-92210657D01*
X89320453Y-92210731D01*
X89216039Y-92210787D01*
X89103452Y-92210825D01*
X88982427Y-92210847D01*
X88852698Y-92210854D01*
X87602501Y-92210854D01*
X87302067Y-91910395D01*
X87001633Y-91609936D01*
X88150756Y-91609936D01*
X89299879Y-91609936D01*
X89301008Y-90341105D01*
X89302137Y-89072273D01*
X89703497Y-89304222D01*
G37*
%TD.AperFunction*%
%TA.AperFunction,EtchedComponent*%
G36*
X120592480Y-90069523D02*
G01*
X120592480Y-90605416D01*
X121390714Y-90605416D01*
X122188949Y-90605416D01*
X122188949Y-90069523D01*
X122188949Y-89533630D01*
X122592550Y-89533630D01*
X122996152Y-89533630D01*
X122996152Y-91100950D01*
X122996148Y-91186314D01*
X122996130Y-91302682D01*
X122996098Y-91416504D01*
X122996052Y-91527460D01*
X122995993Y-91635227D01*
X122995921Y-91739484D01*
X122995838Y-91839911D01*
X122995743Y-91936187D01*
X122995637Y-92027989D01*
X122995521Y-92114998D01*
X122995394Y-92196891D01*
X122995259Y-92273348D01*
X122995115Y-92344048D01*
X122994962Y-92408669D01*
X122994802Y-92466890D01*
X122994634Y-92518390D01*
X122994460Y-92562849D01*
X122994280Y-92599944D01*
X122994095Y-92629355D01*
X122993904Y-92650760D01*
X122993709Y-92663839D01*
X122993510Y-92668270D01*
X122990925Y-92666963D01*
X122981061Y-92661564D01*
X122964321Y-92652253D01*
X122941225Y-92639321D01*
X122912290Y-92623062D01*
X122878038Y-92603769D01*
X122838986Y-92581734D01*
X122795655Y-92557251D01*
X122748563Y-92530611D01*
X122698229Y-92502108D01*
X122645174Y-92472034D01*
X122589915Y-92440683D01*
X122188962Y-92213096D01*
X122188955Y-91680566D01*
X122188949Y-91148036D01*
X121390714Y-91148036D01*
X120592480Y-91148036D01*
X120592480Y-91679445D01*
X120592480Y-92210854D01*
X120188878Y-92210854D01*
X119785276Y-92210854D01*
X119785276Y-90872242D01*
X119785276Y-89533630D01*
X120188878Y-89533630D01*
X120592480Y-89533630D01*
X120592480Y-90069523D01*
G37*
%TD.AperFunction*%
%TA.AperFunction,EtchedComponent*%
G36*
X95811934Y-89534287D02*
G01*
X95944257Y-89534318D01*
X96073790Y-89534366D01*
X96199297Y-89534433D01*
X96319542Y-89534517D01*
X96433290Y-89534620D01*
X96539305Y-89534740D01*
X97432469Y-89535872D01*
X97136573Y-89832968D01*
X96840677Y-90130063D01*
X96444845Y-90130063D01*
X96049012Y-90130063D01*
X96048932Y-91169338D01*
X96048851Y-92208612D01*
X95648693Y-92438166D01*
X95605728Y-92462804D01*
X95552229Y-92493455D01*
X95501318Y-92522593D01*
X95453514Y-92549923D01*
X95409335Y-92575148D01*
X95369300Y-92597975D01*
X95333928Y-92618106D01*
X95303739Y-92635247D01*
X95279250Y-92649102D01*
X95260982Y-92659375D01*
X95249452Y-92665772D01*
X95245180Y-92667995D01*
X95245027Y-92666719D01*
X95244742Y-92657640D01*
X95244456Y-92640141D01*
X95244170Y-92614580D01*
X95243886Y-92581312D01*
X95243605Y-92540695D01*
X95243328Y-92493085D01*
X95243057Y-92438841D01*
X95242793Y-92378318D01*
X95242536Y-92311874D01*
X95242290Y-92239866D01*
X95242053Y-92162650D01*
X95241829Y-92080583D01*
X95241617Y-91994023D01*
X95241420Y-91903327D01*
X95241239Y-91808850D01*
X95241075Y-91710951D01*
X95240928Y-91609987D01*
X95240802Y-91506313D01*
X95240696Y-91400288D01*
X95239567Y-90132306D01*
X94841981Y-90131160D01*
X94444396Y-90130015D01*
X94149755Y-89832943D01*
X93855113Y-89535872D01*
X94750627Y-89534740D01*
X94801198Y-89534679D01*
X94911354Y-89534568D01*
X95028607Y-89534474D01*
X95151719Y-89534398D01*
X95279456Y-89534340D01*
X95410582Y-89534300D01*
X95543861Y-89534278D01*
X95678057Y-89534273D01*
X95811934Y-89534287D01*
G37*
%TD.AperFunction*%
%TA.AperFunction,EtchedComponent*%
G36*
X119211265Y-91169313D02*
G01*
X119211265Y-92206370D01*
X118858114Y-92206390D01*
X118849747Y-92206391D01*
X118792992Y-92206442D01*
X118737903Y-92206563D01*
X118685290Y-92206747D01*
X118635965Y-92206988D01*
X118590739Y-92207282D01*
X118550425Y-92207621D01*
X118515834Y-92208000D01*
X118487777Y-92208413D01*
X118467066Y-92208854D01*
X118454512Y-92209318D01*
X118404062Y-92212225D01*
X118404062Y-91828118D01*
X118404062Y-91444011D01*
X117590132Y-91444011D01*
X116776201Y-91444011D01*
X116776151Y-91828554D01*
X116776100Y-92213096D01*
X116375912Y-92440400D01*
X116333658Y-92464391D01*
X116280063Y-92494795D01*
X116229055Y-92523700D01*
X116181156Y-92550815D01*
X116136886Y-92575843D01*
X116096766Y-92598493D01*
X116061317Y-92618471D01*
X116031059Y-92635482D01*
X116006514Y-92649232D01*
X115988202Y-92659429D01*
X115976644Y-92665779D01*
X115972361Y-92667987D01*
X115972205Y-92666628D01*
X115971931Y-92657401D01*
X115971667Y-92639760D01*
X115971415Y-92614061D01*
X115971173Y-92580661D01*
X115970945Y-92539917D01*
X115970729Y-92492185D01*
X115970528Y-92437821D01*
X115970342Y-92377184D01*
X115970172Y-92310628D01*
X115970018Y-92238511D01*
X115969881Y-92161189D01*
X115969762Y-92079020D01*
X115969663Y-91992359D01*
X115969583Y-91901563D01*
X115969524Y-91806989D01*
X115969486Y-91708994D01*
X115969470Y-91607934D01*
X115969477Y-91504165D01*
X115969508Y-91398045D01*
X115970017Y-90130039D01*
X116776201Y-90130039D01*
X116776201Y-90491050D01*
X116776201Y-90852062D01*
X117590158Y-90852062D01*
X118404115Y-90852062D01*
X118402967Y-90492184D01*
X118401819Y-90132306D01*
X117589010Y-90131172D01*
X116776201Y-90130039D01*
X115970017Y-90130039D01*
X115970018Y-90127821D01*
X116271688Y-89830725D01*
X116573357Y-89533630D01*
X117588489Y-89533808D01*
X118603620Y-89533986D01*
X118907443Y-89833121D01*
X119211265Y-90132256D01*
X119211265Y-90852062D01*
X119211265Y-91169313D01*
G37*
%TD.AperFunction*%
%TA.AperFunction,EtchedComponent*%
G36*
X93923377Y-91168365D02*
G01*
X93923377Y-92205729D01*
X93523138Y-92207212D01*
X93465931Y-92207410D01*
X93409248Y-92207575D01*
X93355749Y-92207701D01*
X93306078Y-92207787D01*
X93260877Y-92207833D01*
X93220789Y-92207839D01*
X93186457Y-92207805D01*
X93158523Y-92207731D01*
X93137629Y-92207617D01*
X93124420Y-92207463D01*
X93119537Y-92207268D01*
X93119176Y-92204929D01*
X93118683Y-92194412D01*
X93118218Y-92176043D01*
X93117786Y-92150474D01*
X93117393Y-92118361D01*
X93117044Y-92080359D01*
X93116746Y-92037123D01*
X93116504Y-91989307D01*
X93116324Y-91937565D01*
X93116212Y-91882553D01*
X93116173Y-91824926D01*
X93116173Y-91444011D01*
X92302243Y-91444011D01*
X91488313Y-91444011D01*
X91488313Y-91829073D01*
X91488313Y-92214135D01*
X91085832Y-92443044D01*
X91041251Y-92468398D01*
X90987675Y-92498863D01*
X90936741Y-92527822D01*
X90888963Y-92554982D01*
X90844857Y-92580050D01*
X90804938Y-92602733D01*
X90769723Y-92622739D01*
X90739726Y-92639774D01*
X90715462Y-92653546D01*
X90697448Y-92663762D01*
X90686199Y-92670128D01*
X90682231Y-92672353D01*
X90682178Y-92670989D01*
X90682086Y-92661753D01*
X90681996Y-92644104D01*
X90681908Y-92618397D01*
X90681823Y-92584990D01*
X90681741Y-92544239D01*
X90681663Y-92496501D01*
X90681589Y-92442131D01*
X90681519Y-92381487D01*
X90681453Y-92314926D01*
X90681392Y-92242803D01*
X90681336Y-92165476D01*
X90681286Y-92083300D01*
X90681241Y-91996633D01*
X90681202Y-91905830D01*
X90681170Y-91811249D01*
X90681144Y-91713246D01*
X90681125Y-91612178D01*
X90681114Y-91508401D01*
X90681110Y-91402271D01*
X90681110Y-90131789D01*
X90682864Y-90130063D01*
X91488313Y-90130063D01*
X91488313Y-90491063D01*
X91488313Y-90852062D01*
X92302243Y-90852062D01*
X93116173Y-90852062D01*
X93116173Y-90491063D01*
X93116173Y-90130063D01*
X92302243Y-90130063D01*
X91488313Y-90130063D01*
X90682864Y-90130063D01*
X90984932Y-89832821D01*
X91288754Y-89533854D01*
X92303454Y-89533742D01*
X93318154Y-89533630D01*
X93620765Y-89832316D01*
X93923377Y-90131002D01*
X93923377Y-90491063D01*
X93923377Y-91168365D01*
G37*
%TD.AperFunction*%
%TA.AperFunction,EtchedComponent*%
G36*
X101937662Y-89534730D02*
G01*
X102395627Y-89535872D01*
X102970210Y-90330565D01*
X102980051Y-90344175D01*
X103034397Y-90419320D01*
X103087317Y-90492463D01*
X103138571Y-90563274D01*
X103187920Y-90631424D01*
X103235125Y-90696585D01*
X103279947Y-90758426D01*
X103322148Y-90816619D01*
X103361487Y-90870833D01*
X103397726Y-90920741D01*
X103430626Y-90966013D01*
X103459947Y-91006318D01*
X103485451Y-91041329D01*
X103506899Y-91070716D01*
X103524051Y-91094149D01*
X103536669Y-91111300D01*
X103544512Y-91121839D01*
X103547344Y-91125436D01*
X103547504Y-91125287D01*
X103551395Y-91120281D01*
X103560265Y-91108412D01*
X103573875Y-91090008D01*
X103591987Y-91065397D01*
X103614360Y-91034907D01*
X103640756Y-90998866D01*
X103670934Y-90957602D01*
X103704655Y-90911444D01*
X103741680Y-90860718D01*
X103781770Y-90805754D01*
X103824684Y-90746879D01*
X103870184Y-90684421D01*
X103918029Y-90618708D01*
X103967981Y-90550069D01*
X104019800Y-90478832D01*
X104073247Y-90405323D01*
X104128082Y-90329872D01*
X104706269Y-89534130D01*
X105162563Y-89533880D01*
X105618857Y-89533630D01*
X105618857Y-91100950D01*
X105618846Y-91228206D01*
X105618813Y-91352651D01*
X105618758Y-91473167D01*
X105618683Y-91589489D01*
X105618587Y-91701353D01*
X105618472Y-91808492D01*
X105618339Y-91910641D01*
X105618187Y-92007536D01*
X105618018Y-92098911D01*
X105617832Y-92184500D01*
X105617631Y-92264039D01*
X105617414Y-92337261D01*
X105617182Y-92403902D01*
X105616936Y-92463697D01*
X105616677Y-92516379D01*
X105616405Y-92561685D01*
X105616121Y-92599348D01*
X105615826Y-92629103D01*
X105615521Y-92650685D01*
X105615205Y-92663829D01*
X105614880Y-92668270D01*
X105612314Y-92667035D01*
X105602467Y-92661696D01*
X105585755Y-92652406D01*
X105562700Y-92639460D01*
X105533821Y-92623156D01*
X105499640Y-92603788D01*
X105460679Y-92581653D01*
X105417458Y-92557046D01*
X105370499Y-92530263D01*
X105320322Y-92501599D01*
X105267448Y-92471352D01*
X105212399Y-92439815D01*
X104813896Y-92211361D01*
X104811653Y-91355744D01*
X104809411Y-90500127D01*
X104311302Y-91188444D01*
X103813193Y-91876762D01*
X103551234Y-91876762D01*
X103289274Y-91876762D01*
X102789208Y-91188755D01*
X102289143Y-90500747D01*
X102288010Y-91355801D01*
X102286878Y-92210854D01*
X101883287Y-92210854D01*
X101479697Y-92210854D01*
X101479697Y-90872221D01*
X101479697Y-89533587D01*
X101937662Y-89534730D01*
G37*
%TD.AperFunction*%
%TA.AperFunction,EtchedComponent*%
G36*
X115390502Y-90870000D02*
G01*
X115390502Y-92206370D01*
X115041418Y-92206370D01*
X115037314Y-92206370D01*
X114980647Y-92206413D01*
X114925482Y-92206528D01*
X114872650Y-92206709D01*
X114822980Y-92206949D01*
X114777302Y-92207242D01*
X114736444Y-92207583D01*
X114701237Y-92207966D01*
X114672511Y-92208383D01*
X114651094Y-92208831D01*
X114637817Y-92209301D01*
X114583299Y-92212233D01*
X114583299Y-91994818D01*
X114583299Y-91777403D01*
X114153912Y-91371290D01*
X113724524Y-90965176D01*
X113425186Y-91264000D01*
X113125848Y-91562824D01*
X113125848Y-92115921D01*
X113125848Y-92122909D01*
X113125810Y-92203209D01*
X113125707Y-92278299D01*
X113125543Y-92347839D01*
X113125320Y-92411487D01*
X113125040Y-92468900D01*
X113124707Y-92519738D01*
X113124322Y-92563657D01*
X113123889Y-92600317D01*
X113123409Y-92629375D01*
X113122886Y-92650490D01*
X113122322Y-92663320D01*
X113121719Y-92667522D01*
X113119164Y-92666161D01*
X113109307Y-92660685D01*
X113092563Y-92651298D01*
X113069453Y-92638294D01*
X113040501Y-92621971D01*
X113006232Y-92602622D01*
X112967166Y-92580545D01*
X112923829Y-92556033D01*
X112876742Y-92529384D01*
X112826430Y-92500892D01*
X112773414Y-92470852D01*
X112718219Y-92439562D01*
X112318849Y-92213096D01*
X112318747Y-91829667D01*
X112318645Y-91446237D01*
X112785029Y-90979869D01*
X112789610Y-90975288D01*
X112843348Y-90921514D01*
X112895291Y-90869473D01*
X112945088Y-90819519D01*
X112992389Y-90772006D01*
X113036843Y-90727289D01*
X113078100Y-90685720D01*
X113115811Y-90647655D01*
X113149624Y-90613446D01*
X113179190Y-90583448D01*
X113204158Y-90558015D01*
X113224177Y-90537500D01*
X113238898Y-90522258D01*
X113247970Y-90512643D01*
X113251043Y-90509009D01*
X113249933Y-90507658D01*
X113243102Y-90500645D01*
X113230368Y-90488012D01*
X113212103Y-90470116D01*
X113188680Y-90447318D01*
X113160469Y-90419975D01*
X113127844Y-90388448D01*
X113091177Y-90353094D01*
X113050839Y-90314274D01*
X113007203Y-90272346D01*
X112960641Y-90227669D01*
X112911525Y-90180602D01*
X112860228Y-90131504D01*
X112807120Y-90080734D01*
X112786935Y-90061448D01*
X112732835Y-90009755D01*
X112679870Y-89959141D01*
X112628484Y-89910032D01*
X112579124Y-89862855D01*
X112532235Y-89818034D01*
X112488264Y-89775998D01*
X112447657Y-89737172D01*
X112410860Y-89701983D01*
X112378318Y-89670858D01*
X112350477Y-89644221D01*
X112327784Y-89622501D01*
X112310685Y-89606124D01*
X112299625Y-89595515D01*
X112235682Y-89534077D01*
X112714032Y-89533853D01*
X113192382Y-89533630D01*
X113887840Y-90190690D01*
X114583299Y-90847751D01*
X114583299Y-90190690D01*
X114583299Y-89533630D01*
X114986901Y-89533630D01*
X115390502Y-89533630D01*
X115390502Y-90870000D01*
G37*
%TD.AperFunction*%
%TD*%
D11*
%TO.P,H1,1,1*%
%TO.N,GND*%
X127985010Y-51120990D03*
X128644020Y-49530000D03*
X128644020Y-52711980D03*
X130235010Y-48870990D03*
D12*
X130235010Y-51120990D03*
D11*
X130235010Y-53370990D03*
X131826000Y-49530000D03*
X131826000Y-52711980D03*
X132485010Y-51120990D03*
%TD*%
%TO.P,H3,1,1*%
%TO.N,GND*%
X128052000Y-143728000D03*
X128711010Y-142137010D03*
X128711010Y-145318990D03*
X130302000Y-141478000D03*
D12*
X130302000Y-143728000D03*
D11*
X130302000Y-145978000D03*
X131892990Y-142137010D03*
X131892990Y-145318990D03*
X132552000Y-143728000D03*
%TD*%
D13*
%TO.P,J4,1,Pin_1*%
%TO.N,/5V*%
X99171505Y-51054000D03*
D14*
%TO.P,J4,2,Pin_2*%
%TO.N,GND*%
X101711505Y-51054000D03*
%TO.P,J4,3,Pin_3*%
%TO.N,Net-(J4-Pin_3)*%
X104251505Y-51054000D03*
%TO.P,J4,4,Pin_4*%
%TO.N,Net-(J4-Pin_4)*%
X106791505Y-51054000D03*
%TO.P,J4,5,Pin_5*%
%TO.N,Net-(J4-Pin_5)*%
X109331505Y-51054000D03*
%TO.P,J4,6,Pin_6*%
%TO.N,Net-(J4-Pin_6)*%
X111871505Y-51054000D03*
%TD*%
D11*
%TO.P,H4,1,1*%
%TO.N,GND*%
X78455010Y-143830990D03*
X79114020Y-142240000D03*
X79114020Y-145421980D03*
X80705010Y-141580990D03*
D12*
X80705010Y-143830990D03*
D11*
X80705010Y-146080990D03*
X82296000Y-142240000D03*
X82296000Y-145421980D03*
X82955010Y-143830990D03*
%TD*%
%TO.P,H2,1,1*%
%TO.N,GND*%
X78558000Y-51054000D03*
X79217010Y-49463010D03*
X79217010Y-52644990D03*
X80808000Y-48804000D03*
D12*
X80808000Y-51054000D03*
D11*
X80808000Y-53304000D03*
X82398990Y-49463010D03*
X82398990Y-52644990D03*
X83058000Y-51054000D03*
%TD*%
D15*
%TO.P,U2,41,PAD*%
%TO.N,GND*%
X92180000Y-78870000D03*
X93580000Y-78870000D03*
X94980000Y-78870000D03*
X91180000Y-77590000D03*
X92180000Y-77590000D03*
X93580000Y-77590000D03*
X94980000Y-77590000D03*
X95980000Y-77590000D03*
X92180000Y-76310000D03*
X93580000Y-76310000D03*
X94980000Y-76310000D03*
%TD*%
D16*
%TO.P,J6,1,Pin_1*%
%TO.N,GND*%
X89621000Y-143622000D03*
%TO.P,J6,2,Pin_2*%
%TO.N,/5V*%
X92161000Y-143622000D03*
%TO.P,J6,3,Pin_3*%
%TO.N,/Fan/FAN_TACH*%
X94701000Y-143622000D03*
%TO.P,J6,4,Pin_4*%
%TO.N,/Fan/FAN_PWM*%
X97241000Y-143622000D03*
%TD*%
D17*
%TO.P,J3,1,Pin_1*%
%TO.N,GND*%
X87005000Y-50292000D03*
D14*
%TO.P,J3,2,Pin_2*%
%TO.N,/3V3*%
X87405000Y-52832000D03*
%TO.P,J3,3,Pin_3*%
%TO.N,/SCL*%
X87005000Y-55372000D03*
%TO.P,J3,4,Pin_4*%
%TO.N,/SDA*%
X87405000Y-57912000D03*
%TD*%
D18*
%TO.P,FID7,*%
%TO.N,*%
X132260000Y-139060000D03*
%TD*%
D19*
%TO.P,U12,1,VDD1_0*%
%TO.N,/BM1366/VDD1_0*%
X108525030Y-113037000D03*
%TO.P,U12,2,VDD2_0*%
%TO.N,/BM1366/VDD2_0*%
X108525030Y-113539000D03*
%TO.P,U12,3,VDD3_0*%
%TO.N,/BM1366/VDD3_0*%
X108525030Y-114041000D03*
%TO.P,U12,4,VSS*%
%TO.N,GND*%
X108525030Y-114543000D03*
%TO.P,U12,5,NRSTI*%
%TO.N,/BM1366/RST_N*%
X108525030Y-115045000D03*
%TO.P,U12,6,BI*%
%TO.N,/BM1366/BI*%
X108525030Y-115547000D03*
%TO.P,U12,7,RO*%
%TO.N,/BM1366/RO*%
X108525030Y-116049000D03*
%TO.P,U12,8,CLKI*%
%TO.N,/BM1366/CLKI*%
X108525030Y-116551000D03*
%TO.P,U12,9,CI*%
%TO.N,/BM1366/CI*%
X108525030Y-117053000D03*
%TO.P,U12,10,ADDR0*%
%TO.N,Net-(U12-ADDR0)*%
X108525030Y-117555000D03*
%TO.P,U12,11,ADDR1*%
%TO.N,Net-(U12-ADDR1)*%
X108525030Y-118057000D03*
%TO.P,U12,12,PLL_VSS*%
%TO.N,GND*%
X108525030Y-118559000D03*
%TO.P,U12,13,VDDIO_08_0*%
%TO.N,/BM1366/0V8*%
X108525030Y-119061000D03*
%TO.P,U12,14,VDDIO_18_0*%
%TO.N,/BM1366/1V2*%
X108525030Y-119563000D03*
%TO.P,U12,15,VDDIO_18_1*%
%TO.N,Net-(U12-VDDIO_18_1)*%
X102693030Y-119563000D03*
%TO.P,U12,16,VDDIO_08_1*%
%TO.N,Net-(U12-VDDIO_08_1)*%
X102693030Y-119061000D03*
%TO.P,U12,17,VSS*%
%TO.N,GND*%
X102693030Y-118559000D03*
%TO.P,U12,18,PIN_MODE*%
%TO.N,/BM1366/PIN_MODE*%
X102693030Y-118057000D03*
%TO.P,U12,19,INV_CLKO*%
%TO.N,/BM1366/INV_CLKO*%
X102693030Y-117555000D03*
%TO.P,U12,20,CO*%
%TO.N,/BM1366/CO*%
X102693030Y-117053000D03*
%TO.P,U12,21,CLKO*%
%TO.N,/BM1366/CLKO*%
X102693030Y-116551000D03*
%TO.P,U12,22,RI*%
%TO.N,/BM1366/RI*%
X102693030Y-116049000D03*
%TO.P,U12,23,BO*%
%TO.N,/BM1366/BO*%
X102693030Y-115547000D03*
%TO.P,U12,24,NRSTO*%
%TO.N,/BM1366/NRSTO*%
X102693030Y-115045000D03*
%TO.P,U12,25,VSS*%
%TO.N,GND*%
X102693030Y-114543000D03*
%TO.P,U12,26,VDD3_1*%
%TO.N,/BM1366/VDD3_1*%
X102693030Y-114041000D03*
%TO.P,U12,27,VDD2_1*%
%TO.N,/BM1366/VDD2_1*%
X102693030Y-113539000D03*
%TO.P,U12,28,VDD1_1*%
%TO.N,/BM1366/VDD1_1*%
X102693030Y-113037000D03*
D20*
%TO.P,U12,29,VDD*%
%TO.N,/VDD*%
X105609030Y-113832000D03*
D21*
%TO.P,U12,30,VSS*%
%TO.N,GND*%
X105609030Y-117408000D03*
%TD*%
D22*
%TO.P,J5,A1,GND*%
%TO.N,GND*%
X84545000Y-86460000D03*
%TO.P,J5,A4,VBUS*%
%TO.N,unconnected-(J5-VBUS-PadA4)*%
X84545000Y-85660000D03*
D23*
%TO.P,J5,A5,CC1*%
%TO.N,unconnected-(J5-CC1-PadA5)*%
X84545000Y-84510000D03*
%TO.P,J5,A6,D+*%
%TO.N,/ESP32/USB_D+*%
X84545000Y-83510000D03*
%TO.P,J5,A7,D-*%
%TO.N,/ESP32/USB_D-*%
X84545000Y-83010000D03*
%TO.P,J5,A8,SBU1*%
%TO.N,unconnected-(J5-SBU1-PadA8)*%
X84545000Y-82010000D03*
D22*
%TO.P,J5,B1,GND*%
%TO.N,GND*%
X84545000Y-80060000D03*
%TO.P,J5,B4,VBUS*%
%TO.N,unconnected-(J5-VBUS-PadB4)*%
X84545000Y-80860000D03*
D23*
%TO.P,J5,B5,CC2*%
%TO.N,unconnected-(J5-CC2-PadB5)*%
X84545000Y-81510000D03*
%TO.P,J5,B6,D+*%
%TO.N,/ESP32/USB_D+*%
X84545000Y-82510000D03*
%TO.P,J5,B7,D-*%
%TO.N,/ESP32/USB_D-*%
X84545000Y-84010000D03*
%TO.P,J5,B8,SBU2*%
%TO.N,unconnected-(J5-SBU2-PadB8)*%
X84545000Y-85010000D03*
D24*
%TO.P,J5,S1,SHIELD*%
%TO.N,GND*%
X79790000Y-87580000D03*
D25*
X83970000Y-87580000D03*
D24*
X79790000Y-78940000D03*
D25*
X83970000Y-78940000D03*
%TD*%
D26*
%TO.P,U4,1,GND*%
%TO.N,GND*%
X125690000Y-81360000D03*
%TO.P,U4,2,3V3*%
%TO.N,/3V3*%
X124420000Y-81360000D03*
%TO.P,U4,3,EN*%
%TO.N,/ESP32/EN*%
X123150000Y-81360000D03*
%TO.P,U4,4,GPIO4/TOUCH4/ADC1_CH3*%
%TO.N,unconnected-(U4-GPIO4{slash}TOUCH4{slash}ADC1_CH3-Pad4)*%
X121880000Y-81360000D03*
%TO.P,U4,5,GPIO5/TOUCH5/ADC1_CH4*%
%TO.N,unconnected-(U4-GPIO5{slash}TOUCH5{slash}ADC1_CH4-Pad5)*%
X120610000Y-81360000D03*
%TO.P,U4,6,GPIO6/TOUCH6/ADC1_CH5*%
%TO.N,unconnected-(U4-GPIO6{slash}TOUCH6{slash}ADC1_CH5-Pad6)*%
X119340000Y-81360000D03*
%TO.P,U4,7,GPIO7/TOUCH7/ADC1_CH6*%
%TO.N,unconnected-(U4-GPIO7{slash}TOUCH7{slash}ADC1_CH6-Pad7)*%
X118070000Y-81360000D03*
%TO.P,U4,8,GPIO15/U0RTS/ADC2_CH4/XTAL_32K_P*%
%TO.N,unconnected-(U4-GPIO15{slash}U0RTS{slash}ADC2_CH4{slash}XTAL_32K_P-Pad8)*%
X116800000Y-81360000D03*
%TO.P,U4,9,GPIO16/U0CTS/ADC2_CH5/XTAL_32K_NH5*%
%TO.N,unconnected-(U4-GPIO16{slash}U0CTS{slash}ADC2_CH5{slash}XTAL_32K_NH5-Pad9)*%
X115530000Y-81360000D03*
%TO.P,U4,10,GPIO17/U1TXD/ADC2_CH6*%
%TO.N,/TX*%
X114260000Y-81360000D03*
%TO.P,U4,11,GPIO18/U1RXD/ADC2_CH7/CLK_OUT3*%
%TO.N,/RX*%
X112990000Y-81360000D03*
%TO.P,U4,12,GPIO8/TOUCH8/ADC1_CH7/SUBSPICS1*%
%TO.N,unconnected-(U4-GPIO8{slash}TOUCH8{slash}ADC1_CH7{slash}SUBSPICS1-Pad12)*%
X111720000Y-81360000D03*
%TO.P,U4,13,GPIO19/U1RTS/ADC2_CH8/CLK_OUT2/USB_D-*%
%TO.N,/ESP32/USB_D-*%
X110450000Y-81360000D03*
%TO.P,U4,14,GPIO20/U1CTS/ADC2_CH9/CLK_OUT1/USB_D+*%
%TO.N,/ESP32/USB_D+*%
X109180000Y-81360000D03*
D27*
%TO.P,U4,15,GPIO3/TOUCH3/ADC1_CH2\u002A*%
%TO.N,/3V3*%
X107930000Y-79595000D03*
%TO.P,U4,16,\u002AGPIO46*%
%TO.N,unconnected-(U4-\u002AGPIO46-Pad16)*%
X107930000Y-78325000D03*
%TO.P,U4,17,GPIO9/TOUCH9/ADC1_CH8/FSPIHD/SUBSPIHD*%
%TO.N,unconnected-(U4-GPIO9{slash}TOUCH9{slash}ADC1_CH8{slash}FSPIHD{slash}SUBSPIHD-Pad17)*%
X107930000Y-77055000D03*
%TO.P,U4,18,GPIO10/TOUCH10/ADC1_CH9/FSPICS0/FSPIIO4/SUBSPICS0*%
%TO.N,unconnected-(U4-GPIO10{slash}TOUCH10{slash}ADC1_CH9{slash}FSPICS0{slash}FSPIIO4{slash}SUBSPICS0-Pad18)*%
X107930000Y-75785000D03*
%TO.P,U4,19,GPIO11/TOUCH11/ADC2_CH0/FSPID/FSPIIO5/SUBSPID*%
%TO.N,/Power/PGOOD*%
X107930000Y-74515000D03*
%TO.P,U4,20,GPIO12/TOUCH12/ADC2_CH1/FSPICLK/FSPIIO6/SUBSPICLK*%
%TO.N,unconnected-(U4-GPIO12{slash}TOUCH12{slash}ADC2_CH1{slash}FSPICLK{slash}FSPIIO6{slash}SUBSPICLK-Pad20)*%
X107930000Y-73245000D03*
%TO.P,U4,21,GPIO13/TOUCH13/ADC2_CH2/FSPIQ/FSPIIO7/SUBSPIQ*%
%TO.N,/Power/PMB_ALRT*%
X107930000Y-71975000D03*
%TO.P,U4,22,GPIO14/TOUCH14/ADC2_CH3/FSPIWP/FSPIDQS/SUBSPIWP*%
%TO.N,unconnected-(U4-GPIO14{slash}TOUCH14{slash}ADC2_CH3{slash}FSPIWP{slash}FSPIDQS{slash}SUBSPIWP-Pad22)*%
X107930000Y-70705000D03*
%TO.P,U4,23,GPIO21*%
%TO.N,unconnected-(U4-GPIO21-Pad23)*%
X107930000Y-69435000D03*
%TO.P,U4,24,GPIO47/SPICLK_P/SUBSPICLK_P_DIFF*%
%TO.N,/SDA*%
X107930000Y-68165000D03*
%TO.P,U4,25,GPIO48/SPICLK_N/SUBSPICLK_N_DIFF*%
%TO.N,/SCL*%
X107930000Y-66895000D03*
%TO.P,U4,26,\u002AGPIO45*%
%TO.N,unconnected-(U4-\u002AGPIO45-Pad26)*%
X107930000Y-65625000D03*
D26*
%TO.P,U4,27,GPIO0/BOOT\u002A*%
%TO.N,/ESP32/IO0*%
X109180000Y-63860000D03*
%TO.P,U4,28,SPIIO6/GPIO35/FSPID/SUBSPID*%
%TO.N,unconnected-(U4-SPIIO6{slash}GPIO35{slash}FSPID{slash}SUBSPID-Pad28)*%
X110450000Y-63860000D03*
%TO.P,U4,29,SPIIO7/GPIO36/FSPICLK/SUBSPICLK*%
%TO.N,unconnected-(U4-SPIIO7{slash}GPIO36{slash}FSPICLK{slash}SUBSPICLK-Pad29)*%
X111720000Y-63860000D03*
%TO.P,U4,30,SPIDQS/GPIO37/FSPIQ/SUBSPIQ*%
%TO.N,unconnected-(U4-SPIDQS{slash}GPIO37{slash}FSPIQ{slash}SUBSPIQ-Pad30)*%
X112990000Y-63860000D03*
%TO.P,U4,31,GPIO38/FSPIWP/SUBSPIWP*%
%TO.N,unconnected-(U4-GPIO38{slash}FSPIWP{slash}SUBSPIWP-Pad31)*%
X114260000Y-63860000D03*
%TO.P,U4,32,MTCK/GPIO39/CLK_OUT3/SUBSPICS1*%
%TO.N,Net-(J4-Pin_3)*%
X115530000Y-63860000D03*
%TO.P,U4,33,MTDO/GPIO40/CLK_OUT2*%
%TO.N,Net-(J4-Pin_4)*%
X116800000Y-63860000D03*
%TO.P,U4,34,MTDI/GPIO41/CLK_OUT1*%
%TO.N,Net-(J4-Pin_5)*%
X118070000Y-63860000D03*
%TO.P,U4,35,MTMS/GPIO42*%
%TO.N,Net-(J4-Pin_6)*%
X119340000Y-63860000D03*
%TO.P,U4,36,U0RXD/GPIO44/CLK_OUT2*%
%TO.N,/ESP32/P_RX*%
X120610000Y-63860000D03*
%TO.P,U4,37,U0TXD/GPIO43/CLK_OUT1*%
%TO.N,/ESP32/P_TX*%
X121880000Y-63860000D03*
%TO.P,U4,38,GPIO2/TOUCH2/ADC1_CH1*%
%TO.N,/VDD*%
X123150000Y-63860000D03*
%TO.P,U4,39,GPIO1/TOUCH1/ADC1_CH0*%
%TO.N,/RST*%
X124420000Y-63860000D03*
%TO.P,U4,40,GND*%
%TO.N,GND*%
X125690000Y-63860000D03*
D28*
%TO.P,U4,41,GND*%
X116570000Y-75510000D03*
X117970000Y-75510000D03*
X119370000Y-75510000D03*
X116570000Y-74110000D03*
X117970000Y-74110000D03*
X119370000Y-74110000D03*
X116570000Y-72710000D03*
X117970000Y-72710000D03*
X119370000Y-72710000D03*
%TD*%
D29*
%TO.P,J2,1,Pin_1*%
%TO.N,/ESP32/EN*%
X129400000Y-58365000D03*
%TO.P,J2,2,Pin_2*%
%TO.N,/3V3*%
X129400000Y-57095000D03*
%TO.P,J2,3,Pin_3*%
%TO.N,/ESP32/P_TX*%
X128130000Y-58365000D03*
%TO.P,J2,4,Pin_4*%
%TO.N,GND*%
X128130000Y-57095000D03*
%TO.P,J2,5,Pin_5*%
%TO.N,/ESP32/P_RX*%
X126860000Y-58365000D03*
%TO.P,J2,6,Pin_6*%
%TO.N,/ESP32/IO0*%
X126860000Y-57095000D03*
%TD*%
D18*
%TO.P,FID8,*%
%TO.N,*%
X78850000Y-139070000D03*
%TD*%
D30*
%TO.P,J1,1*%
%TO.N,/5V*%
X82330000Y-72120000D03*
X88530000Y-72120000D03*
%TO.P,J1,2*%
%TO.N,GND*%
X82330000Y-61120000D03*
%TO.P,J1,3*%
X88530000Y-61120000D03*
%TD*%
D31*
%TO.P,SW1,1*%
%TO.N,GND*%
X132246000Y-104448000D03*
%TO.P,SW1,2*%
%TO.N,/ESP32/EN*%
X128136000Y-104448000D03*
%TD*%
D18*
%TO.P,FID5,*%
%TO.N,*%
X125270000Y-50310000D03*
%TD*%
D31*
%TO.P,SW2,1*%
%TO.N,GND*%
X132142000Y-113155000D03*
%TO.P,SW2,2*%
%TO.N,/ESP32/IO0*%
X128032000Y-113155000D03*
%TD*%
D18*
%TO.P,FID6,*%
%TO.N,*%
X78750000Y-55900000D03*
%TD*%
D32*
%TO.N,GND*%
X111850000Y-118740000D03*
X113580000Y-132650000D03*
X99600000Y-114090000D03*
X105580000Y-118749000D03*
D33*
X100043332Y-65740000D03*
D32*
X112180000Y-120800000D03*
D33*
X100093332Y-60280000D03*
D32*
X104640000Y-130470000D03*
X105540000Y-132550000D03*
D33*
X116540000Y-70920000D03*
X101416668Y-61640000D03*
D32*
X125600000Y-65940000D03*
X116770000Y-124080000D03*
X104088000Y-117780000D03*
D34*
X96540000Y-92850000D03*
D32*
X105556000Y-117786000D03*
D33*
X111860000Y-87470000D03*
D32*
X115260000Y-109040000D03*
D34*
X112430000Y-90650000D03*
D32*
X98450000Y-78230000D03*
X96070000Y-137650000D03*
X116050000Y-128010000D03*
D33*
X111860000Y-89030000D03*
D32*
X119270000Y-54220000D03*
X128130000Y-56090000D03*
D33*
X101370000Y-65740000D03*
D32*
X111730000Y-114130000D03*
D33*
X80680000Y-61050000D03*
X102045000Y-142765000D03*
D32*
X99550000Y-67970000D03*
X91470000Y-88790000D03*
X117090000Y-100360000D03*
D33*
X101356668Y-64450000D03*
D32*
X121580000Y-112400000D03*
D33*
X111860000Y-83000000D03*
X101420000Y-60280000D03*
D32*
X107100000Y-117750000D03*
X122640000Y-102460000D03*
X96070000Y-141200000D03*
D33*
X97440000Y-60280000D03*
D32*
X113180000Y-130220000D03*
D33*
X117910000Y-70950000D03*
D32*
X119280000Y-102930000D03*
X100400000Y-118970000D03*
D33*
X100050000Y-63040000D03*
X100030000Y-64450000D03*
D32*
X96600000Y-108920000D03*
X105580000Y-115626000D03*
X100490000Y-76620000D03*
X98460000Y-76630000D03*
X99490000Y-70390000D03*
X99390000Y-120780000D03*
D33*
X98766666Y-60280000D03*
D32*
X92680000Y-133370000D03*
X128690000Y-107620000D03*
X112512000Y-61250000D03*
X105580000Y-116667000D03*
X104560000Y-76600000D03*
D33*
X101376668Y-63040000D03*
X119454234Y-70914234D03*
X128020000Y-84450000D03*
X111860000Y-85460000D03*
D32*
X116990000Y-98200000D03*
D33*
X100090000Y-61640000D03*
D32*
X102570000Y-76600000D03*
X132297000Y-108743000D03*
X117550000Y-103000000D03*
X98460000Y-74920000D03*
D35*
%TO.N,/VDD*%
X103660000Y-97850000D03*
D34*
X120850000Y-69510000D03*
D35*
X103660000Y-99730000D03*
D32*
X84500000Y-76160000D03*
D35*
X107560000Y-97880000D03*
D34*
X99780000Y-81020000D03*
D35*
X105650000Y-101710000D03*
X103660000Y-101690000D03*
X105650000Y-99750000D03*
X107560000Y-101740000D03*
X105650000Y-97850000D03*
X107560000Y-99780000D03*
D34*
%TO.N,/ESP32/EN*%
X122101300Y-70905000D03*
X127228000Y-104448000D03*
D33*
%TO.N,/5V*%
X93620000Y-68975000D03*
X93620000Y-71720000D03*
X92330000Y-70347500D03*
D35*
X109280000Y-61185155D03*
D32*
X108290000Y-131179000D03*
D33*
X92330000Y-66230000D03*
X93620000Y-67602500D03*
X93620000Y-70347500D03*
X92330000Y-68975000D03*
D32*
X99710000Y-131420000D03*
D33*
X92330000Y-71720000D03*
X80680000Y-70950000D03*
X92330000Y-67602500D03*
D32*
X98770000Y-138720000D03*
D33*
X93620000Y-66230000D03*
D32*
%TO.N,/3V3*%
X129830000Y-56090000D03*
D33*
X126000000Y-84500000D03*
D32*
X123394000Y-86260000D03*
X112160000Y-74520000D03*
X95550000Y-135970000D03*
D35*
X111440000Y-55180000D03*
D32*
X122930000Y-99700000D03*
X118711400Y-59800000D03*
X127250000Y-107630000D03*
D33*
X115370000Y-61560000D03*
D32*
X95560000Y-126330000D03*
D34*
%TO.N,/TX*%
X116380000Y-79250000D03*
%TO.N,/RX*%
X115580000Y-78420000D03*
%TO.N,/RST*%
X121476817Y-70170000D03*
%TO.N,/SCL*%
X95260000Y-133370000D03*
X88970000Y-81220000D03*
%TO.N,Net-(U2-BP1V5)*%
X91690000Y-82980000D03*
X83660000Y-76570000D03*
%TO.N,/ESP32/P_TX*%
X123105000Y-61285000D03*
%TO.N,/ESP32/P_RX*%
X123040000Y-59730000D03*
%TO.N,/ESP32/IO0*%
X121244400Y-66945600D03*
X124830000Y-55100000D03*
X126520000Y-102640000D03*
%TO.N,Net-(U2-VDD5)*%
X92570000Y-74110000D03*
X102820000Y-73740000D03*
%TO.N,/Power/PGOOD*%
X89020000Y-82280000D03*
X109410000Y-74490000D03*
D32*
%TO.N,/BM1366/VDD3_0*%
X113470000Y-111290000D03*
D34*
%TO.N,/SDA*%
X82130000Y-73910000D03*
X94220000Y-133370000D03*
X88990000Y-80510000D03*
X82390000Y-75900000D03*
D32*
%TO.N,/BM1366/1V2*%
X110950000Y-124990000D03*
X124600000Y-101830000D03*
X117120000Y-101750000D03*
%TO.N,/BM1366/0V8*%
X110970000Y-123700000D03*
%TO.N,/BM1366/VDD2_0*%
X112390000Y-109350000D03*
%TO.N,/BM1366/VDD1_0*%
X111030000Y-107870000D03*
%TO.N,/BM1366/VDD1_1*%
X100553800Y-107457400D03*
%TO.N,Net-(U12-VDDIO_18_1)*%
X100770000Y-123700000D03*
%TO.N,/BM1366/VDD2_1*%
X99360000Y-109210000D03*
%TO.N,Net-(U12-VDDIO_08_1)*%
X99180000Y-123710000D03*
%TO.N,/BM1366/VDD3_1*%
X98140000Y-111060000D03*
D34*
%TO.N,/BM1366/BI*%
X116650000Y-113190000D03*
%TO.N,/BM1366/RST_N*%
X113800000Y-98950000D03*
%TO.N,/BM1366/RO*%
X113010000Y-100470000D03*
X117300000Y-108370000D03*
%TO.N,/BM1366/CI*%
X113770000Y-99770000D03*
%TO.N,Net-(U12-ADDR0)*%
X119430000Y-116250000D03*
%TO.N,Net-(U12-ADDR1)*%
X119420000Y-118020000D03*
%TO.N,/BM1366/INV_CLKO*%
X92480000Y-119060000D03*
%TO.N,/BM1366/CLKI*%
X117880000Y-114000000D03*
%TO.N,/BM1366/NRSTO*%
X92480000Y-112210000D03*
%TO.N,/BM1366/BO*%
X92480000Y-113580000D03*
%TO.N,/BM1366/RI*%
X92480000Y-114950000D03*
%TO.N,/BM1366/CLKO*%
X92480000Y-116320000D03*
%TO.N,/BM1366/CO*%
X92480000Y-117690000D03*
%TO.N,/BM1366/PIN_MODE*%
X92480000Y-120430000D03*
%TO.N,/Power/AGND*%
X89340000Y-73770000D03*
X89170000Y-77830000D03*
X90680000Y-72940000D03*
X89340000Y-74960000D03*
%TO.N,/Power/PMB_ALRT*%
X93330000Y-81550000D03*
%TD*%
D36*
%TO.N,GND*%
X100051000Y-114541000D02*
X102676000Y-114541000D01*
X132345000Y-104448000D02*
X132345000Y-108695000D01*
X111319000Y-114541000D02*
X108508000Y-114541000D01*
X102693030Y-118550000D02*
X100840000Y-118550000D01*
D37*
X125690000Y-82480000D02*
X125690000Y-81360000D01*
D36*
X132241000Y-108799000D02*
X132297000Y-108743000D01*
X99600000Y-114090000D02*
X100051000Y-114541000D01*
X125600000Y-65940000D02*
X125600000Y-63950000D01*
D38*
X80680000Y-61050000D02*
X80750000Y-61120000D01*
D36*
X117910000Y-70950000D02*
X117970000Y-71010000D01*
X132345000Y-108695000D02*
X132297000Y-108743000D01*
D37*
X128020000Y-84450000D02*
X127660000Y-84450000D01*
X128130000Y-56090000D02*
X128130000Y-57095000D01*
D36*
X111730000Y-114130000D02*
X111319000Y-114541000D01*
D37*
X127660000Y-84450000D02*
X125690000Y-82480000D01*
D38*
X80750000Y-61120000D02*
X82330000Y-61120000D01*
D37*
X84545000Y-79515000D02*
X83970000Y-78940000D01*
X84545000Y-80060000D02*
X84545000Y-79515000D01*
D36*
X100840000Y-118550000D02*
X100420000Y-118970000D01*
X125600000Y-63950000D02*
X125690000Y-63860000D01*
X132241000Y-113155000D02*
X132241000Y-108799000D01*
D39*
X111669000Y-118559000D02*
X111850000Y-118740000D01*
X100420000Y-118970000D02*
X100400000Y-118970000D01*
D37*
X84545000Y-86460000D02*
X84545000Y-87005000D01*
D36*
X108525030Y-118559000D02*
X111669000Y-118559000D01*
X119454234Y-70914234D02*
X119370000Y-70998468D01*
D37*
X84545000Y-87005000D02*
X83970000Y-87580000D01*
D39*
%TO.N,/VDD*%
X92270000Y-81770000D02*
X93040000Y-81000000D01*
D36*
X120870000Y-69510000D02*
X123150000Y-67230000D01*
D39*
X99760000Y-81000000D02*
X99780000Y-81020000D01*
X87900000Y-80960000D02*
X88710000Y-81770000D01*
D36*
X123150000Y-67230000D02*
X123150000Y-63860000D01*
D39*
X84750000Y-76160000D02*
X87900000Y-79310000D01*
D36*
X120850000Y-69510000D02*
X120870000Y-69510000D01*
D39*
X84500000Y-76160000D02*
X84750000Y-76160000D01*
X87900000Y-79310000D02*
X87900000Y-80960000D01*
X88710000Y-81770000D02*
X92270000Y-81770000D01*
X93040000Y-81000000D02*
X99760000Y-81000000D01*
D36*
%TO.N,/ESP32/EN*%
X127675000Y-61485000D02*
X129400000Y-59760000D01*
X122101300Y-70898700D02*
X126540000Y-66460000D01*
X123160000Y-71963700D02*
X122101300Y-70905000D01*
X127228000Y-104448000D02*
X128027000Y-104448000D01*
X126540000Y-66460000D02*
X126540000Y-62620000D01*
X129400000Y-59760000D02*
X129400000Y-58365000D01*
X126540000Y-62620000D02*
X127675000Y-61485000D01*
X122101300Y-70905000D02*
X122101300Y-70898700D01*
X123160000Y-81133600D02*
X123160000Y-71963700D01*
D37*
%TO.N,/5V*%
X92161000Y-142859000D02*
X92161000Y-143622000D01*
X95560000Y-139450000D02*
X95560000Y-139460000D01*
X96290000Y-138720000D02*
X95560000Y-139450000D01*
X98770000Y-138720000D02*
X96290000Y-138720000D01*
D38*
X81160000Y-70950000D02*
X82330000Y-72120000D01*
X80680000Y-70950000D02*
X81160000Y-70950000D01*
D37*
X95560000Y-139460000D02*
X92161000Y-142859000D01*
%TO.N,/3V3*%
X129830000Y-56090000D02*
X129400000Y-56520000D01*
X129400000Y-56520000D02*
X129400000Y-57095000D01*
X124420000Y-82860000D02*
X124420000Y-81360000D01*
D36*
X107930000Y-79595000D02*
X110115000Y-79595000D01*
X112160000Y-77550000D02*
X112160000Y-74520000D01*
D37*
X126000000Y-84500000D02*
X126000000Y-84440000D01*
X126000000Y-84440000D02*
X124420000Y-82860000D01*
D36*
X110115000Y-79595000D02*
X112160000Y-77550000D01*
%TO.N,/TX*%
X116380000Y-79250000D02*
X114840000Y-79250000D01*
X114260000Y-79830000D02*
X114260000Y-81360000D01*
X114840000Y-79250000D02*
X114260000Y-79830000D01*
%TO.N,/RX*%
X114280000Y-78420000D02*
X112990000Y-79710000D01*
X112990000Y-79710000D02*
X112990000Y-81360000D01*
X115580000Y-78420000D02*
X114280000Y-78420000D01*
%TO.N,/RST*%
X121476817Y-70170000D02*
X124420000Y-67226817D01*
X124420000Y-67226817D02*
X124420000Y-63860000D01*
D39*
%TO.N,/SCL*%
X90490000Y-134520000D02*
X81890000Y-125920000D01*
X81430000Y-74660000D02*
X79560000Y-72790000D01*
X79560000Y-72790000D02*
X79560000Y-58130000D01*
X79560000Y-58130000D02*
X82318000Y-55372000D01*
D36*
X106885000Y-66895000D02*
X106610000Y-66620000D01*
D39*
X88970000Y-81220000D02*
X88360000Y-80610000D01*
X88360000Y-80610000D02*
X88360000Y-78750000D01*
X94110000Y-134520000D02*
X90490000Y-134520000D01*
X95260000Y-133370000D02*
X94110000Y-134520000D01*
X88360000Y-78750000D02*
X84270000Y-74660000D01*
X82318000Y-55372000D02*
X87005000Y-55372000D01*
D36*
X107930000Y-66895000D02*
X106885000Y-66895000D01*
X106610000Y-66620000D02*
X106610000Y-59449183D01*
D39*
X81890000Y-74660000D02*
X81430000Y-74660000D01*
X84270000Y-74660000D02*
X81890000Y-74660000D01*
D36*
X106610000Y-59449183D02*
X102532817Y-55372000D01*
X102532817Y-55372000D02*
X87355000Y-55372000D01*
D39*
X81890000Y-125920000D02*
X81890000Y-74660000D01*
%TO.N,/ESP32/USB_D+*%
X85320000Y-82510000D02*
X85450000Y-82640000D01*
X103530000Y-83510000D02*
X104080000Y-82960000D01*
X84545000Y-82510000D02*
X85320000Y-82510000D01*
X104080000Y-82960000D02*
X109271632Y-82960000D01*
X84545000Y-83510000D02*
X85450000Y-83510000D01*
X109530000Y-82701632D02*
X109530000Y-81710000D01*
X109271632Y-82960000D02*
X109530000Y-82701632D01*
X109530000Y-81710000D02*
X109180000Y-81360000D01*
X85450000Y-83510000D02*
X103530000Y-83510000D01*
X85450000Y-82640000D02*
X85450000Y-83510000D01*
%TO.N,/ESP32/USB_D-*%
X110100000Y-82630000D02*
X110100000Y-81710000D01*
X84545000Y-84010000D02*
X85690000Y-84010000D01*
X110100000Y-81710000D02*
X110450000Y-81360000D01*
X83770000Y-83010000D02*
X83690000Y-83090000D01*
X104240000Y-83320000D02*
X109410000Y-83320000D01*
X83810000Y-84010000D02*
X84545000Y-84010000D01*
X83690000Y-83090000D02*
X83690000Y-83890000D01*
X83690000Y-83890000D02*
X83810000Y-84010000D01*
X84545000Y-83010000D02*
X83770000Y-83010000D01*
X85690000Y-84010000D02*
X85837600Y-83862400D01*
X103697600Y-83862400D02*
X104240000Y-83320000D01*
X85837600Y-83862400D02*
X103697600Y-83862400D01*
X109410000Y-83320000D02*
X110100000Y-82630000D01*
%TO.N,Net-(U2-BP1V5)*%
X83990000Y-76900000D02*
X83660000Y-76570000D01*
X88880000Y-82980000D02*
X87420000Y-81520000D01*
X91690000Y-82980000D02*
X88880000Y-82980000D01*
X87420000Y-79290000D02*
X85030000Y-76900000D01*
X87420000Y-81520000D02*
X87420000Y-79290000D01*
X85030000Y-76900000D02*
X83990000Y-76900000D01*
D36*
%TO.N,/ESP32/P_TX*%
X121880000Y-62510000D02*
X121880000Y-63860000D01*
X126005000Y-61285000D02*
X128230000Y-59060000D01*
X128230000Y-59060000D02*
X128230000Y-58355000D01*
X123105000Y-61285000D02*
X121880000Y-62510000D01*
X123105000Y-61285000D02*
X126005000Y-61285000D01*
%TO.N,/ESP32/P_RX*%
X123040000Y-59730000D02*
X120610000Y-62160000D01*
X123040000Y-59730000D02*
X125050000Y-57720000D01*
X126325000Y-57720000D02*
X126960000Y-58355000D01*
X125050000Y-57720000D02*
X126325000Y-57720000D01*
X120610000Y-62160000D02*
X120610000Y-63860000D01*
%TO.N,/ESP32/IO0*%
X126830000Y-56955000D02*
X126960000Y-57085000D01*
D39*
X109180000Y-63860000D02*
X109180000Y-65190000D01*
D36*
X125830000Y-111062000D02*
X127923000Y-113155000D01*
X126520000Y-102640000D02*
X125830000Y-103330000D01*
D39*
X109180000Y-65190000D02*
X110935600Y-66945600D01*
D36*
X126310000Y-55100000D02*
X126830000Y-55620000D01*
X124830000Y-55100000D02*
X126310000Y-55100000D01*
D39*
X110935600Y-66945600D02*
X121244400Y-66945600D01*
D36*
X126830000Y-55620000D02*
X126830000Y-56955000D01*
X125830000Y-103330000D02*
X125830000Y-111062000D01*
D39*
%TO.N,Net-(U2-VDD5)*%
X92630000Y-74170000D02*
X92570000Y-74110000D01*
X102390000Y-74170000D02*
X92630000Y-74170000D01*
X102820000Y-73740000D02*
X102390000Y-74170000D01*
%TO.N,/Power/PGOOD*%
X106610000Y-81250000D02*
X106610000Y-74840000D01*
X106610000Y-74840000D02*
X106935000Y-74515000D01*
X106935000Y-74515000D02*
X107930000Y-74515000D01*
X105580000Y-82280000D02*
X106610000Y-81250000D01*
X109385000Y-74515000D02*
X109410000Y-74490000D01*
X107930000Y-74515000D02*
X109385000Y-74515000D01*
X89020000Y-82280000D02*
X105580000Y-82280000D01*
D36*
%TO.N,/BM1366/VDD3_0*%
X113320000Y-111290000D02*
X110571000Y-114039000D01*
X110571000Y-114039000D02*
X108508000Y-114039000D01*
X113470000Y-111290000D02*
X113320000Y-111290000D01*
%TO.N,/SDA*%
X107180000Y-68165000D02*
X107930000Y-68165000D01*
D39*
X94220000Y-133370000D02*
X94110000Y-133370000D01*
X82130000Y-73910000D02*
X82130000Y-74280000D01*
X88990000Y-80510000D02*
X88670000Y-80190000D01*
X88670000Y-80190000D02*
X88670000Y-78633474D01*
X81540000Y-74320000D02*
X79861600Y-72641600D01*
D36*
X106150000Y-67135000D02*
X107180000Y-68165000D01*
D39*
X82230000Y-76060000D02*
X82390000Y-75900000D01*
X81298000Y-57912000D02*
X87405000Y-57912000D01*
X82130000Y-74280000D02*
X82090000Y-74320000D01*
X90650000Y-134200000D02*
X82230000Y-125780000D01*
D36*
X87087000Y-57880000D02*
X104300000Y-57880000D01*
X87055000Y-57912000D02*
X87087000Y-57880000D01*
D39*
X82090000Y-74320000D02*
X81540000Y-74320000D01*
X88670000Y-78633474D02*
X84356526Y-74320000D01*
X93280000Y-134200000D02*
X90650000Y-134200000D01*
D36*
X104300000Y-57880000D02*
X106150000Y-59730000D01*
D39*
X79861600Y-72641600D02*
X79861600Y-59348400D01*
X82491600Y-75900000D02*
X82390000Y-75900000D01*
X84356526Y-74320000D02*
X82090000Y-74320000D01*
X79861600Y-59348400D02*
X81298000Y-57912000D01*
D36*
X106150000Y-59730000D02*
X106150000Y-67135000D01*
D39*
X94110000Y-133370000D02*
X93280000Y-134200000D01*
X82230000Y-125780000D02*
X82230000Y-76060000D01*
D36*
%TO.N,/BM1366/1V2*%
X109630000Y-119900000D02*
X109293000Y-119563000D01*
X124520000Y-101750000D02*
X124600000Y-101830000D01*
X109293000Y-119563000D02*
X108525030Y-119563000D01*
X117120000Y-101750000D02*
X124520000Y-101750000D01*
X110950000Y-124990000D02*
X109630000Y-123670000D01*
X109630000Y-123670000D02*
X109630000Y-119900000D01*
%TO.N,/BM1366/0V8*%
X110970000Y-119930000D02*
X110970000Y-123700000D01*
X108525030Y-119061000D02*
X110101000Y-119061000D01*
X110101000Y-119061000D02*
X110970000Y-119930000D01*
%TO.N,Net-(J4-Pin_3)*%
X115530000Y-63020000D02*
X116380000Y-62170000D01*
X112780000Y-54210000D02*
X107407505Y-54210000D01*
X115530000Y-63860000D02*
X115530000Y-63020000D01*
X107407505Y-54210000D02*
X104251505Y-51054000D01*
X116380000Y-62170000D02*
X116380000Y-57810000D01*
X116380000Y-57810000D02*
X112780000Y-54210000D01*
%TO.N,Net-(J4-Pin_6)*%
X119340000Y-63860000D02*
X119340000Y-55550000D01*
X119340000Y-55550000D02*
X114844000Y-51054000D01*
X114844000Y-51054000D02*
X111871505Y-51054000D01*
%TO.N,Net-(J4-Pin_5)*%
X110777505Y-52500000D02*
X109331505Y-51054000D01*
X118070000Y-63860000D02*
X118070000Y-56010000D01*
X114560000Y-52500000D02*
X110777505Y-52500000D01*
X118070000Y-56010000D02*
X114560000Y-52500000D01*
%TO.N,Net-(J4-Pin_4)*%
X113650000Y-53350000D02*
X109087505Y-53350000D01*
X116800000Y-63860000D02*
X116800000Y-62820000D01*
X117220000Y-56920000D02*
X113650000Y-53350000D01*
X116800000Y-62820000D02*
X117220000Y-62400000D01*
X109087505Y-53350000D02*
X106791505Y-51054000D01*
X117220000Y-62400000D02*
X117220000Y-56920000D01*
%TO.N,/BM1366/VDD2_0*%
X110063000Y-113537000D02*
X108508000Y-113537000D01*
X112390000Y-109350000D02*
X112380000Y-109360000D01*
X112380000Y-109360000D02*
X112380000Y-111220000D01*
X112380000Y-111220000D02*
X110063000Y-113537000D01*
%TO.N,/BM1366/VDD1_0*%
X111000000Y-107900000D02*
X111030000Y-107870000D01*
X111000000Y-111630000D02*
X111000000Y-107900000D01*
X108526562Y-113032000D02*
X109598000Y-113032000D01*
X109598000Y-113032000D02*
X111000000Y-111630000D01*
%TO.N,/BM1366/VDD1_1*%
X101522000Y-113032000D02*
X102694562Y-113032000D01*
X100553800Y-107457400D02*
X100540000Y-107471200D01*
X100540000Y-112050000D02*
X101522000Y-113032000D01*
X100540000Y-107471200D02*
X100540000Y-112050000D01*
%TO.N,Net-(U12-VDDIO_18_1)*%
X100760000Y-123690000D02*
X100760000Y-120500000D01*
X101697000Y-119563000D02*
X102693030Y-119563000D01*
X100760000Y-120500000D02*
X101697000Y-119563000D01*
X100770000Y-123700000D02*
X100760000Y-123690000D01*
%TO.N,/BM1366/VDD2_1*%
X99360000Y-109210000D02*
X99360000Y-111710000D01*
X99360000Y-111710000D02*
X101187000Y-113537000D01*
X101187000Y-113537000D02*
X102676000Y-113537000D01*
%TO.N,Net-(U12-VDDIO_08_1)*%
X100018600Y-122871400D02*
X100018600Y-120441400D01*
X100018600Y-120441400D02*
X101399000Y-119061000D01*
X99180000Y-123710000D02*
X100018600Y-122871400D01*
X101399000Y-119061000D02*
X102693030Y-119061000D01*
%TO.N,/BM1366/VDD3_1*%
X98140000Y-111480000D02*
X100700000Y-114040000D01*
X102690562Y-114040000D02*
X102694562Y-114036000D01*
X100700000Y-114040000D02*
X102690562Y-114040000D01*
X98140000Y-111060000D02*
X98140000Y-111480000D01*
%TO.N,/BM1366/BI*%
X108525030Y-115547000D02*
X114293000Y-115547000D01*
X114293000Y-115547000D02*
X116650000Y-113190000D01*
%TO.N,/BM1366/RST_N*%
X117140000Y-108980000D02*
X117140000Y-111740000D01*
X117140000Y-111740000D02*
X113840000Y-115040000D01*
X113800000Y-98950000D02*
X113420000Y-98950000D01*
X112400000Y-104240000D02*
X117140000Y-108980000D01*
X112400000Y-99970000D02*
X112400000Y-104240000D01*
X113840000Y-115040000D02*
X108526562Y-115040000D01*
X113420000Y-98950000D02*
X112400000Y-99970000D01*
%TO.N,/BM1366/RO*%
X117300000Y-108370000D02*
X113020000Y-104090000D01*
X113020000Y-100480000D02*
X113010000Y-100470000D01*
X117300000Y-108370000D02*
X117610000Y-108680000D01*
X117610000Y-108680000D02*
X117610000Y-113070000D01*
X114636000Y-116044000D02*
X108526562Y-116044000D01*
X117610000Y-113070000D02*
X114636000Y-116044000D01*
X113020000Y-104090000D02*
X113020000Y-100480000D01*
%TO.N,/BM1366/CI*%
X113770000Y-99770000D02*
X113770000Y-104132893D01*
X118510000Y-114680000D02*
X116137000Y-117053000D01*
X113770000Y-104132893D02*
X118510000Y-108872893D01*
X118510000Y-108872893D02*
X118510000Y-114680000D01*
X116137000Y-117053000D02*
X108525030Y-117053000D01*
%TO.N,Net-(U12-ADDR0)*%
X116820000Y-117550000D02*
X108526562Y-117550000D01*
X118120000Y-116250000D02*
X116820000Y-117550000D01*
X119430000Y-116250000D02*
X118120000Y-116250000D01*
%TO.N,Net-(U12-ADDR1)*%
X119420000Y-118020000D02*
X118804000Y-118020000D01*
X118772000Y-118052000D02*
X108526562Y-118052000D01*
X118804000Y-118020000D02*
X118772000Y-118052000D01*
%TO.N,/BM1366/INV_CLKO*%
X93995000Y-117545000D02*
X102694562Y-117545000D01*
X92480000Y-119060000D02*
X93995000Y-117545000D01*
%TO.N,/BM1366/CLKI*%
X117880000Y-114000000D02*
X115334000Y-116546000D01*
X115334000Y-116546000D02*
X108526562Y-116546000D01*
%TO.N,/BM1366/NRSTO*%
X95310000Y-115040000D02*
X102694562Y-115040000D01*
X92480000Y-112210000D02*
X95310000Y-115040000D01*
%TO.N,/BM1366/BO*%
X92480000Y-113611428D02*
X92531428Y-113611428D01*
X94462000Y-115542000D02*
X102694562Y-115542000D01*
X92531428Y-113611428D02*
X94462000Y-115542000D01*
%TO.N,/BM1366/RI*%
X93614000Y-116044000D02*
X102694562Y-116044000D01*
X92582856Y-115012856D02*
X93614000Y-116044000D01*
X92480000Y-115012856D02*
X92582856Y-115012856D01*
%TO.N,/BM1366/CLKO*%
X92610716Y-116545000D02*
X102694562Y-116545000D01*
X92480000Y-116414284D02*
X92610716Y-116545000D01*
%TO.N,/BM1366/CO*%
X93742000Y-117048000D02*
X102694562Y-117048000D01*
X92480000Y-117815712D02*
X92974288Y-117815712D01*
X92974288Y-117815712D02*
X93742000Y-117048000D01*
%TO.N,/BM1366/PIN_MODE*%
X94810000Y-118060000D02*
X102690030Y-118060000D01*
X92440000Y-120430000D02*
X94810000Y-118060000D01*
X102690030Y-118060000D02*
X102693030Y-118057000D01*
D39*
%TO.N,/Power/AGND*%
X89340000Y-74960000D02*
X89340000Y-77660000D01*
X89850000Y-73770000D02*
X90680000Y-72940000D01*
X89340000Y-73770000D02*
X89850000Y-73770000D01*
X89340000Y-77660000D02*
X89170000Y-77830000D01*
X89340000Y-73770000D02*
X89340000Y-74960000D01*
%TO.N,/Power/PMB_ALRT*%
X93720000Y-81940000D02*
X105300000Y-81940000D01*
X106230000Y-81010000D02*
X106230000Y-72410000D01*
X105300000Y-81940000D02*
X106230000Y-81010000D01*
X93330000Y-81550000D02*
X93720000Y-81940000D01*
X106665000Y-71975000D02*
X107930000Y-71975000D01*
X106230000Y-72410000D02*
X106665000Y-71975000D01*
%TD*%
%TA.AperFunction,Conductor*%
%TO.N,GND*%
G36*
X92497925Y-74505315D02*
G01*
X92517273Y-74510500D01*
X92622727Y-74510500D01*
X92641108Y-74505574D01*
X105904124Y-74529573D01*
X105971128Y-74549379D01*
X106016787Y-74602266D01*
X106027900Y-74653573D01*
X106027900Y-80874924D01*
X106008215Y-80941963D01*
X105991581Y-80962605D01*
X105871383Y-81082803D01*
X105810060Y-81116288D01*
X105783478Y-81119122D01*
X100304276Y-81109243D01*
X100237273Y-81089437D01*
X100191613Y-81036551D01*
X100180500Y-80985243D01*
X100180500Y-80967275D01*
X100180500Y-80967273D01*
X100153207Y-80865413D01*
X100100480Y-80774087D01*
X100025913Y-80699520D01*
X99934587Y-80646793D01*
X99832727Y-80619500D01*
X99727273Y-80619500D01*
X99625413Y-80646793D01*
X99625410Y-80646794D01*
X99534085Y-80699521D01*
X99472026Y-80761581D01*
X99410703Y-80795066D01*
X99384345Y-80797900D01*
X92999800Y-80797900D01*
X92987056Y-80803178D01*
X92956287Y-80815922D01*
X92956287Y-80815923D01*
X92936884Y-80823960D01*
X92925516Y-80828669D01*
X92695137Y-81059048D01*
X92633814Y-81092533D01*
X92607232Y-81095367D01*
X89752468Y-81090220D01*
X89685465Y-81070414D01*
X89639805Y-81017528D01*
X89628699Y-80967537D01*
X89628647Y-80962605D01*
X89569029Y-75350045D01*
X89587999Y-75282805D01*
X89605332Y-75261060D01*
X89660480Y-75205913D01*
X89713207Y-75114587D01*
X89740500Y-75012727D01*
X89740500Y-74907273D01*
X89713207Y-74805413D01*
X89660480Y-74714087D01*
X89658411Y-74712018D01*
X89657222Y-74709841D01*
X89655531Y-74707637D01*
X89655874Y-74707373D01*
X89624926Y-74650695D01*
X89629910Y-74581003D01*
X89671782Y-74525070D01*
X89737246Y-74500653D01*
X89746312Y-74500337D01*
X92497925Y-74505315D01*
G37*
%TD.AperFunction*%
%TD*%
%TA.AperFunction,Conductor*%
%TO.N,GND*%
G36*
X119916378Y-70319418D02*
G01*
X119983324Y-70339418D01*
X120028830Y-70392437D01*
X120039794Y-70443623D01*
X120037810Y-71640434D01*
X120018014Y-71707440D01*
X119965134Y-71753108D01*
X119900557Y-71763518D01*
X119867833Y-71760000D01*
X119620000Y-71760000D01*
X119620000Y-75386000D01*
X119600315Y-75453039D01*
X119547511Y-75498794D01*
X119496000Y-75510000D01*
X119370000Y-75510000D01*
X119370000Y-75636000D01*
X119350315Y-75703039D01*
X119297511Y-75748794D01*
X119246000Y-75760000D01*
X116694000Y-75760000D01*
X116626961Y-75740315D01*
X116581206Y-75687511D01*
X116570000Y-75636000D01*
X116570000Y-75510000D01*
X116444000Y-75510000D01*
X116376961Y-75490315D01*
X116331206Y-75437511D01*
X116320000Y-75386000D01*
X116320000Y-75260000D01*
X116820000Y-75260000D01*
X117720000Y-75260000D01*
X118220000Y-75260000D01*
X119120000Y-75260000D01*
X119120000Y-74360000D01*
X118220000Y-74360000D01*
X118220000Y-75260000D01*
X117720000Y-75260000D01*
X117720000Y-74360000D01*
X116820000Y-74360000D01*
X116820000Y-75260000D01*
X116320000Y-75260000D01*
X116320000Y-73860000D01*
X116820000Y-73860000D01*
X117720000Y-73860000D01*
X118220000Y-73860000D01*
X119120000Y-73860000D01*
X119120000Y-72960000D01*
X118220000Y-72960000D01*
X118220000Y-73860000D01*
X117720000Y-73860000D01*
X117720000Y-72960000D01*
X116820000Y-72960000D01*
X116820000Y-73860000D01*
X116320000Y-73860000D01*
X116320000Y-72460000D01*
X116820000Y-72460000D01*
X117720000Y-72460000D01*
X118220000Y-72460000D01*
X119120000Y-72460000D01*
X119120000Y-71760000D01*
X118872155Y-71760000D01*
X118812627Y-71766401D01*
X118812616Y-71766403D01*
X118713332Y-71803434D01*
X118643640Y-71808418D01*
X118626668Y-71803434D01*
X118527383Y-71766403D01*
X118527372Y-71766401D01*
X118467844Y-71760000D01*
X118220000Y-71760000D01*
X118220000Y-72460000D01*
X117720000Y-72460000D01*
X117720000Y-71760000D01*
X117472155Y-71760000D01*
X117412627Y-71766401D01*
X117412616Y-71766403D01*
X117313332Y-71803434D01*
X117243640Y-71808418D01*
X117226668Y-71803434D01*
X117127383Y-71766403D01*
X117127372Y-71766401D01*
X117067844Y-71760000D01*
X116820000Y-71760000D01*
X116820000Y-72460000D01*
X116320000Y-72460000D01*
X116320000Y-71760000D01*
X116072155Y-71760000D01*
X116012627Y-71766401D01*
X116012621Y-71766402D01*
X115955052Y-71787874D01*
X115885361Y-71792857D01*
X115824038Y-71759371D01*
X115790554Y-71698047D01*
X115787721Y-71671492D01*
X115789793Y-70424376D01*
X115809589Y-70357371D01*
X115862469Y-70311704D01*
X115914375Y-70300585D01*
X119916378Y-70319418D01*
G37*
%TD.AperFunction*%
%TD*%
%TA.AperFunction,Conductor*%
%TO.N,/5V*%
G36*
X94532607Y-65409727D02*
G01*
X94578402Y-65462497D01*
X94589645Y-65514446D01*
X94580000Y-68899823D01*
X94580000Y-72235344D01*
X94560315Y-72302383D01*
X94507511Y-72348138D01*
X94455346Y-72359342D01*
X81423346Y-72290650D01*
X81356412Y-72270613D01*
X81310936Y-72217568D01*
X81300000Y-72166652D01*
X81300000Y-67374995D01*
X81319685Y-67307956D01*
X81372489Y-67262201D01*
X81441647Y-67252257D01*
X81505203Y-67281282D01*
X81511681Y-67287314D01*
X81660342Y-67435975D01*
X81660345Y-67435977D01*
X81832402Y-67550941D01*
X82023580Y-67630130D01*
X82226530Y-67670499D01*
X82226534Y-67670500D01*
X82226535Y-67670500D01*
X82433466Y-67670500D01*
X82433467Y-67670499D01*
X82636420Y-67630130D01*
X82827598Y-67550941D01*
X82999655Y-67435977D01*
X83145977Y-67289655D01*
X83260941Y-67117598D01*
X83340130Y-66926420D01*
X83380500Y-66723465D01*
X83380500Y-66516535D01*
X83340130Y-66313580D01*
X83260941Y-66122402D01*
X83145977Y-65950345D01*
X83145975Y-65950342D01*
X82999657Y-65804024D01*
X82827596Y-65689057D01*
X82703050Y-65637469D01*
X82648647Y-65593628D01*
X82626582Y-65527334D01*
X82643861Y-65459634D01*
X82694999Y-65412024D01*
X82750407Y-65398908D01*
X86180808Y-65396327D01*
X86247861Y-65415961D01*
X86293656Y-65468731D01*
X86303651Y-65537882D01*
X86274674Y-65601459D01*
X86237198Y-65630810D01*
X86227004Y-65636004D01*
X86080505Y-65742441D01*
X86080500Y-65742445D01*
X85952445Y-65870500D01*
X85952441Y-65870505D01*
X85846006Y-66017002D01*
X85763788Y-66178360D01*
X85763787Y-66178363D01*
X85707829Y-66350589D01*
X85679500Y-66529448D01*
X85679500Y-66710551D01*
X85707829Y-66889410D01*
X85763787Y-67061636D01*
X85763788Y-67061639D01*
X85846006Y-67222997D01*
X85952441Y-67369494D01*
X85952445Y-67369499D01*
X86080500Y-67497554D01*
X86080505Y-67497558D01*
X86208287Y-67590396D01*
X86227006Y-67603996D01*
X86278299Y-67630131D01*
X86388360Y-67686211D01*
X86388363Y-67686212D01*
X86474476Y-67714191D01*
X86560591Y-67742171D01*
X86643429Y-67755291D01*
X86739449Y-67770500D01*
X86739454Y-67770500D01*
X86920551Y-67770500D01*
X87007259Y-67756765D01*
X87099409Y-67742171D01*
X87271639Y-67686211D01*
X87432994Y-67603996D01*
X87579501Y-67497553D01*
X87707553Y-67369501D01*
X87813996Y-67222994D01*
X87896211Y-67061639D01*
X87952171Y-66889409D01*
X87966765Y-66797259D01*
X87980500Y-66710551D01*
X87980500Y-66529448D01*
X87964019Y-66425397D01*
X87952171Y-66350591D01*
X87896211Y-66178361D01*
X87896211Y-66178360D01*
X87867698Y-66122402D01*
X87813996Y-66017006D01*
X87765562Y-65950342D01*
X87707558Y-65870505D01*
X87707554Y-65870500D01*
X87579499Y-65742445D01*
X87579494Y-65742441D01*
X87432995Y-65636004D01*
X87420891Y-65629837D01*
X87370095Y-65581863D01*
X87353299Y-65514042D01*
X87375836Y-65447907D01*
X87430551Y-65404455D01*
X87477091Y-65395352D01*
X94465555Y-65390093D01*
X94532607Y-65409727D01*
G37*
%TD.AperFunction*%
%TD*%
%TA.AperFunction,Conductor*%
%TO.N,/VDD*%
G36*
X109395630Y-96993391D02*
G01*
X109463486Y-97014272D01*
X109509281Y-97068525D01*
X109520000Y-97119380D01*
X109520000Y-112159077D01*
X109511216Y-112188992D01*
X109504588Y-112219462D01*
X109500773Y-112224557D01*
X109499998Y-112227198D01*
X109483095Y-112248172D01*
X109371672Y-112359595D01*
X109309360Y-112393621D01*
X109282577Y-112396500D01*
X108463965Y-112396500D01*
X108368051Y-112415579D01*
X108343471Y-112418000D01*
X108147328Y-112418000D01*
X108147319Y-112418001D01*
X108048133Y-112431059D01*
X108037112Y-112432510D01*
X108037110Y-112432510D01*
X108037109Y-112432511D01*
X107899975Y-112489312D01*
X107782208Y-112579678D01*
X107691842Y-112697445D01*
X107635040Y-112834581D01*
X107620530Y-112944795D01*
X107620530Y-113129201D01*
X107620531Y-113129210D01*
X107635040Y-113239417D01*
X107635192Y-113239784D01*
X107635228Y-113240119D01*
X107637177Y-113247393D01*
X107636042Y-113247697D01*
X107642779Y-113310374D01*
X107635194Y-113336209D01*
X107635040Y-113336580D01*
X107620530Y-113446795D01*
X107620530Y-113631201D01*
X107620531Y-113631210D01*
X107635040Y-113741417D01*
X107635192Y-113741784D01*
X107635228Y-113742119D01*
X107637177Y-113749393D01*
X107636042Y-113749697D01*
X107642779Y-113812374D01*
X107635194Y-113838209D01*
X107635040Y-113838580D01*
X107620530Y-113948795D01*
X107620530Y-114133201D01*
X107620531Y-114133210D01*
X107635040Y-114243417D01*
X107635192Y-114243784D01*
X107635251Y-114244206D01*
X107637177Y-114251393D01*
X107636292Y-114251629D01*
X107643966Y-114306319D01*
X107641956Y-114323883D01*
X107635040Y-114340582D01*
X107620530Y-114450797D01*
X107620530Y-114511184D01*
X107619714Y-114518320D01*
X107608587Y-114544673D01*
X107600528Y-114572121D01*
X107594962Y-114576943D01*
X107592099Y-114583726D01*
X107568492Y-114599879D01*
X107546872Y-114618614D01*
X107538431Y-114620450D01*
X107533507Y-114623820D01*
X107521320Y-114624172D01*
X107494530Y-114630000D01*
X103723529Y-114630000D01*
X103655408Y-114609998D01*
X103608915Y-114556342D01*
X103597529Y-114504000D01*
X103597529Y-114450798D01*
X103597528Y-114450789D01*
X103591434Y-114404500D01*
X103583020Y-114340582D01*
X103582869Y-114340219D01*
X103582834Y-114339887D01*
X103580882Y-114332601D01*
X103582018Y-114332296D01*
X103575280Y-114269631D01*
X103582870Y-114243780D01*
X103583020Y-114243418D01*
X103597530Y-114133203D01*
X103597529Y-113948798D01*
X103583020Y-113838582D01*
X103582869Y-113838219D01*
X103582834Y-113837887D01*
X103580882Y-113830601D01*
X103582018Y-113830296D01*
X103575280Y-113767631D01*
X103582870Y-113741780D01*
X103583020Y-113741418D01*
X103597530Y-113631203D01*
X103597529Y-113446798D01*
X103583020Y-113336582D01*
X103582869Y-113336219D01*
X103582834Y-113335887D01*
X103580882Y-113328601D01*
X103582018Y-113328296D01*
X103575280Y-113265631D01*
X103582870Y-113239780D01*
X103583020Y-113239418D01*
X103597530Y-113129203D01*
X103597529Y-112944798D01*
X103583020Y-112834582D01*
X103554617Y-112766012D01*
X103526217Y-112697445D01*
X103526215Y-112697442D01*
X103435852Y-112579678D01*
X103318088Y-112489315D01*
X103318087Y-112489314D01*
X103318084Y-112489312D01*
X103180948Y-112432510D01*
X103070735Y-112418000D01*
X103070733Y-112418000D01*
X102877652Y-112418000D01*
X102853071Y-112415579D01*
X102835434Y-112412071D01*
X102757156Y-112396500D01*
X102757153Y-112396500D01*
X101916000Y-112396500D01*
X101847879Y-112376498D01*
X101801386Y-112322842D01*
X101790000Y-112270500D01*
X101790000Y-97022640D01*
X101810002Y-96954519D01*
X101863658Y-96908026D01*
X101917629Y-96896651D01*
X109395630Y-96993391D01*
G37*
%TD.AperFunction*%
%TD*%
%TA.AperFunction,Conductor*%
%TO.N,GND*%
G36*
X102026226Y-59639591D02*
G01*
X102093200Y-59659496D01*
X102138780Y-59712451D01*
X102149816Y-59763773D01*
X102140183Y-66276273D01*
X102120399Y-66343284D01*
X102067528Y-66388960D01*
X102016274Y-66400090D01*
X95334091Y-66404970D01*
X95267037Y-66385334D01*
X95221243Y-66332564D01*
X95210000Y-66280970D01*
X95210000Y-64784721D01*
X81093308Y-64760214D01*
X81026303Y-64740413D01*
X80980639Y-64687530D01*
X80969524Y-64636695D01*
X80950481Y-59694888D01*
X80969907Y-59627774D01*
X81022534Y-59581816D01*
X81074887Y-59570412D01*
X102026226Y-59639591D01*
G37*
%TD.AperFunction*%
%TD*%
M02*
