%TF.GenerationSoftware,KiCad,Pcbnew,9.0.1*%
%TF.CreationDate,2026-01-28T17:12:30+08:00*%
%TF.ProjectId,bitaxeUltra,62697461-7865-4556-9c74-72612e6b6963,rev?*%
%TF.SameCoordinates,Original*%
%TF.FileFunction,Soldermask,Bot*%
%TF.FilePolarity,Negative*%
%FSLAX46Y46*%
G04 Gerber Fmt 4.6, Leading zero omitted, Abs format (unit mm)*
G04 Created by KiCad (PCBNEW 9.0.1) date 2026-01-28 17:12:30*
%MOMM*%
%LPD*%
G01*
G04 APERTURE LIST*
G04 Aperture macros list*
%AMRoundRect*
0 Rectangle with rounded corners*
0 $1 Rounding radius*
0 $2 $3 $4 $5 $6 $7 $8 $9 X,Y pos of 4 corners*
0 Add a 4 corners polygon primitive as box body*
4,1,4,$2,$3,$4,$5,$6,$7,$8,$9,$2,$3,0*
0 Add four circle primitives for the rounded corners*
1,1,$1+$1,$2,$3*
1,1,$1+$1,$4,$5*
1,1,$1+$1,$6,$7*
1,1,$1+$1,$8,$9*
0 Add four rect primitives between the rounded corners*
20,1,$1+$1,$2,$3,$4,$5,0*
20,1,$1+$1,$4,$5,$6,$7,0*
20,1,$1+$1,$6,$7,$8,$9,0*
20,1,$1+$1,$8,$9,$2,$3,0*%
G04 Aperture macros list end*
%ADD10C,0.010000*%
%ADD11C,0.120000*%
%ADD12C,0.000000*%
%ADD13C,3.000000*%
%ADD14C,0.800000*%
%ADD15C,6.000000*%
%ADD16R,1.700000X1.700000*%
%ADD17O,1.700000X1.700000*%
%ADD18C,3.500000*%
%ADD19C,0.400000*%
%ADD20C,1.295400*%
%ADD21C,1.574800*%
%ADD22C,1.700000*%
%ADD23C,2.000000*%
%ADD24RoundRect,0.055250X0.340750X0.055250X-0.340750X0.055250X-0.340750X-0.055250X0.340750X-0.055250X0*%
%ADD25C,0.650000*%
%ADD26RoundRect,0.150000X0.425000X-0.150000X0.425000X0.150000X-0.425000X0.150000X-0.425000X-0.150000X0*%
%ADD27RoundRect,0.075000X0.500000X-0.075000X0.500000X0.075000X-0.500000X0.075000X-0.500000X-0.075000X0*%
%ADD28O,1.800000X1.000000*%
%ADD29O,2.100000X1.000000*%
%ADD30R,0.900000X1.500000*%
%ADD31R,1.500000X0.900000*%
%ADD32R,0.900000X0.900000*%
%ADD33C,0.990600*%
%ADD34C,0.787400*%
%ADD35C,1.600000*%
%ADD36C,1.800000*%
%ADD37RoundRect,0.102000X1.000000X-1.000000X1.000000X1.000000X-1.000000X1.000000X-1.000000X-1.000000X0*%
%ADD38R,0.900000X1.800000*%
G04 APERTURE END LIST*
%TO.C,U12*%
D10*
X103470530Y-114730000D02*
X105447530Y-114730000D01*
X105447530Y-112923000D01*
X103470530Y-112923000D01*
X103470530Y-114730000D01*
G36*
X103470530Y-114730000D02*
G01*
X105447530Y-114730000D01*
X105447530Y-112923000D01*
X103470530Y-112923000D01*
X103470530Y-114730000D01*
G37*
X103470530Y-116450000D02*
X105447530Y-116450000D01*
X105447530Y-115143000D01*
X103470530Y-115143000D01*
X103470530Y-116450000D01*
G36*
X103470530Y-116450000D02*
G01*
X105447530Y-116450000D01*
X105447530Y-115143000D01*
X103470530Y-115143000D01*
X103470530Y-116450000D01*
G37*
X103480530Y-118090000D02*
X105457530Y-118090000D01*
X105457530Y-116783000D01*
X103480530Y-116783000D01*
X103480530Y-118090000D01*
G36*
X103480530Y-118090000D02*
G01*
X105457530Y-118090000D01*
X105457530Y-116783000D01*
X103480530Y-116783000D01*
X103480530Y-118090000D01*
G37*
X103480530Y-119680000D02*
X105457530Y-119680000D01*
X105457530Y-118373000D01*
X103480530Y-118373000D01*
X103480530Y-119680000D01*
G36*
X103480530Y-119680000D02*
G01*
X105457530Y-119680000D01*
X105457530Y-118373000D01*
X103480530Y-118373000D01*
X103480530Y-119680000D01*
G37*
X105759030Y-114747000D02*
X107736030Y-114747000D01*
X107736030Y-112940000D01*
X105759030Y-112940000D01*
X105759030Y-114747000D01*
G36*
X105759030Y-114747000D02*
G01*
X107736030Y-114747000D01*
X107736030Y-112940000D01*
X105759030Y-112940000D01*
X105759030Y-114747000D01*
G37*
X105759030Y-119677000D02*
X107736030Y-119677000D01*
X107736030Y-118370000D01*
X105759030Y-118370000D01*
X105759030Y-119677000D01*
G36*
X105759030Y-119677000D02*
G01*
X107736030Y-119677000D01*
X107736030Y-118370000D01*
X105759030Y-118370000D01*
X105759030Y-119677000D01*
G37*
X105765530Y-116460000D02*
X107742530Y-116460000D01*
X107742530Y-115153000D01*
X105765530Y-115153000D01*
X105765530Y-116460000D01*
G36*
X105765530Y-116460000D02*
G01*
X107742530Y-116460000D01*
X107742530Y-115153000D01*
X105765530Y-115153000D01*
X105765530Y-116460000D01*
G37*
X105770530Y-118080000D02*
X107747530Y-118080000D01*
X107747530Y-116773000D01*
X105770530Y-116773000D01*
X105770530Y-118080000D01*
G36*
X105770530Y-118080000D02*
G01*
X107747530Y-118080000D01*
X107747530Y-116773000D01*
X105770530Y-116773000D01*
X105770530Y-118080000D01*
G37*
D11*
%TO.C,U4*%
X133180000Y-81610000D02*
X133180000Y-63610000D01*
D12*
%TO.C,G\u002A\u002A\u002A*%
G36*
X100896717Y-90872242D02*
G01*
X100896717Y-92210854D01*
X99644418Y-92210854D01*
X98392119Y-92210854D01*
X98091685Y-91910395D01*
X97791251Y-91609936D01*
X98940382Y-91609936D01*
X100089514Y-91609936D01*
X100089514Y-91378986D01*
X100089514Y-91148036D01*
X99361896Y-91148036D01*
X98634277Y-91148036D01*
X98362995Y-90876726D01*
X98091713Y-90605416D01*
X99090613Y-90605416D01*
X100089514Y-90605416D01*
X100089514Y-90367740D01*
X100089514Y-90130063D01*
X99189258Y-90129625D01*
X98289002Y-90129188D01*
X97993455Y-89831409D01*
X97697908Y-89533630D01*
X99297312Y-89533630D01*
X100896717Y-89533630D01*
X100896717Y-90872242D01*
G37*
G36*
X111852261Y-90872217D02*
G01*
X111852261Y-91603185D01*
X111548451Y-91907020D01*
X111244641Y-92210854D01*
X110132494Y-92210854D01*
X109020347Y-92210854D01*
X108716512Y-91907044D01*
X108412677Y-91603234D01*
X108412677Y-90872267D01*
X108412677Y-90141299D01*
X108423912Y-90130063D01*
X109219881Y-90130063D01*
X109219881Y-90870000D01*
X109219881Y-91609936D01*
X110132469Y-91609936D01*
X111045057Y-91609936D01*
X111045057Y-90870000D01*
X111045057Y-90130063D01*
X110132469Y-90130063D01*
X109219881Y-90130063D01*
X108423912Y-90130063D01*
X108716487Y-89837464D01*
X109020298Y-89533630D01*
X110132444Y-89533630D01*
X111244591Y-89533630D01*
X111548426Y-89837440D01*
X111852261Y-90141250D01*
X111852261Y-90870000D01*
X111852261Y-90872217D01*
G37*
G36*
X89703497Y-89304222D02*
G01*
X90104856Y-89536170D01*
X90106004Y-90867907D01*
X90106006Y-90869362D01*
X90106092Y-90978092D01*
X90106163Y-91084510D01*
X90106218Y-91188266D01*
X90106258Y-91289008D01*
X90106282Y-91386388D01*
X90106292Y-91480053D01*
X90106288Y-91569655D01*
X90106269Y-91654843D01*
X90106236Y-91735266D01*
X90106190Y-91810574D01*
X90106130Y-91880416D01*
X90106056Y-91944443D01*
X90105970Y-92002304D01*
X90105871Y-92053648D01*
X90105759Y-92098125D01*
X90105636Y-92135386D01*
X90105500Y-92165079D01*
X90105353Y-92186854D01*
X90105194Y-92200360D01*
X90105024Y-92205249D01*
X90104849Y-92205410D01*
X90102171Y-92205981D01*
X90096097Y-92206513D01*
X90086361Y-92207008D01*
X90072698Y-92207467D01*
X90054842Y-92207890D01*
X90032528Y-92208279D01*
X90005491Y-92208635D01*
X89973465Y-92208960D01*
X89936185Y-92209254D01*
X89893386Y-92209520D01*
X89844802Y-92209757D01*
X89790168Y-92209967D01*
X89729219Y-92210152D01*
X89661689Y-92210312D01*
X89587312Y-92210449D01*
X89505825Y-92210563D01*
X89416960Y-92210657D01*
X89320453Y-92210731D01*
X89216039Y-92210787D01*
X89103452Y-92210825D01*
X88982427Y-92210847D01*
X88852698Y-92210854D01*
X87602501Y-92210854D01*
X87302067Y-91910395D01*
X87001633Y-91609936D01*
X88150756Y-91609936D01*
X89299879Y-91609936D01*
X89301008Y-90341105D01*
X89302137Y-89072273D01*
X89703497Y-89304222D01*
G37*
G36*
X120592480Y-90069523D02*
G01*
X120592480Y-90605416D01*
X121390714Y-90605416D01*
X122188949Y-90605416D01*
X122188949Y-90069523D01*
X122188949Y-89533630D01*
X122592550Y-89533630D01*
X122996152Y-89533630D01*
X122996152Y-91100950D01*
X122996148Y-91186314D01*
X122996130Y-91302682D01*
X122996098Y-91416504D01*
X122996052Y-91527460D01*
X122995993Y-91635227D01*
X122995921Y-91739484D01*
X122995838Y-91839911D01*
X122995743Y-91936187D01*
X122995637Y-92027989D01*
X122995521Y-92114998D01*
X122995394Y-92196891D01*
X122995259Y-92273348D01*
X122995115Y-92344048D01*
X122994962Y-92408669D01*
X122994802Y-92466890D01*
X122994634Y-92518390D01*
X122994460Y-92562849D01*
X122994280Y-92599944D01*
X122994095Y-92629355D01*
X122993904Y-92650760D01*
X122993709Y-92663839D01*
X122993510Y-92668270D01*
X122990925Y-92666963D01*
X122981061Y-92661564D01*
X122964321Y-92652253D01*
X122941225Y-92639321D01*
X122912290Y-92623062D01*
X122878038Y-92603769D01*
X122838986Y-92581734D01*
X122795655Y-92557251D01*
X122748563Y-92530611D01*
X122698229Y-92502108D01*
X122645174Y-92472034D01*
X122589915Y-92440683D01*
X122188962Y-92213096D01*
X122188955Y-91680566D01*
X122188949Y-91148036D01*
X121390714Y-91148036D01*
X120592480Y-91148036D01*
X120592480Y-91679445D01*
X120592480Y-92210854D01*
X120188878Y-92210854D01*
X119785276Y-92210854D01*
X119785276Y-90872242D01*
X119785276Y-89533630D01*
X120188878Y-89533630D01*
X120592480Y-89533630D01*
X120592480Y-90069523D01*
G37*
G36*
X95811934Y-89534287D02*
G01*
X95944257Y-89534318D01*
X96073790Y-89534366D01*
X96199297Y-89534433D01*
X96319542Y-89534517D01*
X96433290Y-89534620D01*
X96539305Y-89534740D01*
X97432469Y-89535872D01*
X97136573Y-89832968D01*
X96840677Y-90130063D01*
X96444845Y-90130063D01*
X96049012Y-90130063D01*
X96048932Y-91169338D01*
X96048851Y-92208612D01*
X95648693Y-92438166D01*
X95605728Y-92462804D01*
X95552229Y-92493455D01*
X95501318Y-92522593D01*
X95453514Y-92549923D01*
X95409335Y-92575148D01*
X95369300Y-92597975D01*
X95333928Y-92618106D01*
X95303739Y-92635247D01*
X95279250Y-92649102D01*
X95260982Y-92659375D01*
X95249452Y-92665772D01*
X95245180Y-92667995D01*
X95245027Y-92666719D01*
X95244742Y-92657640D01*
X95244456Y-92640141D01*
X95244170Y-92614580D01*
X95243886Y-92581312D01*
X95243605Y-92540695D01*
X95243328Y-92493085D01*
X95243057Y-92438841D01*
X95242793Y-92378318D01*
X95242536Y-92311874D01*
X95242290Y-92239866D01*
X95242053Y-92162650D01*
X95241829Y-92080583D01*
X95241617Y-91994023D01*
X95241420Y-91903327D01*
X95241239Y-91808850D01*
X95241075Y-91710951D01*
X95240928Y-91609987D01*
X95240802Y-91506313D01*
X95240696Y-91400288D01*
X95239567Y-90132306D01*
X94841981Y-90131160D01*
X94444396Y-90130015D01*
X94149755Y-89832943D01*
X93855113Y-89535872D01*
X94750627Y-89534740D01*
X94801198Y-89534679D01*
X94911354Y-89534568D01*
X95028607Y-89534474D01*
X95151719Y-89534398D01*
X95279456Y-89534340D01*
X95410582Y-89534300D01*
X95543861Y-89534278D01*
X95678057Y-89534273D01*
X95811934Y-89534287D01*
G37*
G36*
X119211265Y-91169313D02*
G01*
X119211265Y-92206370D01*
X118858114Y-92206390D01*
X118849747Y-92206391D01*
X118792992Y-92206442D01*
X118737903Y-92206563D01*
X118685290Y-92206747D01*
X118635965Y-92206988D01*
X118590739Y-92207282D01*
X118550425Y-92207621D01*
X118515834Y-92208000D01*
X118487777Y-92208413D01*
X118467066Y-92208854D01*
X118454512Y-92209318D01*
X118404062Y-92212225D01*
X118404062Y-91828118D01*
X118404062Y-91444011D01*
X117590132Y-91444011D01*
X116776201Y-91444011D01*
X116776151Y-91828554D01*
X116776100Y-92213096D01*
X116375912Y-92440400D01*
X116333658Y-92464391D01*
X116280063Y-92494795D01*
X116229055Y-92523700D01*
X116181156Y-92550815D01*
X116136886Y-92575843D01*
X116096766Y-92598493D01*
X116061317Y-92618471D01*
X116031059Y-92635482D01*
X116006514Y-92649232D01*
X115988202Y-92659429D01*
X115976644Y-92665779D01*
X115972361Y-92667987D01*
X115972205Y-92666628D01*
X115971931Y-92657401D01*
X115971667Y-92639760D01*
X115971415Y-92614061D01*
X115971173Y-92580661D01*
X115970945Y-92539917D01*
X115970729Y-92492185D01*
X115970528Y-92437821D01*
X115970342Y-92377184D01*
X115970172Y-92310628D01*
X115970018Y-92238511D01*
X115969881Y-92161189D01*
X115969762Y-92079020D01*
X115969663Y-91992359D01*
X115969583Y-91901563D01*
X115969524Y-91806989D01*
X115969486Y-91708994D01*
X115969470Y-91607934D01*
X115969477Y-91504165D01*
X115969508Y-91398045D01*
X115970017Y-90130039D01*
X116776201Y-90130039D01*
X116776201Y-90491050D01*
X116776201Y-90852062D01*
X117590158Y-90852062D01*
X118404115Y-90852062D01*
X118402967Y-90492184D01*
X118401819Y-90132306D01*
X117589010Y-90131172D01*
X116776201Y-90130039D01*
X115970017Y-90130039D01*
X115970018Y-90127821D01*
X116271688Y-89830725D01*
X116573357Y-89533630D01*
X117588489Y-89533808D01*
X118603620Y-89533986D01*
X118907443Y-89833121D01*
X119211265Y-90132256D01*
X119211265Y-90852062D01*
X119211265Y-91169313D01*
G37*
G36*
X93923377Y-91168365D02*
G01*
X93923377Y-92205729D01*
X93523138Y-92207212D01*
X93465931Y-92207410D01*
X93409248Y-92207575D01*
X93355749Y-92207701D01*
X93306078Y-92207787D01*
X93260877Y-92207833D01*
X93220789Y-92207839D01*
X93186457Y-92207805D01*
X93158523Y-92207731D01*
X93137629Y-92207617D01*
X93124420Y-92207463D01*
X93119537Y-92207268D01*
X93119176Y-92204929D01*
X93118683Y-92194412D01*
X93118218Y-92176043D01*
X93117786Y-92150474D01*
X93117393Y-92118361D01*
X93117044Y-92080359D01*
X93116746Y-92037123D01*
X93116504Y-91989307D01*
X93116324Y-91937565D01*
X93116212Y-91882553D01*
X93116173Y-91824926D01*
X93116173Y-91444011D01*
X92302243Y-91444011D01*
X91488313Y-91444011D01*
X91488313Y-91829073D01*
X91488313Y-92214135D01*
X91085832Y-92443044D01*
X91041251Y-92468398D01*
X90987675Y-92498863D01*
X90936741Y-92527822D01*
X90888963Y-92554982D01*
X90844857Y-92580050D01*
X90804938Y-92602733D01*
X90769723Y-92622739D01*
X90739726Y-92639774D01*
X90715462Y-92653546D01*
X90697448Y-92663762D01*
X90686199Y-92670128D01*
X90682231Y-92672353D01*
X90682178Y-92670989D01*
X90682086Y-92661753D01*
X90681996Y-92644104D01*
X90681908Y-92618397D01*
X90681823Y-92584990D01*
X90681741Y-92544239D01*
X90681663Y-92496501D01*
X90681589Y-92442131D01*
X90681519Y-92381487D01*
X90681453Y-92314926D01*
X90681392Y-92242803D01*
X90681336Y-92165476D01*
X90681286Y-92083300D01*
X90681241Y-91996633D01*
X90681202Y-91905830D01*
X90681170Y-91811249D01*
X90681144Y-91713246D01*
X90681125Y-91612178D01*
X90681114Y-91508401D01*
X90681110Y-91402271D01*
X90681110Y-90131789D01*
X90682864Y-90130063D01*
X91488313Y-90130063D01*
X91488313Y-90491063D01*
X91488313Y-90852062D01*
X92302243Y-90852062D01*
X93116173Y-90852062D01*
X93116173Y-90491063D01*
X93116173Y-90130063D01*
X92302243Y-90130063D01*
X91488313Y-90130063D01*
X90682864Y-90130063D01*
X90984932Y-89832821D01*
X91288754Y-89533854D01*
X92303454Y-89533742D01*
X93318154Y-89533630D01*
X93620765Y-89832316D01*
X93923377Y-90131002D01*
X93923377Y-90491063D01*
X93923377Y-91168365D01*
G37*
G36*
X101937662Y-89534730D02*
G01*
X102395627Y-89535872D01*
X102970210Y-90330565D01*
X102980051Y-90344175D01*
X103034397Y-90419320D01*
X103087317Y-90492463D01*
X103138571Y-90563274D01*
X103187920Y-90631424D01*
X103235125Y-90696585D01*
X103279947Y-90758426D01*
X103322148Y-90816619D01*
X103361487Y-90870833D01*
X103397726Y-90920741D01*
X103430626Y-90966013D01*
X103459947Y-91006318D01*
X103485451Y-91041329D01*
X103506899Y-91070716D01*
X103524051Y-91094149D01*
X103536669Y-91111300D01*
X103544512Y-91121839D01*
X103547344Y-91125436D01*
X103547504Y-91125287D01*
X103551395Y-91120281D01*
X103560265Y-91108412D01*
X103573875Y-91090008D01*
X103591987Y-91065397D01*
X103614360Y-91034907D01*
X103640756Y-90998866D01*
X103670934Y-90957602D01*
X103704655Y-90911444D01*
X103741680Y-90860718D01*
X103781770Y-90805754D01*
X103824684Y-90746879D01*
X103870184Y-90684421D01*
X103918029Y-90618708D01*
X103967981Y-90550069D01*
X104019800Y-90478832D01*
X104073247Y-90405323D01*
X104128082Y-90329872D01*
X104706269Y-89534130D01*
X105162563Y-89533880D01*
X105618857Y-89533630D01*
X105618857Y-91100950D01*
X105618846Y-91228206D01*
X105618813Y-91352651D01*
X105618758Y-91473167D01*
X105618683Y-91589489D01*
X105618587Y-91701353D01*
X105618472Y-91808492D01*
X105618339Y-91910641D01*
X105618187Y-92007536D01*
X105618018Y-92098911D01*
X105617832Y-92184500D01*
X105617631Y-92264039D01*
X105617414Y-92337261D01*
X105617182Y-92403902D01*
X105616936Y-92463697D01*
X105616677Y-92516379D01*
X105616405Y-92561685D01*
X105616121Y-92599348D01*
X105615826Y-92629103D01*
X105615521Y-92650685D01*
X105615205Y-92663829D01*
X105614880Y-92668270D01*
X105612314Y-92667035D01*
X105602467Y-92661696D01*
X105585755Y-92652406D01*
X105562700Y-92639460D01*
X105533821Y-92623156D01*
X105499640Y-92603788D01*
X105460679Y-92581653D01*
X105417458Y-92557046D01*
X105370499Y-92530263D01*
X105320322Y-92501599D01*
X105267448Y-92471352D01*
X105212399Y-92439815D01*
X104813896Y-92211361D01*
X104811653Y-91355744D01*
X104809411Y-90500127D01*
X104311302Y-91188444D01*
X103813193Y-91876762D01*
X103551234Y-91876762D01*
X103289274Y-91876762D01*
X102789208Y-91188755D01*
X102289143Y-90500747D01*
X102288010Y-91355801D01*
X102286878Y-92210854D01*
X101883287Y-92210854D01*
X101479697Y-92210854D01*
X101479697Y-90872221D01*
X101479697Y-89533587D01*
X101937662Y-89534730D01*
G37*
G36*
X115390502Y-90870000D02*
G01*
X115390502Y-92206370D01*
X115041418Y-92206370D01*
X115037314Y-92206370D01*
X114980647Y-92206413D01*
X114925482Y-92206528D01*
X114872650Y-92206709D01*
X114822980Y-92206949D01*
X114777302Y-92207242D01*
X114736444Y-92207583D01*
X114701237Y-92207966D01*
X114672511Y-92208383D01*
X114651094Y-92208831D01*
X114637817Y-92209301D01*
X114583299Y-92212233D01*
X114583299Y-91994818D01*
X114583299Y-91777403D01*
X114153912Y-91371290D01*
X113724524Y-90965176D01*
X113425186Y-91264000D01*
X113125848Y-91562824D01*
X113125848Y-92115921D01*
X113125848Y-92122909D01*
X113125810Y-92203209D01*
X113125707Y-92278299D01*
X113125543Y-92347839D01*
X113125320Y-92411487D01*
X113125040Y-92468900D01*
X113124707Y-92519738D01*
X113124322Y-92563657D01*
X113123889Y-92600317D01*
X113123409Y-92629375D01*
X113122886Y-92650490D01*
X113122322Y-92663320D01*
X113121719Y-92667522D01*
X113119164Y-92666161D01*
X113109307Y-92660685D01*
X113092563Y-92651298D01*
X113069453Y-92638294D01*
X113040501Y-92621971D01*
X113006232Y-92602622D01*
X112967166Y-92580545D01*
X112923829Y-92556033D01*
X112876742Y-92529384D01*
X112826430Y-92500892D01*
X112773414Y-92470852D01*
X112718219Y-92439562D01*
X112318849Y-92213096D01*
X112318747Y-91829667D01*
X112318645Y-91446237D01*
X112785029Y-90979869D01*
X112789610Y-90975288D01*
X112843348Y-90921514D01*
X112895291Y-90869473D01*
X112945088Y-90819519D01*
X112992389Y-90772006D01*
X113036843Y-90727289D01*
X113078100Y-90685720D01*
X113115811Y-90647655D01*
X113149624Y-90613446D01*
X113179190Y-90583448D01*
X113204158Y-90558015D01*
X113224177Y-90537500D01*
X113238898Y-90522258D01*
X113247970Y-90512643D01*
X113251043Y-90509009D01*
X113249933Y-90507658D01*
X113243102Y-90500645D01*
X113230368Y-90488012D01*
X113212103Y-90470116D01*
X113188680Y-90447318D01*
X113160469Y-90419975D01*
X113127844Y-90388448D01*
X113091177Y-90353094D01*
X113050839Y-90314274D01*
X113007203Y-90272346D01*
X112960641Y-90227669D01*
X112911525Y-90180602D01*
X112860228Y-90131504D01*
X112807120Y-90080734D01*
X112786935Y-90061448D01*
X112732835Y-90009755D01*
X112679870Y-89959141D01*
X112628484Y-89910032D01*
X112579124Y-89862855D01*
X112532235Y-89818034D01*
X112488264Y-89775998D01*
X112447657Y-89737172D01*
X112410860Y-89701983D01*
X112378318Y-89670858D01*
X112350477Y-89644221D01*
X112327784Y-89622501D01*
X112310685Y-89606124D01*
X112299625Y-89595515D01*
X112235682Y-89534077D01*
X112714032Y-89533853D01*
X113192382Y-89533630D01*
X113887840Y-90190690D01*
X114583299Y-90847751D01*
X114583299Y-90190690D01*
X114583299Y-89533630D01*
X114986901Y-89533630D01*
X115390502Y-89533630D01*
X115390502Y-90870000D01*
G37*
G36*
X106932410Y-144824946D02*
G01*
X106932410Y-145041578D01*
X106580385Y-145041578D01*
X106228359Y-145041578D01*
X106228359Y-145583155D01*
X106228359Y-146124733D01*
X105984649Y-146124733D01*
X105740939Y-146124733D01*
X105740939Y-145583155D01*
X105740939Y-145041578D01*
X105388913Y-145041578D01*
X105036888Y-145041578D01*
X105036888Y-144824946D01*
X105036888Y-144608315D01*
X105984649Y-144608315D01*
X106932410Y-144608315D01*
X106932410Y-144824946D01*
G37*
G36*
X109031024Y-142777523D02*
G01*
X109288274Y-142794030D01*
X109303565Y-143467998D01*
X109303874Y-143481925D01*
X109307360Y-143744862D01*
X109306140Y-143970263D01*
X109300606Y-144134554D01*
X109291152Y-144214161D01*
X109262598Y-144240692D01*
X109181797Y-144261038D01*
X109035719Y-144272246D01*
X108810074Y-144275334D01*
X108490573Y-144271323D01*
X107717698Y-144256290D01*
X107700889Y-144053198D01*
X107684081Y-143850106D01*
X108228928Y-143850106D01*
X108773775Y-143850106D01*
X108773775Y-143305561D01*
X108773775Y-142761016D01*
X109031024Y-142777523D01*
G37*
G36*
X118847122Y-145038464D02*
G01*
X118847561Y-145102437D01*
X118854753Y-145292299D01*
X118868938Y-145424935D01*
X118887741Y-145474811D01*
X118923911Y-145450023D01*
X119020891Y-145359316D01*
X119159999Y-145217656D01*
X119324592Y-145041549D01*
X119445064Y-144910351D01*
X119585384Y-144764095D01*
X119688292Y-144674835D01*
X119775336Y-144628499D01*
X119868064Y-144611016D01*
X119988025Y-144608315D01*
X120255225Y-144608315D01*
X120255225Y-145369638D01*
X120255225Y-146130961D01*
X120025054Y-146114308D01*
X119794883Y-146097654D01*
X119767805Y-145670998D01*
X119740726Y-145244342D01*
X119341345Y-145687134D01*
X118941964Y-146129927D01*
X118664373Y-146113790D01*
X118386781Y-146097654D01*
X118386781Y-145366524D01*
X118386781Y-144635394D01*
X118616952Y-144618741D01*
X118847122Y-144602087D01*
X118847122Y-145038464D01*
G37*
G36*
X124614666Y-143866969D02*
G01*
X124680934Y-143955407D01*
X124775723Y-144101199D01*
X124884922Y-144280379D01*
X124994419Y-144468982D01*
X125090102Y-144643044D01*
X125157861Y-144778598D01*
X125183583Y-144851680D01*
X125168443Y-144898903D01*
X125109146Y-145023573D01*
X125018342Y-145195469D01*
X124910426Y-145388933D01*
X124799791Y-145578307D01*
X124700831Y-145737933D01*
X124627939Y-145842155D01*
X124591538Y-145866379D01*
X124480038Y-145889828D01*
X124287806Y-145899417D01*
X124001359Y-145896313D01*
X123431039Y-145881023D01*
X123146982Y-145420682D01*
X123068877Y-145291752D01*
X122961889Y-145106053D01*
X122887657Y-144965269D01*
X122858862Y-144892644D01*
X122881811Y-144863127D01*
X122974478Y-144840905D01*
X123150045Y-144828683D01*
X123421107Y-144824946D01*
X123987416Y-144824946D01*
X124274092Y-144338819D01*
X124364979Y-144187493D01*
X124473989Y-144014227D01*
X124554822Y-143895659D01*
X124594584Y-143851399D01*
X124614666Y-143866969D01*
G37*
G36*
X109842215Y-145038755D02*
G01*
X109851423Y-145053694D01*
X109975313Y-145252879D01*
X110064517Y-145370096D01*
X110138044Y-145403752D01*
X110214905Y-145352254D01*
X110314111Y-145214007D01*
X110454671Y-144987420D01*
X110551501Y-144833686D01*
X110644947Y-144707560D01*
X110730094Y-144640704D01*
X110833246Y-144614204D01*
X110980704Y-144609145D01*
X111210875Y-144608315D01*
X111210875Y-145369638D01*
X111210875Y-146130961D01*
X110980704Y-146114308D01*
X110750534Y-146097654D01*
X110723455Y-145772708D01*
X110696376Y-145447761D01*
X110479745Y-145772708D01*
X110443041Y-145827006D01*
X110299169Y-146013877D01*
X110179777Y-146103132D01*
X110067359Y-146095196D01*
X109944413Y-145990497D01*
X109793435Y-145789463D01*
X109559063Y-145447761D01*
X109542939Y-145786247D01*
X109526815Y-146124733D01*
X109284161Y-146124733D01*
X109041507Y-146124733D01*
X109056575Y-145380064D01*
X109071643Y-144635394D01*
X109322464Y-144619150D01*
X109573285Y-144602906D01*
X109842215Y-145038755D01*
G37*
G36*
X123746589Y-142781110D02*
G01*
X123886993Y-142793938D01*
X123937954Y-142813636D01*
X123921722Y-142848422D01*
X123857768Y-142965939D01*
X123752463Y-143153159D01*
X123613492Y-143396855D01*
X123448544Y-143683796D01*
X123265305Y-144000755D01*
X123071462Y-144334502D01*
X122874702Y-144671808D01*
X122682713Y-144999445D01*
X122503181Y-145304184D01*
X122343795Y-145572795D01*
X122212240Y-145792050D01*
X122116204Y-145948720D01*
X122096992Y-145977394D01*
X122052812Y-146020645D01*
X121983705Y-146047950D01*
X121868825Y-146062946D01*
X121687327Y-146069275D01*
X121418368Y-146070575D01*
X121187900Y-146069004D01*
X120984891Y-146064325D01*
X120847392Y-146057288D01*
X120796802Y-146048646D01*
X120815791Y-146012429D01*
X120884307Y-145892606D01*
X120996746Y-145699575D01*
X121146792Y-145444088D01*
X121328129Y-145136892D01*
X121534442Y-144788738D01*
X121759415Y-144410373D01*
X122722028Y-142794030D01*
X123329991Y-142778716D01*
X123535458Y-142776226D01*
X123746589Y-142781110D01*
G37*
G36*
X104938432Y-145693545D02*
G01*
X104828728Y-145896757D01*
X104647055Y-146034137D01*
X104548077Y-146070914D01*
X104320579Y-146113140D01*
X104053096Y-146128579D01*
X103781970Y-146117675D01*
X103543545Y-146080871D01*
X103374165Y-146018610D01*
X103309309Y-145973699D01*
X103138758Y-145777765D01*
X103047867Y-145532130D01*
X103045660Y-145423634D01*
X103540046Y-145423634D01*
X103603546Y-145561753D01*
X103767659Y-145669336D01*
X103937470Y-145727262D01*
X104106495Y-145736246D01*
X104273363Y-145677133D01*
X104404171Y-145587888D01*
X104484351Y-145448143D01*
X104464989Y-145274606D01*
X104443212Y-145226574D01*
X104320794Y-145103070D01*
X104145579Y-145037608D01*
X103948700Y-145032471D01*
X103761288Y-145089938D01*
X103614472Y-145212292D01*
X103580346Y-145264488D01*
X103540046Y-145423634D01*
X103045660Y-145423634D01*
X103042347Y-145260709D01*
X103127910Y-144987420D01*
X103223844Y-144844461D01*
X103404632Y-144709702D01*
X103657846Y-144632849D01*
X103996090Y-144608400D01*
X104005836Y-144608412D01*
X104370671Y-144636507D01*
X104645845Y-144720953D01*
X104836292Y-144865454D01*
X104946942Y-145073714D01*
X104982730Y-145349439D01*
X104981601Y-145413417D01*
X104976250Y-145448143D01*
X104938432Y-145693545D01*
G37*
G36*
X111102559Y-143489055D02*
G01*
X111102426Y-143550216D01*
X111098654Y-143812903D01*
X111090470Y-144031040D01*
X111078925Y-144183374D01*
X111065066Y-144248652D01*
X111050411Y-144254133D01*
X110947014Y-144264967D01*
X110763865Y-144271794D01*
X110521175Y-144274062D01*
X110239160Y-144271217D01*
X109450747Y-144256290D01*
X109433915Y-144082143D01*
X109417084Y-143907995D01*
X109998166Y-143892590D01*
X110162503Y-143886901D01*
X110402735Y-143870043D01*
X110546566Y-143844593D01*
X110601707Y-143809488D01*
X110593055Y-143781710D01*
X110520561Y-143758125D01*
X110366936Y-143745180D01*
X110118693Y-143740962D01*
X110002570Y-143739590D01*
X109787894Y-143730428D01*
X109624617Y-143714623D01*
X109541186Y-143694467D01*
X109496868Y-143623723D01*
X109487029Y-143492204D01*
X109504905Y-143335607D01*
X110063889Y-143320131D01*
X110293497Y-143311131D01*
X110480130Y-143294993D01*
X110578935Y-143271476D01*
X110601061Y-143238894D01*
X110590647Y-143225518D01*
X110495526Y-143193761D01*
X110300475Y-143171358D01*
X110001458Y-143157762D01*
X109423668Y-143142391D01*
X109423668Y-142954671D01*
X109423668Y-142766951D01*
X110263114Y-142766951D01*
X111102559Y-142766951D01*
X111102559Y-143489055D01*
G37*
G36*
X108927747Y-145429933D02*
G01*
X108875656Y-145669778D01*
X108752116Y-145878073D01*
X108557144Y-146029873D01*
X108524283Y-146044403D01*
X108325138Y-146094686D01*
X108068476Y-146121160D01*
X107793749Y-146123142D01*
X107540414Y-146099946D01*
X107347924Y-146050885D01*
X107324957Y-146040813D01*
X107128440Y-145896492D01*
X107009647Y-145678868D01*
X106967164Y-145385467D01*
X106967504Y-145330913D01*
X106973473Y-145297342D01*
X107483483Y-145297342D01*
X107486364Y-145460513D01*
X107575586Y-145604155D01*
X107700875Y-145675782D01*
X107859915Y-145719072D01*
X108047669Y-145718940D01*
X108233890Y-145658873D01*
X108360495Y-145549396D01*
X108415844Y-145408207D01*
X108388292Y-145253002D01*
X108266199Y-145101481D01*
X108138730Y-145049152D01*
X107955028Y-145034572D01*
X107763125Y-145057798D01*
X107609615Y-145117682D01*
X107564169Y-145154321D01*
X107483483Y-145297342D01*
X106973473Y-145297342D01*
X107014816Y-145064804D01*
X107145817Y-144860654D01*
X107369522Y-144703176D01*
X107552836Y-144642958D01*
X107812804Y-144609351D01*
X108094825Y-144609041D01*
X108357139Y-144641872D01*
X108557989Y-144707684D01*
X108655168Y-144770516D01*
X108817519Y-144955359D01*
X108908373Y-145183479D01*
X108926039Y-145408207D01*
X108927747Y-145429933D01*
G37*
G36*
X115251089Y-143625415D02*
G01*
X115388051Y-143858636D01*
X115497927Y-144050687D01*
X115570996Y-144184437D01*
X115597541Y-144242750D01*
X115586327Y-144254915D01*
X115499057Y-144275309D01*
X115353587Y-144283369D01*
X115239529Y-144278469D01*
X115099987Y-144239842D01*
X114991795Y-144147974D01*
X114950081Y-144103313D01*
X114881197Y-144054172D01*
X114785743Y-144026867D01*
X114636484Y-144015102D01*
X114406184Y-144012580D01*
X114251121Y-144013414D01*
X114074722Y-144020983D01*
X113962322Y-144041734D01*
X113886683Y-144081966D01*
X113820573Y-144147974D01*
X113799930Y-144170566D01*
X113669573Y-144258521D01*
X113489056Y-144283369D01*
X113447059Y-144282451D01*
X113313894Y-144265855D01*
X113245376Y-144235010D01*
X113247114Y-144213690D01*
X113288663Y-144111305D01*
X113373034Y-143942629D01*
X113491371Y-143724929D01*
X113543962Y-143633475D01*
X114126561Y-143633475D01*
X114374688Y-143633475D01*
X114451465Y-143631473D01*
X114574259Y-143616902D01*
X114622613Y-143592857D01*
X114603879Y-143538256D01*
X114549412Y-143435024D01*
X114480437Y-143322047D01*
X114418612Y-143234522D01*
X114385592Y-143207645D01*
X114377234Y-143220240D01*
X114326228Y-143302486D01*
X114248698Y-143430384D01*
X114126561Y-143633475D01*
X113543962Y-143633475D01*
X113634823Y-143475471D01*
X114054158Y-142764291D01*
X114403471Y-142779160D01*
X114752783Y-142794030D01*
X115175105Y-143498081D01*
X115231661Y-143592857D01*
X115251089Y-143625415D01*
G37*
G36*
X117988465Y-145652865D02*
G01*
X118097895Y-145851093D01*
X118170758Y-145992859D01*
X118197229Y-146060103D01*
X118195903Y-146070459D01*
X118136898Y-146115485D01*
X118015648Y-146129905D01*
X117867168Y-146116407D01*
X117726472Y-146077681D01*
X117628572Y-146016418D01*
X117603396Y-145991103D01*
X117535077Y-145948175D01*
X117432274Y-145922972D01*
X117270409Y-145911085D01*
X117024902Y-145908102D01*
X116870151Y-145908880D01*
X116681600Y-145915577D01*
X116564432Y-145932815D01*
X116495489Y-145964970D01*
X116451611Y-146016418D01*
X116407277Y-146068189D01*
X116303365Y-146112429D01*
X116126206Y-146124733D01*
X116044628Y-146121973D01*
X115917481Y-146101620D01*
X115868444Y-146067069D01*
X115890362Y-146008813D01*
X115958415Y-145875488D01*
X116060601Y-145690027D01*
X116183750Y-145474840D01*
X116779156Y-145474840D01*
X117026975Y-145474840D01*
X117274794Y-145474840D01*
X117183922Y-145284278D01*
X117128763Y-145183971D01*
X117055427Y-145122449D01*
X116977196Y-145161881D01*
X116879414Y-145303175D01*
X116779156Y-145474840D01*
X116183750Y-145474840D01*
X116184645Y-145473276D01*
X116318271Y-145246080D01*
X116449203Y-145029285D01*
X116565166Y-144843736D01*
X116653883Y-144710280D01*
X116703078Y-144649763D01*
X116752493Y-144633736D01*
X116888768Y-144616269D01*
X117067228Y-144609145D01*
X117372407Y-144608315D01*
X117784818Y-145301894D01*
X117852291Y-145416238D01*
X117886015Y-145474840D01*
X117988465Y-145652865D01*
G37*
G36*
X114251201Y-144610559D02*
G01*
X114418672Y-144619293D01*
X114545636Y-144652033D01*
X114672445Y-144724917D01*
X114839446Y-144854084D01*
X115137314Y-145095722D01*
X115164393Y-144865558D01*
X115191472Y-144635394D01*
X115435182Y-144635394D01*
X115678892Y-144635394D01*
X115694183Y-145309362D01*
X115694486Y-145322989D01*
X115697924Y-145586161D01*
X115696570Y-145812013D01*
X115690838Y-145976897D01*
X115681139Y-146057170D01*
X115677671Y-146064653D01*
X115596624Y-146110263D01*
X115422138Y-146114332D01*
X115375521Y-146110656D01*
X115251717Y-146089129D01*
X115195316Y-146038464D01*
X115173765Y-145935181D01*
X115170006Y-145903793D01*
X115136584Y-145770111D01*
X115074913Y-145725659D01*
X114972192Y-145769155D01*
X114815625Y-145899318D01*
X114677687Y-146020084D01*
X114562357Y-146090385D01*
X114433497Y-146119187D01*
X114244921Y-146124733D01*
X114095945Y-146120212D01*
X113968446Y-146105497D01*
X113919819Y-146084115D01*
X113929856Y-146066635D01*
X114003392Y-145988562D01*
X114132640Y-145868168D01*
X114298923Y-145723233D01*
X114384614Y-145649642D01*
X114534638Y-145515147D01*
X114638290Y-145414295D01*
X114676973Y-145364720D01*
X114667326Y-145348119D01*
X114594146Y-145271932D01*
X114464739Y-145153611D01*
X114297869Y-145010681D01*
X114213340Y-144939177D01*
X114062223Y-144804950D01*
X113957763Y-144703155D01*
X113918764Y-144651603D01*
X113949838Y-144633015D01*
X114062875Y-144616094D01*
X114230171Y-144610381D01*
X114251201Y-144610559D01*
G37*
G36*
X113409573Y-145466855D02*
G01*
X113546597Y-145700050D01*
X113656520Y-145892077D01*
X113729621Y-146025809D01*
X113756176Y-146084115D01*
X113738094Y-146098700D01*
X113640281Y-146117413D01*
X113485961Y-146124733D01*
X113336960Y-146118246D01*
X113218283Y-146085761D01*
X113147987Y-146016418D01*
X113118694Y-145978036D01*
X113060757Y-145941262D01*
X112962343Y-145920094D01*
X112800855Y-145910414D01*
X112553697Y-145908102D01*
X112356811Y-145909290D01*
X112178391Y-145916559D01*
X112069089Y-145934097D01*
X112006716Y-145966012D01*
X111969084Y-146016418D01*
X111918330Y-146077883D01*
X111817841Y-146114785D01*
X111642232Y-146124733D01*
X111546501Y-146121968D01*
X111422055Y-146106773D01*
X111373348Y-146082745D01*
X111380019Y-146064122D01*
X111430613Y-145965768D01*
X111522791Y-145800495D01*
X111646845Y-145585524D01*
X111729843Y-145445072D01*
X112348188Y-145445072D01*
X112353677Y-145451723D01*
X112429105Y-145468231D01*
X112564819Y-145474840D01*
X112613225Y-145474086D01*
X112733356Y-145463721D01*
X112781451Y-145445072D01*
X112781206Y-145439881D01*
X112750685Y-145351927D01*
X112687191Y-145237425D01*
X112616608Y-145138115D01*
X112564819Y-145095735D01*
X112561600Y-145096131D01*
X112507059Y-145145348D01*
X112436053Y-145247737D01*
X112374469Y-145361558D01*
X112348188Y-145445072D01*
X111729843Y-145445072D01*
X111793071Y-145338075D01*
X112212794Y-144635394D01*
X112561866Y-144635394D01*
X112910939Y-144635394D01*
X113333500Y-145339445D01*
X113396567Y-145445072D01*
X113409573Y-145466855D01*
G37*
G36*
X113052240Y-143525160D02*
G01*
X113052240Y-143759843D01*
X113052240Y-144283369D01*
X112356270Y-144283369D01*
X112342149Y-144283356D01*
X112062338Y-144278304D01*
X111808521Y-144265384D01*
X111608131Y-144246490D01*
X111488602Y-144223514D01*
X111469591Y-144216469D01*
X111302384Y-144102848D01*
X111218106Y-143942003D01*
X111222833Y-143784400D01*
X111726109Y-143784400D01*
X111795733Y-143844285D01*
X111816866Y-143853598D01*
X111944559Y-143882448D01*
X112117711Y-143899571D01*
X112298200Y-143903725D01*
X112447908Y-143893668D01*
X112528714Y-143868159D01*
X112540763Y-143851952D01*
X112564819Y-143759843D01*
X112564518Y-143754834D01*
X112524967Y-143715581D01*
X112408298Y-143694450D01*
X112199254Y-143688462D01*
X112113126Y-143689563D01*
X111889877Y-143705081D01*
X111759180Y-143737346D01*
X111726109Y-143784400D01*
X111222833Y-143784400D01*
X111223549Y-143760527D01*
X111325507Y-143585014D01*
X111340100Y-143568979D01*
X111402314Y-143470765D01*
X111379665Y-143401497D01*
X111334791Y-143330523D01*
X111325205Y-143251075D01*
X111818155Y-143251075D01*
X111853915Y-143284686D01*
X111970416Y-143302991D01*
X112181202Y-143308529D01*
X112320740Y-143306928D01*
X112470027Y-143295672D01*
X112544543Y-143269795D01*
X112564819Y-143224817D01*
X112558735Y-143195163D01*
X112512010Y-143164014D01*
X112400825Y-143152683D01*
X112203571Y-143157120D01*
X112051094Y-143168237D01*
X111887807Y-143198008D01*
X111819953Y-143240831D01*
X111818155Y-143251075D01*
X111325205Y-143251075D01*
X111316059Y-143175281D01*
X111360691Y-143010448D01*
X111461889Y-142879197D01*
X111501311Y-142850517D01*
X111574876Y-142813252D01*
X111673581Y-142788956D01*
X111818213Y-142774936D01*
X112029561Y-142768498D01*
X112328413Y-142766951D01*
X113052240Y-142766951D01*
X113052240Y-143224817D01*
X113052240Y-143525160D01*
G37*
%TD*%
D13*
%TO.C,H6*%
X84764000Y-94984000D03*
%TD*%
%TO.C,H5*%
X126130000Y-136350000D03*
%TD*%
D14*
%TO.C,H1*%
X127985010Y-51120990D03*
X128644020Y-49530000D03*
X128644020Y-52711980D03*
X130235010Y-48870990D03*
D15*
X130235010Y-51120990D03*
D14*
X130235010Y-53370990D03*
X131826000Y-49530000D03*
X131826000Y-52711980D03*
X132485010Y-51120990D03*
%TD*%
%TO.C,H3*%
X128052000Y-143728000D03*
X128711010Y-142137010D03*
X128711010Y-145318990D03*
X130302000Y-141478000D03*
D15*
X130302000Y-143728000D03*
D14*
X130302000Y-145978000D03*
X131892990Y-142137010D03*
X131892990Y-145318990D03*
X132552000Y-143728000D03*
%TD*%
D16*
%TO.C,J4*%
X99171505Y-51054000D03*
D17*
X101711505Y-51054000D03*
X104251505Y-51054000D03*
X106791505Y-51054000D03*
X109331505Y-51054000D03*
X111871505Y-51054000D03*
%TD*%
D14*
%TO.C,H4*%
X78455010Y-143830990D03*
X79114020Y-142240000D03*
X79114020Y-145421980D03*
X80705010Y-141580990D03*
D15*
X80705010Y-143830990D03*
D14*
X80705010Y-146080990D03*
X82296000Y-142240000D03*
X82296000Y-145421980D03*
X82955010Y-143830990D03*
%TD*%
D18*
%TO.C,H8*%
X84710000Y-136360000D03*
%TD*%
D14*
%TO.C,H2*%
X78558000Y-51054000D03*
X79217010Y-49463010D03*
X79217010Y-52644990D03*
X80808000Y-48804000D03*
D15*
X80808000Y-51054000D03*
D14*
X80808000Y-53304000D03*
X82398990Y-49463010D03*
X82398990Y-52644990D03*
X83058000Y-51054000D03*
%TD*%
D18*
%TO.C,H7*%
X126060000Y-94910000D03*
%TD*%
D19*
%TO.C,U2*%
X92180000Y-78870000D03*
X93580000Y-78870000D03*
X94980000Y-78870000D03*
X91180000Y-77590000D03*
X92180000Y-77590000D03*
X93580000Y-77590000D03*
X94980000Y-77590000D03*
X95980000Y-77590000D03*
X92180000Y-76310000D03*
X93580000Y-76310000D03*
X94980000Y-76310000D03*
%TD*%
D20*
%TO.C,J6*%
X94701000Y-145782001D03*
D21*
X89621000Y-143622000D03*
X92161000Y-143622000D03*
X94701000Y-143622000D03*
X97241000Y-143622000D03*
%TD*%
D22*
%TO.C,J3*%
X87005000Y-50292000D03*
D17*
X87405000Y-52832000D03*
X87005000Y-55372000D03*
X87405000Y-57912000D03*
%TD*%
D23*
%TO.C,FID7*%
X132260000Y-139060000D03*
%TD*%
D24*
%TO.C,U12*%
X108525030Y-113037000D03*
X108525030Y-113539000D03*
X108525030Y-114041000D03*
X108525030Y-114543000D03*
X108525030Y-115045000D03*
X108525030Y-115547000D03*
X108525030Y-116049000D03*
X108525030Y-116551000D03*
X108525030Y-117053000D03*
X108525030Y-117555000D03*
X108525030Y-118057000D03*
X108525030Y-118559000D03*
X108525030Y-119061000D03*
X108525030Y-119563000D03*
X102693030Y-119563000D03*
X102693030Y-119061000D03*
X102693030Y-118559000D03*
X102693030Y-118057000D03*
X102693030Y-117555000D03*
X102693030Y-117053000D03*
X102693030Y-116551000D03*
X102693030Y-116049000D03*
X102693030Y-115547000D03*
X102693030Y-115045000D03*
X102693030Y-114543000D03*
X102693030Y-114041000D03*
X102693030Y-113539000D03*
X102693030Y-113037000D03*
%TD*%
D25*
%TO.C,J5*%
X83470000Y-86150000D03*
X83470000Y-80370000D03*
D26*
X84545000Y-86460000D03*
X84545000Y-85660000D03*
D27*
X84545000Y-84510000D03*
X84545000Y-83510000D03*
X84545000Y-83010000D03*
X84545000Y-82010000D03*
D26*
X84545000Y-80060000D03*
X84545000Y-80860000D03*
D27*
X84545000Y-81510000D03*
X84545000Y-82510000D03*
X84545000Y-84010000D03*
X84545000Y-85010000D03*
D28*
X79790000Y-87580000D03*
D29*
X83970000Y-87580000D03*
D28*
X79790000Y-78940000D03*
D29*
X83970000Y-78940000D03*
%TD*%
D30*
%TO.C,U4*%
X125690000Y-81360000D03*
X124420000Y-81360000D03*
X123150000Y-81360000D03*
X121880000Y-81360000D03*
X120610000Y-81360000D03*
X119340000Y-81360000D03*
X118070000Y-81360000D03*
X116800000Y-81360000D03*
X115530000Y-81360000D03*
X114260000Y-81360000D03*
X112990000Y-81360000D03*
X111720000Y-81360000D03*
X110450000Y-81360000D03*
X109180000Y-81360000D03*
D31*
X107930000Y-79595000D03*
X107930000Y-78325000D03*
X107930000Y-77055000D03*
X107930000Y-75785000D03*
X107930000Y-74515000D03*
X107930000Y-73245000D03*
X107930000Y-71975000D03*
X107930000Y-70705000D03*
X107930000Y-69435000D03*
X107930000Y-68165000D03*
X107930000Y-66895000D03*
X107930000Y-65625000D03*
D30*
X109180000Y-63860000D03*
X110450000Y-63860000D03*
X111720000Y-63860000D03*
X112990000Y-63860000D03*
X114260000Y-63860000D03*
X115530000Y-63860000D03*
X116800000Y-63860000D03*
X118070000Y-63860000D03*
X119340000Y-63860000D03*
X120610000Y-63860000D03*
X121880000Y-63860000D03*
X123150000Y-63860000D03*
X124420000Y-63860000D03*
X125690000Y-63860000D03*
D32*
X116570000Y-75510000D03*
X117970000Y-75510000D03*
X119370000Y-75510000D03*
X116570000Y-74110000D03*
X117970000Y-74110000D03*
X119370000Y-74110000D03*
X116570000Y-72710000D03*
X117970000Y-72710000D03*
X119370000Y-72710000D03*
%TD*%
D33*
%TO.C,J2*%
X130670000Y-57730000D03*
X125590000Y-58746000D03*
X125590000Y-56714000D03*
D34*
X129400000Y-58365000D03*
X129400000Y-57095000D03*
X128130000Y-58365000D03*
X128130000Y-57095000D03*
X126860000Y-58365000D03*
X126860000Y-57095000D03*
%TD*%
D23*
%TO.C,FID8*%
X78850000Y-139070000D03*
%TD*%
D35*
%TO.C,J1*%
X82330000Y-66620000D03*
D36*
X86830000Y-66620000D03*
D37*
X82330000Y-72120000D03*
X88530000Y-72120000D03*
X82330000Y-61120000D03*
X88530000Y-61120000D03*
%TD*%
D38*
%TO.C,SW1*%
X132246000Y-104448000D03*
X128136000Y-104448000D03*
%TD*%
D23*
%TO.C,FID5*%
X125270000Y-50310000D03*
%TD*%
D38*
%TO.C,SW2*%
X132142000Y-113155000D03*
X128032000Y-113155000D03*
%TD*%
D23*
%TO.C,FID6*%
X78750000Y-55900000D03*
%TD*%
M02*
